gui5-110.ufo
<glyph name="exclam" format="1">
  <unicode hex="0021"/>
  <advance width="345"/>
  <outline>
    <contour>
      <point x="143" y="183" type="line"/>
      <point x="202" y="343"/>
      <point x="225" y="411"/>
      <point x="275" y="512" type="curve"/>
      <point x="301" y="571"/>
      <point x="313" y="604"/>
      <point x="313" y="633" type="curve" smooth="yes"/>
      <point x="313" y="674"/>
      <point x="298" y="692"/>
      <point x="272" y="692" type="curve" smooth="yes"/>
      <point x="196" y="692"/>
      <point x="177" y="425"/>
      <point x="124" y="188" type="curve"/>
    </contour>
    <contour>
      <point x="94" y="99" type="line"/>
      <point x="65" y="99"/>
      <point x="41" y="74"/>
      <point x="41" y="45" type="curve" smooth="yes"/>
      <point x="41" y="13"/>
      <point x="63" y="-12"/>
      <point x="93" y="-12" type="curve" smooth="yes"/>
      <point x="126" y="-12"/>
      <point x="151" y="13"/>
      <point x="151" y="43" type="curve" smooth="yes"/>
      <point x="151" y="73"/>
      <point x="126" y="99"/>
      <point x="94" y="99" type="curve"/>
    </contour>
  </outline>
</glyph>
<glyph name="quotedbl" format="1">
  <unicode hex="0022"/>
  <advance width="436"/>
  <outline>
    <contour>
      <point x="357" y="437" type="line"/>
      <point x="417" y="570"/>
      <point x="448" y="645"/>
      <point x="448" y="661" type="curve" smooth="yes"/>
      <point x="448" y="678"/>
      <point x="433" y="691"/>
      <point x="416" y="691" type="curve" smooth="yes"/>
      <point x="353" y="691"/>
      <point x="353" y="660"/>
      <point x="335" y="437" type="curve"/>
    </contour>
    <contour>
      <point x="172" y="437" type="line"/>
      <point x="234" y="570"/>
      <point x="263" y="645"/>
      <point x="263" y="661" type="curve" smooth="yes"/>
      <point x="263" y="678"/>
      <point x="249" y="691"/>
      <point x="231" y="691" type="curve" smooth="yes"/>
      <point x="167" y="691"/>
      <point x="168" y="660"/>
      <point x="150" y="437" type="curve"/>
    </contour>
  </outline>
</glyph>
<glyph name="numbersign" format="1">
  <unicode hex="0023"/>
  <advance width="519"/>
  <outline>
    <contour>
      <point x="483" y="278" type="line"/>
      <point x="384" y="278" type="line"/>
      <point x="440" y="425" type="line"/>
      <point x="549" y="425" type="line"/>
      <point x="560" y="482" type="line"/>
      <point x="461" y="482" type="line"/>
      <point x="544" y="702" type="line"/>
      <point x="481" y="702" type="line"/>
      <point x="398" y="482" type="line"/>
      <point x="263" y="482" type="line"/>
      <point x="345" y="702" type="line"/>
      <point x="283" y="702" type="line"/>
      <point x="198" y="482" type="line"/>
      <point x="90" y="482" type="line"/>
      <point x="78" y="425" type="line"/>
      <point x="178" y="425" type="line"/>
      <point x="122" y="278" type="line"/>
      <point x="14" y="278" type="line"/>
      <point x="2" y="221" type="line"/>
      <point x="101" y="221" type="line"/>
      <point x="18" y="0" type="line"/>
      <point x="82" y="0" type="line"/>
      <point x="164" y="221" type="line"/>
      <point x="298" y="221" type="line"/>
      <point x="216" y="0" type="line"/>
      <point x="281" y="0" type="line"/>
      <point x="363" y="221" type="line"/>
      <point x="471" y="221" type="line"/>
    </contour>
    <contour>
      <point x="377" y="425" type="line"/>
      <point x="321" y="278" type="line"/>
      <point x="186" y="278" type="line"/>
      <point x="242" y="425" type="line"/>
    </contour>
  </outline>
</glyph>
<glyph name="dollar" format="1">
  <unicode hex="0024"/>
  <advance width="519"/>
  <outline>
    <contour>
      <point x="516" y="636" type="line"/>
      <point x="484" y="658"/>
      <point x="439" y="677"/>
      <point x="390" y="688" type="curve"/>
      <point x="408" y="759" type="line"/>
      <point x="372" y="759" type="line"/>
      <point x="354" y="693" type="line"/>
      <point x="335" y="693" type="line" smooth="yes"/>
      <point x="207" y="693"/>
      <point x="128" y="628"/>
      <point x="128" y="532" type="curve" smooth="yes"/>
      <point x="128" y="465"/>
      <point x="163" y="415"/>
      <point x="268" y="341" type="curve"/>
      <point x="196" y="33" type="line"/>
      <point x="114" y="54"/>
      <point x="88" y="91"/>
      <point x="76" y="200" type="curve"/>
      <point x="60" y="197" type="line"/>
      <point x="32" y="69" type="line"/>
      <point x="70" y="36"/>
      <point x="122" y="15"/>
      <point x="188" y="2" type="curve"/>
      <point x="165" y="-92" type="line"/>
      <point x="201" y="-92" type="line"/>
      <point x="223" y="0" type="line"/>
      <point x="389" y="6"/>
      <point x="472" y="70"/>
      <point x="472" y="197" type="curve" smooth="yes"/>
      <point x="472" y="279"/>
      <point x="447" y="316"/>
      <point x="325" y="412" type="curve"/>
      <point x="383" y="657" type="line"/>
      <point x="446" y="633"/>
      <point x="468" y="595"/>
      <point x="471" y="519" type="curve"/>
      <point x="487" y="517" type="line"/>
    </contour>
    <contour>
      <point x="293" y="436" type="line"/>
      <point x="227" y="483"/>
      <point x="208" y="512"/>
      <point x="208" y="558" type="curve" smooth="yes"/>
      <point x="208" y="625"/>
      <point x="256" y="665"/>
      <point x="331" y="665" type="curve" smooth="yes"/>
      <point x="349" y="665" type="line"/>
    </contour>
    <contour>
      <point x="299" y="318" type="line"/>
      <point x="377" y="256"/>
      <point x="395" y="222"/>
      <point x="395" y="169" type="curve" smooth="yes"/>
      <point x="395" y="82"/>
      <point x="338" y="34"/>
      <point x="230" y="26" type="curve"/>
    </contour>
  </outline>
</glyph>
<glyph name="percent" format="1">
  <unicode hex="0025"/>
  <advance width="865"/>
  <outline>
    <contour>
      <point x="709" y="385" type="line"/>
      <point x="599" y="385"/>
      <point x="486" y="261"/>
      <point x="486" y="142" type="curve" smooth="yes"/>
      <point x="486" y="54"/>
      <point x="531" y="0"/>
      <point x="610" y="0" type="curve" smooth="yes"/>
      <point x="739" y="0"/>
      <point x="820" y="153"/>
      <point x="820" y="274" type="curve" smooth="yes"/>
      <point x="820" y="344"/>
      <point x="780" y="385"/>
      <point x="709" y="385" type="curve"/>
    </contour>
    <contour>
      <point x="721" y="352" type="line"/>
      <point x="761" y="352"/>
      <point x="794" y="315"/>
      <point x="794" y="269" type="curve" smooth="yes"/>
      <point x="794" y="177"/>
      <point x="721" y="31"/>
      <point x="629" y="31" type="curve" smooth="yes"/>
      <point x="586" y="31"/>
      <point x="564" y="57"/>
      <point x="564" y="105" type="curve" smooth="yes"/>
      <point x="564" y="195"/>
      <point x="643" y="352"/>
      <point x="721" y="352" type="curve"/>
    </contour>
    <contour>
      <point x="678" y="702" type="line"/>
      <point x="637" y="702" type="line"/>
      <point x="584" y="649"/>
      <point x="540" y="632"/>
      <point x="469" y="632" type="curve" smooth="yes"/>
      <point x="436" y="632"/>
      <point x="412" y="638"/>
      <point x="398" y="649" type="curve" smooth="yes"/>
      <point x="379" y="665" type="line"/>
      <point x="364" y="680"/>
      <point x="336" y="687"/>
      <point x="308" y="687" type="curve" smooth="yes" name="hr01"/>
      <point x="193" y="687"/>
      <point x="82" y="563"/>
      <point x="82" y="434" type="curve" smooth="yes"/>
      <point x="82" y="359"/>
      <point x="134" y="299"/>
      <point x="205" y="299" type="curve" smooth="yes"/>
      <point x="318" y="299"/>
      <point x="418" y="446"/>
      <point x="418" y="561" type="curve" smooth="yes"/>
      <point x="418" y="575"/>
      <point x="417" y="598"/>
      <point x="412" y="616" type="curve"/>
      <point x="431" y="607"/>
      <point x="446" y="605"/>
      <point x="475" y="605" type="curve" smooth="yes"/>
      <point x="523" y="605"/>
      <point x="547" y="613"/>
      <point x="592" y="637" type="curve"/>
      <point x="229" y="-14" type="line" name="hr02"/>
      <point x="278" y="-14" type="line"/>
    </contour>
    <contour>
      <point x="382" y="623" type="line"/>
      <point x="389" y="600"/>
      <point x="392" y="586"/>
      <point x="392" y="570" type="curve" smooth="yes"/>
      <point x="392" y="452"/>
      <point x="307" y="335"/>
      <point x="222" y="335" type="curve" smooth="yes"/>
      <point x="183" y="335"/>
      <point x="161" y="362"/>
      <point x="161" y="401" type="curve" smooth="yes"/>
      <point x="161" y="511"/>
      <point x="245" y="655"/>
      <point x="312" y="655" type="curve" smooth="yes" name="hr03"/>
      <point x="322" y="655"/>
      <point x="345" y="634"/>
      <point x="382" y="623" type="curve"/>
    </contour>
  </outline>
</glyph>
<glyph name="ampersand" format="1">
  <unicode hex="0026"/>
  <advance width="808"/>
  <outline>
    <contour>
      <point x="550" y="364" type="line"/>
      <point x="550" y="343" type="line"/>
      <point x="591" y="340"/>
      <point x="602" y="334"/>
      <point x="602" y="310" type="curve" smooth="yes"/>
      <point x="602" y="276"/>
      <point x="587" y="244"/>
      <point x="520" y="166" type="curve"/>
      <point x="488" y="218"/>
      <point x="454" y="306"/>
      <point x="429" y="413" type="curve"/>
      <point x="564" y="478"/>
      <point x="608" y="529"/>
      <point x="608" y="594" type="curve" smooth="yes"/>
      <point x="608" y="649"/>
      <point x="564" y="691"/>
      <point x="502" y="691" type="curve" smooth="yes"/>
      <point x="405" y="691"/>
      <point x="336" y="603"/>
      <point x="336" y="477" type="curve" smooth="yes"/>
      <point x="336" y="466"/>
      <point x="337" y="454"/>
      <point x="343" y="393" type="curve"/>
      <point x="119" y="295"/>
      <point x="78" y="242"/>
      <point x="78" y="146" type="curve" smooth="yes"/>
      <point x="78" y="46"/>
      <point x="152" y="-19"/>
      <point x="268" y="-19" type="curve" smooth="yes"/>
      <point x="337" y="-19"/>
      <point x="365" y="-5"/>
      <point x="474" y="63" type="curve"/>
      <point x="522" y="3"/>
      <point x="561" y="-19"/>
      <point x="617" y="-19" type="curve" smooth="yes"/>
      <point x="669" y="-19"/>
      <point x="707" y="0"/>
      <point x="751" y="53" type="curve"/>
      <point x="739" y="63" type="line"/>
      <point x="710" y="40"/>
      <point x="690" y="32"/>
      <point x="666" y="32" type="curve" smooth="yes"/>
      <point x="619" y="32"/>
      <point x="583" y="60"/>
      <point x="540" y="130" type="curve"/>
      <point x="661" y="293"/>
      <point x="674" y="340"/>
      <point x="742" y="345" type="curve"/>
      <point x="742" y="364" type="line"/>
    </contour>
    <contour>
      <point x="345" y="358" type="line"/>
      <point x="383" y="226"/>
      <point x="419" y="138"/>
      <point x="455" y="93" type="curve"/>
      <point x="408" y="54"/>
      <point x="362" y="35"/>
      <point x="309" y="35" type="curve" smooth="yes"/>
      <point x="235" y="35"/>
      <point x="177" y="92"/>
      <point x="177" y="171" type="curve" smooth="yes"/>
      <point x="177" y="244"/>
      <point x="241" y="319"/>
      <point x="345" y="358" type="curve"/>
    </contour>
    <contour>
      <point x="425" y="444" type="line"/>
      <point x="421" y="476"/>
      <point x="421" y="497"/>
      <point x="421" y="523" type="curve" smooth="yes"/>
      <point x="421" y="617"/>
      <point x="442" y="658"/>
      <point x="490" y="658" type="curve" smooth="yes"/>
      <point x="523" y="658"/>
      <point x="536" y="643"/>
      <point x="536" y="599" type="curve" smooth="yes"/>
      <point x="536" y="532"/>
      <point x="514" y="499"/>
      <point x="425" y="444" type="curve"/>
    </contour>
  </outline>
</glyph>
<glyph name="quotesingle" format="1">
  <unicode hex="0027"/>
  <advance width="345"/>
  <outline>
    <contour>
      <point x="166" y="453" type="line"/>
      <point x="252" y="501"/>
      <point x="300" y="558"/>
      <point x="300" y="618" type="curve" smooth="yes"/>
      <point x="300" y="658"/>
      <point x="276" y="691"/>
      <point x="241" y="691" type="curve" smooth="yes"/>
      <point x="209" y="691"/>
      <point x="188" y="670"/>
      <point x="188" y="644" type="curve" smooth="yes"/>
      <point x="188" y="614"/>
      <point x="235" y="583"/>
      <point x="235" y="561" type="curve" smooth="yes" name="hr01"/>
      <point x="235" y="534"/>
      <point x="211" y="506"/>
      <point x="157" y="470" type="curve"/>
    </contour>
  </outline>
</glyph>
<glyph name="parenleft" format="1">
  <unicode hex="0028"/>
  <advance width="345"/>
  <outline>
    <contour>
      <point x="165" y="-181" type="line"/>
      <point x="126" y="-76"/>
      <point x="115" y="-12"/>
      <point x="115" y="88" type="curve" smooth="yes"/>
      <point x="115" y="300"/>
      <point x="177" y="526"/>
      <point x="327" y="679" type="curve"/>
      <point x="313" y="694" type="line"/>
      <point x="115" y="516"/>
      <point x="44" y="386"/>
      <point x="44" y="194" type="curve" smooth="yes"/>
      <point x="44" y="57"/>
      <point x="62" y="-34"/>
      <point x="147" y="-188" type="curve"/>
    </contour>
  </outline>
</glyph>
<glyph name="parenright" format="1">
  <unicode hex="0029"/>
  <advance width="345"/>
  <outline>
    <contour>
      <point x="30" y="-187" type="line"/>
      <point x="220" y="-23"/>
      <point x="299" y="120"/>
      <point x="299" y="315" type="curve" smooth="yes"/>
      <point x="299" y="445"/>
      <point x="275" y="554"/>
      <point x="197" y="694" type="curve"/>
      <point x="177" y="689" type="line"/>
      <point x="213" y="605"/>
      <point x="229" y="521"/>
      <point x="229" y="417" type="curve" smooth="yes"/>
      <point x="229" y="195"/>
      <point x="167" y="-16"/>
      <point x="17" y="-172" type="curve"/>
    </contour>
  </outline>
</glyph>
<glyph name="asterisk" format="1">
  <unicode hex="002A"/>
  <advance width="462"/>
  <outline>
    <contour>
      <point x="300" y="480" type="line"/>
      <point x="240" y="452"/>
      <point x="234" y="448"/>
      <point x="166" y="435" type="curve"/>
      <point x="156" y="434"/>
      <point x="145" y="432"/>
      <point x="140" y="429" type="curve" smooth="yes"/>
      <point x="119" y="419"/>
      <point x="113" y="396"/>
      <point x="126" y="376" type="curve"/>
      <point x="138" y="355"/>
      <point x="163" y="348"/>
      <point x="183" y="360" type="curve" smooth="yes"/>
      <point x="188" y="363"/>
      <point x="194" y="372"/>
      <point x="201" y="378" type="curve" smooth="yes"/>
      <point x="248" y="425"/>
      <point x="254" y="429"/>
      <point x="309" y="463" type="curve"/>
      <point x="306" y="401"/>
      <point x="306" y="394"/>
      <point x="285" y="334" type="curve" smooth="yes"/>
      <point x="282" y="324"/>
      <point x="278" y="316"/>
      <point x="278" y="309" type="curve" smooth="yes" name="hr01"/>
      <point x="278" y="288"/>
      <point x="296" y="271"/>
      <point x="320" y="271" type="curve" smooth="yes"/>
      <point x="345" y="271"/>
      <point x="363" y="288"/>
      <point x="363" y="309" type="curve" smooth="yes"/>
      <point x="363" y="316"/>
      <point x="359" y="324"/>
      <point x="356" y="334" type="curve" smooth="yes"/>
      <point x="334" y="394"/>
      <point x="334" y="401"/>
      <point x="331" y="463" type="curve" name="hr02"/>
      <point x="387" y="429"/>
      <point x="393" y="425"/>
      <point x="438" y="378" type="curve"/>
      <point x="446" y="372"/>
      <point x="452" y="362"/>
      <point x="457" y="360" type="curve"/>
      <point x="476" y="348"/>
      <point x="501" y="355"/>
      <point x="514" y="376" type="curve" smooth="yes"/>
      <point x="525" y="396"/>
      <point x="520" y="419"/>
      <point x="499" y="429" type="curve"/>
      <point x="495" y="432"/>
      <point x="484" y="434"/>
      <point x="473" y="435" type="curve"/>
      <point x="406" y="448"/>
      <point x="402" y="453"/>
      <point x="342" y="481" type="curve"/>
      <point x="401" y="509"/>
      <point x="406" y="513"/>
      <point x="475" y="526" type="curve"/>
      <point x="484" y="527"/>
      <point x="495" y="529"/>
      <point x="500" y="532" type="curve" smooth="yes"/>
      <point x="521" y="543"/>
      <point x="527" y="566"/>
      <point x="514" y="586" type="curve" smooth="yes"/>
      <point x="502" y="606"/>
      <point x="478" y="612"/>
      <point x="457" y="601" type="curve" smooth="yes"/>
      <point x="452" y="598"/>
      <point x="446" y="590"/>
      <point x="439" y="583" type="curve" smooth="yes"/>
      <point x="393" y="536"/>
      <point x="386" y="532"/>
      <point x="332" y="498" type="curve"/>
      <point x="335" y="560"/>
      <point x="335" y="567"/>
      <point x="356" y="628" type="curve"/>
      <point x="360" y="637"/>
      <point x="364" y="646"/>
      <point x="364" y="652" type="curve" smooth="yes"/>
      <point x="364" y="674"/>
      <point x="346" y="690"/>
      <point x="321" y="690" type="curve" smooth="yes"/>
      <point x="297" y="690"/>
      <point x="279" y="674"/>
      <point x="279" y="652" type="curve" smooth="yes"/>
      <point x="279" y="646"/>
      <point x="283" y="637"/>
      <point x="286" y="628" type="curve" smooth="yes"/>
      <point x="308" y="567"/>
      <point x="308" y="560"/>
      <point x="311" y="498" type="curve"/>
      <point x="256" y="532"/>
      <point x="248" y="535"/>
      <point x="202" y="582" type="curve" smooth="yes"/>
      <point x="196" y="588"/>
      <point x="189" y="598"/>
      <point x="183" y="600" type="curve"/>
      <point x="163" y="611"/>
      <point x="139" y="605"/>
      <point x="127" y="585" type="curve" smooth="yes"/>
      <point x="113" y="564"/>
      <point x="121" y="543"/>
      <point x="140" y="532" type="curve"/>
      <point x="146" y="530"/>
      <point x="157" y="527"/>
      <point x="166" y="525" type="curve" smooth="yes"/>
      <point x="234" y="511"/>
      <point x="240" y="508"/>
      <point x="300" y="480" type="curve"/>
    </contour>
  </outline>
</glyph>
<glyph name="plus" format="1">
  <unicode hex="002B"/>
  <advance width="701"/>
  <outline>
    <contour>
      <point x="316" y="296" type="line"/>
      <point x="89" y="296" type="line"/>
      <point x="89" y="229" type="line"/>
      <point x="316" y="229" type="line"/>
      <point x="316" y="0" type="line"/>
      <point x="385" y="0" type="line"/>
      <point x="385" y="229" type="line"/>
      <point x="613" y="229" type="line"/>
      <point x="613" y="296" type="line"/>
      <point x="385" y="296" type="line"/>
      <point x="385" y="526" type="line"/>
      <point x="316" y="526" type="line"/>
    </contour>
  </outline>
</glyph>
<glyph name="comma" format="1">
  <unicode hex="002C"/>
  <advance width="260"/>
  <outline>
    <contour>
      <point x="5" y="-134" type="line"/>
      <point x="95" y="-85"/>
      <point x="141" y="-26"/>
      <point x="141" y="31" type="curve" smooth="yes"/>
      <point x="141" y="70"/>
      <point x="112" y="105"/>
      <point x="79" y="105" type="curve" smooth="yes"/>
      <point x="49" y="105"/>
      <point x="27" y="85"/>
      <point x="27" y="58" type="curve" smooth="yes"/>
      <point x="27" y="27"/>
      <point x="73" y="-5"/>
      <point x="73" y="-24" type="curve" smooth="yes" name="hr01"/>
      <point x="73" y="-53"/>
      <point x="53" y="-79"/>
      <point x="-4" y="-116" type="curve"/>
    </contour>
  </outline>
</glyph>
<glyph name="hyphen" format="1">
  <unicode hex="002D"/>
  <unicode hex="00AD"/>
  <advance width="391"/>
  <outline>
    <contour>
      <point x="338" y="242" type="line"/>
      <point x="338" y="312" type="line"/>
      <point x="51" y="312" type="line"/>
      <point x="51" y="242" type="line"/>
    </contour>
  </outline>
</glyph>
<glyph name="period" format="1">
  <unicode hex="002E"/>
  <advance width="260"/>
  <outline>
    <contour>
      <point x="85" y="104" type="line"/>
      <point x="54" y="104"/>
      <point x="28" y="78"/>
      <point x="28" y="45" type="curve" smooth="yes"/>
      <point x="28" y="17"/>
      <point x="54" y="-12"/>
      <point x="83" y="-12" type="curve" smooth="yes"/>
      <point x="115" y="-12"/>
      <point x="144" y="13"/>
      <point x="144" y="45" type="curve" smooth="yes"/>
      <point x="144" y="76"/>
      <point x="117" y="104"/>
      <point x="85" y="104" type="curve"/>
    </contour>
  </outline>
</glyph>
<glyph name="slash" format="1">
  <unicode hex="002F"/>
  <advance width="289"/>
  <outline>
    <contour>
      <point x="325" y="691" type="line"/>
      <point x="-67" y="-19" type="line"/>
      <point x="9" y="-19" type="line"/>
      <point x="401" y="691" type="line"/>
    </contour>
  </outline>
</glyph>
<glyph name="zero" format="1">
  <unicode hex="0030"/>
  <advance width="519"/>
  <outline>
    <contour>
      <point x="354" y="702" type="line"/>
      <point x="190" y="702"/>
      <point x="33" y="463"/>
      <point x="33" y="221" type="curve" smooth="yes"/>
      <point x="33" y="84"/>
      <point x="99" y="-8"/>
      <point x="200" y="-8" type="curve" smooth="yes"/>
      <point x="368" y="-8"/>
      <point x="516" y="227"/>
      <point x="516" y="439" type="curve" smooth="yes"/>
      <point x="516" y="604"/>
      <point x="455" y="702"/>
      <point x="354" y="702" type="curve"/>
    </contour>
    <contour>
      <point x="347" y="673" type="line"/>
      <point x="403" y="673"/>
      <point x="433" y="625"/>
      <point x="433" y="542" type="curve" smooth="yes"/>
      <point x="433" y="316"/>
      <point x="331" y="23"/>
      <point x="203" y="23" type="curve" smooth="yes"/>
      <point x="149" y="23"/>
      <point x="115" y="71"/>
      <point x="115" y="162" type="curve" smooth="yes"/>
      <point x="115" y="365"/>
      <point x="225" y="670"/>
      <point x="347" y="673" type="curve"/>
    </contour>
  </outline>
</glyph>
<glyph name="one" format="1">
  <unicode hex="0031"/>
  <advance width="519"/>
  <outline>
    <contour>
      <point x="219" y="647" type="line"/>
      <point x="282" y="649" type="line"/>
      <point x="306" y="649"/>
      <point x="318" y="638"/>
      <point x="318" y="617" type="curve" smooth="yes"/>
      <point x="318" y="609"/>
      <point x="315" y="601"/>
      <point x="310" y="581" type="curve" smooth="yes"/>
      <point x="167" y="70" type="line" smooth="yes"/>
      <point x="156" y="32"/>
      <point x="134" y="23"/>
      <point x="51" y="15" type="curve"/>
      <point x="51" y="0" type="line"/>
      <point x="340" y="0" type="line"/>
      <point x="340" y="16" type="line"/>
      <point x="324" y="16" type="line" smooth="yes"/>
      <point x="274" y="16"/>
      <point x="251" y="25"/>
      <point x="251" y="49" type="curve" smooth="yes"/>
      <point x="251" y="58"/>
      <point x="259" y="86"/>
      <point x="418" y="664" type="curve"/>
      <point x="422" y="683"/>
      <point x="424" y="689"/>
      <point x="424" y="694" type="curve" smooth="yes"/>
      <point x="424" y="698"/>
      <point x="422" y="702"/>
      <point x="416" y="702" type="curve"/>
      <point x="336" y="684"/>
      <point x="330" y="684"/>
      <point x="219" y="662" type="curve"/>
    </contour>
  </outline>
</glyph>
<glyph name="two" format="1">
  <unicode hex="0032"/>
  <advance width="519"/>
  <outline>
    <contour>
      <point x="415" y="145" type="line"/>
      <point x="389" y="92"/>
      <point x="369" y="78"/>
      <point x="312" y="78" type="curve" smooth="yes"/>
      <point x="115" y="78" type="line"/>
      <point x="314" y="284" type="line"/>
      <point x="434" y="411"/>
      <point x="469" y="454"/>
      <point x="469" y="527" type="curve" smooth="yes"/>
      <point x="469" y="625"/>
      <point x="395" y="702"/>
      <point x="300" y="702" type="curve" smooth="yes"/>
      <point x="196" y="702"/>
      <point x="122" y="643"/>
      <point x="83" y="535" type="curve"/>
      <point x="105" y="529" type="line"/>
      <point x="145" y="596"/>
      <point x="189" y="626"/>
      <point x="250" y="626" type="curve" smooth="yes"/>
      <point x="325" y="626"/>
      <point x="380" y="571"/>
      <point x="380" y="501" type="curve" smooth="yes"/>
      <point x="380" y="419"/>
      <point x="316" y="343"/>
      <point x="231" y="250" type="curve"/>
      <point x="13" y="18" type="line"/>
      <point x="13" y="0" type="line"/>
      <point x="381" y="0" type="line"/>
      <point x="432" y="137" type="line"/>
    </contour>
  </outline>
</glyph>
<glyph name="three" format="1">
  <unicode hex="0033"/>
  <advance width="519"/>
  <outline>
    <contour>
      <point x="185" y="589" type="line"/>
      <point x="223" y="637"/>
      <point x="256" y="658"/>
      <point x="300" y="658" type="curve" smooth="yes"/>
      <point x="357" y="658"/>
      <point x="393" y="622"/>
      <point x="393" y="563" type="curve" smooth="yes"/>
      <point x="393" y="478"/>
      <point x="321" y="422"/>
      <point x="146" y="392" type="curve"/>
      <point x="146" y="375" type="line"/>
      <point x="171" y="375" type="line" smooth="yes"/>
      <point x="279" y="375"/>
      <point x="337" y="314"/>
      <point x="337" y="201" type="curve" smooth="yes" name="hr01"/>
      <point x="337" y="109"/>
      <point x="282" y="32"/>
      <point x="201" y="32" type="curve" smooth="yes"/>
      <point x="172" y="32"/>
      <point x="93" y="94"/>
      <point x="61" y="94" type="curve" smooth="yes" name="hr02"/>
      <point x="29" y="94"/>
      <point x="16" y="79"/>
      <point x="16" y="55" type="curve" smooth="yes"/>
      <point x="16" y="16"/>
      <point x="59" y="-8"/>
      <point x="132" y="-8" type="curve" smooth="yes"/>
      <point x="300" y="-8"/>
      <point x="421" y="113"/>
      <point x="421" y="259" type="curve" smooth="yes"/>
      <point x="421" y="333"/>
      <point x="393" y="381"/>
      <point x="322" y="413" type="curve"/>
      <point x="322" y="416" type="line"/>
      <point x="447" y="465"/>
      <point x="483" y="501"/>
      <point x="483" y="570" type="curve" smooth="yes" name="hr03"/>
      <point x="483" y="646"/>
      <point x="422" y="702"/>
      <point x="337" y="702" type="curve" smooth="yes" name="hr04"/>
      <point x="267" y="702"/>
      <point x="202" y="661"/>
      <point x="168" y="594" type="curve"/>
    </contour>
  </outline>
</glyph>
<glyph name="four" format="1">
  <unicode hex="0034"/>
  <advance width="519"/>
  <outline>
    <contour>
      <point x="470" y="250" type="line"/>
      <point x="372" y="250" type="line"/>
      <point x="498" y="702" type="line"/>
      <point x="455" y="702" type="line"/>
      <point x="23" y="254" type="line"/>
      <point x="1" y="185" type="line"/>
      <point x="274" y="185" type="line"/>
      <point x="222" y="0" type="line" name="hr01"/>
      <point x="304" y="0" type="line"/>
      <point x="352" y="182" type="line"/>
      <point x="456" y="182" type="line"/>
    </contour>
    <contour>
      <point x="289" y="250" type="line"/>
      <point x="67" y="250" type="line"/>
      <point x="383" y="585" type="line"/>
      <point x="387" y="585" type="line"/>
    </contour>
  </outline>
</glyph>
<glyph name="five" format="1">
  <unicode hex="0035"/>
  <advance width="519"/>
  <outline>
    <contour>
      <point x="247" y="618" type="line"/>
      <point x="486" y="618" type="line"/>
      <point x="510" y="691" type="line"/>
      <point x="244" y="691" type="line"/>
      <point x="136" y="465" type="line"/>
      <point x="136" y="449" type="line"/>
      <point x="321" y="407"/>
      <point x="364" y="365"/>
      <point x="364" y="251" type="curve" smooth="yes"/>
      <point x="364" y="138"/>
      <point x="282" y="36"/>
      <point x="186" y="36" type="curve" smooth="yes"/>
      <point x="152" y="36"/>
      <point x="86" y="93"/>
      <point x="58" y="93" type="curve" smooth="yes" name="hr01"/>
      <point x="33" y="93"/>
      <point x="16" y="75"/>
      <point x="16" y="53" type="curve" smooth="yes"/>
      <point x="16" y="17"/>
      <point x="57" y="-8"/>
      <point x="126" y="-8" type="curve" smooth="yes"/>
      <point x="295" y="-8"/>
      <point x="434" y="124"/>
      <point x="434" y="291" type="curve" smooth="yes"/>
      <point x="434" y="405"/>
      <point x="375" y="483"/>
      <point x="206" y="527" type="curve"/>
    </contour>
  </outline>
</glyph>
<glyph name="six" format="1">
  <unicode hex="0036"/>
  <advance width="519"/>
  <outline>
    <contour>
      <point x="541" y="712" type="line"/>
      <point x="223" y="675"/>
      <point x="31" y="454"/>
      <point x="31" y="211" type="curve" smooth="yes"/>
      <point x="31" y="78"/>
      <point x="106" y="-8"/>
      <point x="221" y="-8" type="curve" smooth="yes"/>
      <point x="360" y="-8"/>
      <point x="480" y="122"/>
      <point x="480" y="282" type="curve" smooth="yes"/>
      <point x="480" y="386"/>
      <point x="408" y="465"/>
      <point x="303" y="465" type="curve" smooth="yes"/>
      <point x="276" y="465"/>
      <point x="238" y="456"/>
      <point x="210" y="442" type="curve"/>
      <point x="206" y="444" type="line"/>
      <point x="278" y="575"/>
      <point x="417" y="682"/>
      <point x="541" y="695" type="curve"/>
    </contour>
    <contour>
      <point x="269" y="426" type="line" smooth="yes"/>
      <point x="342" y="426"/>
      <point x="387" y="374"/>
      <point x="387" y="295" type="curve" smooth="yes"/>
      <point x="387" y="165"/>
      <point x="314" y="20"/>
      <point x="211" y="20" type="curve" smooth="yes"/>
      <point x="149" y="20"/>
      <point x="110" y="68"/>
      <point x="110" y="156" type="curve" smooth="yes"/>
      <point x="110" y="298"/>
      <point x="168" y="426"/>
      <point x="266" y="426" type="curve" smooth="yes"/>
    </contour>
  </outline>
</glyph>
<glyph name="seven" format="1">
  <unicode hex="0037"/>
  <advance width="519"/>
  <outline>
    <contour>
      <point x="557" y="681" type="line"/>
      <point x="551" y="691" type="line"/>
      <point x="162" y="691" type="line"/>
      <point x="77" y="550" type="line"/>
      <point x="92" y="541" type="line"/>
      <point x="147" y="598"/>
      <point x="168" y="616"/>
      <point x="231" y="616" type="curve" smooth="yes"/>
      <point x="461" y="616" type="line"/>
      <point x="463" y="613" type="line"/>
      <point x="82" y="-9" type="line"/>
      <point x="156" y="-9" type="line"/>
    </contour>
  </outline>
</glyph>
<glyph name="eight" format="1">
  <unicode hex="0038"/>
  <advance width="519"/>
  <outline>
    <contour>
      <point x="341" y="397" type="line"/>
      <point x="465" y="437"/>
      <point x="512" y="484"/>
      <point x="512" y="555" type="curve" smooth="yes"/>
      <point x="512" y="643"/>
      <point x="434" y="702"/>
      <point x="330" y="702" type="curve" smooth="yes"/>
      <point x="220" y="702"/>
      <point x="144" y="639"/>
      <point x="144" y="546" type="curve" smooth="yes"/>
      <point x="144" y="490"/>
      <point x="165" y="451"/>
      <point x="234" y="374" type="curve"/>
      <point x="103" y="330"/>
      <point x="31" y="259"/>
      <point x="31" y="167" type="curve" smooth="yes"/>
      <point x="31" y="58"/>
      <point x="119" y="-8"/>
      <point x="238" y="-8" type="curve" smooth="yes"/>
      <point x="367" y="-8"/>
      <point x="461" y="70"/>
      <point x="461" y="179" type="curve" smooth="yes" name="hr01"/>
      <point x="461" y="248"/>
      <point x="431" y="306"/>
      <point x="341" y="397" type="curve"/>
    </contour>
    <contour>
      <point x="256" y="357" type="line"/>
      <point x="370" y="238"/>
      <point x="383" y="221"/>
      <point x="383" y="161" type="curve" smooth="yes"/>
      <point x="383" y="77"/>
      <point x="324" y="16"/>
      <point x="242" y="16" type="curve" smooth="yes"/>
      <point x="158" y="16"/>
      <point x="102" y="73"/>
      <point x="102" y="161" type="curve" smooth="yes"/>
      <point x="102" y="247"/>
      <point x="156" y="320"/>
      <point x="256" y="357" type="curve"/>
    </contour>
    <contour>
      <point x="323" y="414" type="line"/>
      <point x="242" y="487"/>
      <point x="224" y="519"/>
      <point x="224" y="560" type="curve" smooth="yes"/>
      <point x="224" y="635"/>
      <point x="264" y="678"/>
      <point x="330" y="678" type="curve" smooth="yes"/>
      <point x="398" y="678"/>
      <point x="441" y="630"/>
      <point x="441" y="555" type="curve" smooth="yes" name="hr02"/>
      <point x="441" y="491"/>
      <point x="413" y="455"/>
      <point x="323" y="414" type="curve"/>
    </contour>
  </outline>
</glyph>
<glyph name="nine" format="1">
  <unicode hex="0039"/>
  <advance width="519"/>
  <outline>
    <contour>
      <point x="24" y="-18" type="line"/>
      <point x="335" y="33"/>
      <point x="511" y="242"/>
      <point x="511" y="475" type="curve" smooth="yes"/>
      <point x="511" y="611"/>
      <point x="436" y="702"/>
      <point x="323" y="702" type="curve" smooth="yes"/>
      <point x="190" y="702"/>
      <point x="71" y="569"/>
      <point x="71" y="423" type="curve" smooth="yes"/>
      <point x="71" y="314"/>
      <point x="135" y="238"/>
      <point x="227" y="238" type="curve" smooth="yes"/>
      <point x="271" y="238"/>
      <point x="306" y="249"/>
      <point x="362" y="285" type="curve"/>
      <point x="366" y="283" type="line"/>
      <point x="330" y="183"/>
      <point x="165" y="25"/>
      <point x="24" y="1" type="curve"/>
    </contour>
    <contour>
      <point x="330" y="675" type="line"/>
      <point x="396" y="675"/>
      <point x="432" y="625"/>
      <point x="432" y="537" type="curve" smooth="yes"/>
      <point x="432" y="366"/>
      <point x="368" y="286"/>
      <point x="267" y="286" type="curve" smooth="yes"/>
      <point x="198" y="286"/>
      <point x="163" y="337"/>
      <point x="163" y="429" type="curve" smooth="yes"/>
      <point x="163" y="547"/>
      <point x="226" y="675"/>
      <point x="330" y="675" type="curve"/>
    </contour>
  </outline>
</glyph>
<glyph name="colon" format="1">
  <unicode hex="003A"/>
  <advance width="345"/>
  <outline>
    <contour>
      <point x="110" y="104" type="line"/>
      <point x="77" y="104"/>
      <point x="53" y="76"/>
      <point x="53" y="45" type="curve" smooth="yes"/>
      <point x="53" y="17"/>
      <point x="76" y="-12"/>
      <point x="108" y="-12" type="curve" smooth="yes"/>
      <point x="142" y="-12"/>
      <point x="167" y="13"/>
      <point x="167" y="45" type="curve" smooth="yes"/>
      <point x="167" y="76"/>
      <point x="143" y="104"/>
      <point x="110" y="104" type="curve"/>
    </contour>
    <contour>
      <point x="212" y="458" type="line"/>
      <point x="180" y="458"/>
      <point x="156" y="432"/>
      <point x="156" y="399" type="curve" smooth="yes" name="hr01"/>
      <point x="156" y="368"/>
      <point x="179" y="342"/>
      <point x="211" y="342" type="curve" smooth="yes"/>
      <point x="244" y="342"/>
      <point x="271" y="368"/>
      <point x="271" y="399" type="curve" smooth="yes"/>
      <point x="271" y="432"/>
      <point x="244" y="458"/>
      <point x="212" y="458" type="curve"/>
    </contour>
  </outline>
</glyph>
<glyph name="semicolon" format="1">
  <unicode hex="003B"/>
  <advance width="367"/>
  <outline>
    <contour>
      <point x="31" y="-143" type="line"/>
      <point x="122" y="-90"/>
      <point x="173" y="-28"/>
      <point x="173" y="33" type="curve" smooth="yes"/>
      <point x="173" y="74"/>
      <point x="147" y="112"/>
      <point x="109" y="112" type="curve" smooth="yes"/>
      <point x="75" y="112"/>
      <point x="52" y="90"/>
      <point x="52" y="60" type="curve" smooth="yes"/>
      <point x="52" y="31"/>
      <point x="103" y="-3"/>
      <point x="103" y="-26" type="curve" smooth="yes" name="hr01"/>
      <point x="103" y="-57"/>
      <point x="79" y="-84"/>
      <point x="20" y="-123" type="curve"/>
    </contour>
    <contour>
      <point x="212" y="458" type="line"/>
      <point x="180" y="458"/>
      <point x="156" y="432"/>
      <point x="156" y="399" type="curve" smooth="yes" name="hr02"/>
      <point x="156" y="368"/>
      <point x="179" y="342"/>
      <point x="211" y="342" type="curve" smooth="yes"/>
      <point x="244" y="342"/>
      <point x="271" y="368"/>
      <point x="271" y="399" type="curve" smooth="yes"/>
      <point x="271" y="432"/>
      <point x="244" y="458"/>
      <point x="212" y="458" type="curve"/>
    </contour>
  </outline>
</glyph>
<glyph name="equal" format="1">
  <unicode hex="003D"/>
  <advance width="701"/>
  <outline>
    <contour>
      <point x="613" y="401" type="line"/>
      <point x="89" y="401" type="line"/>
      <point x="89" y="331" type="line"/>
      <point x="613" y="331" type="line"/>
    </contour>
    <contour>
      <point x="613" y="193" type="line"/>
      <point x="89" y="193" type="line"/>
      <point x="89" y="124" type="line"/>
      <point x="613" y="124" type="line"/>
    </contour>
  </outline>
</glyph>
<glyph name="greater" format="1">
  <unicode hex="003E"/>
  <advance width="701"/>
  <outline>
    <contour>
      <point x="87" y="-11" type="line"/>
      <point x="615" y="229" type="line"/>
      <point x="615" y="296" type="line"/>
      <point x="87" y="535" type="line"/>
      <point x="87" y="461" type="line"/>
      <point x="523" y="263" type="line"/>
      <point x="87" y="64" type="line"/>
    </contour>
  </outline>
</glyph>
<glyph name="question" format="1">
  <unicode hex="003F"/>
  <advance width="519"/>
  <outline>
    <contour>
      <point x="224" y="180" type="line"/>
      <point x="232" y="210" type="line" smooth="yes"/>
      <point x="246" y="268"/>
      <point x="278" y="308"/>
      <point x="351" y="368" type="curve" smooth="yes"/>
      <point x="468" y="462"/>
      <point x="490" y="493"/>
      <point x="490" y="555" type="curve" smooth="yes"/>
      <point x="490" y="638"/>
      <point x="430" y="689"/>
      <point x="336" y="689" type="curve" smooth="yes"/>
      <point x="248" y="689"/>
      <point x="191" y="643"/>
      <point x="191" y="576" type="curve" smooth="yes"/>
      <point x="191" y="544"/>
      <point x="206" y="527"/>
      <point x="232" y="527" type="curve" smooth="yes"/>
      <point x="257" y="527"/>
      <point x="274" y="542"/>
      <point x="274" y="562" type="curve" smooth="yes"/>
      <point x="274" y="575"/>
      <point x="257" y="604"/>
      <point x="257" y="617" type="curve" smooth="yes" name="hr01"/>
      <point x="257" y="649"/>
      <point x="284" y="666"/>
      <point x="330" y="666" type="curve" smooth="yes"/>
      <point x="383" y="666"/>
      <point x="413" y="637"/>
      <point x="413" y="578" type="curve" smooth="yes"/>
      <point x="413" y="525"/>
      <point x="392" y="482"/>
      <point x="323" y="408" type="curve"/>
      <point x="236" y="310"/>
      <point x="225" y="283"/>
      <point x="206" y="182" type="curve"/>
    </contour>
    <contour>
      <point x="191" y="97" type="line"/>
      <point x="160" y="97"/>
      <point x="137" y="73"/>
      <point x="137" y="42" type="curve" smooth="yes" name="hr02"/>
      <point x="137" y="10"/>
      <point x="160" y="-13"/>
      <point x="192" y="-13" type="curve" smooth="yes"/>
      <point x="221" y="-13"/>
      <point x="246" y="12"/>
      <point x="246" y="42" type="curve" smooth="yes"/>
      <point x="246" y="71"/>
      <point x="222" y="97"/>
      <point x="191" y="97" type="curve" name="hr03"/>
    </contour>
  </outline>
</glyph>
<glyph name="at" format="1">
  <unicode hex="0040"/>
  <advance width="955"/>
  <outline>
    <contour>
      <point x="609" y="466" type="line"/>
      <point x="586" y="510"/>
      <point x="571" y="519"/>
      <point x="535" y="519" type="curve" smooth="yes"/>
      <point x="414" y="519"/>
      <point x="333" y="374"/>
      <point x="333" y="260" type="curve" smooth="yes"/>
      <point x="333" y="193"/>
      <point x="373" y="145"/>
      <point x="425" y="145" type="curve" smooth="yes"/>
      <point x="470" y="145"/>
      <point x="515" y="171"/>
      <point x="554" y="218" type="curve"/>
      <point x="560" y="174"/>
      <point x="598" y="144"/>
      <point x="646" y="144" type="curve" smooth="yes"/>
      <point x="749" y="144"/>
      <point x="837" y="259"/>
      <point x="837" y="390" type="curve" smooth="yes"/>
      <point x="837" y="559"/>
      <point x="689" y="691"/>
      <point x="500" y="691" type="curve" smooth="yes"/>
      <point x="289" y="691"/>
      <point x="122" y="531"/>
      <point x="122" y="331" type="curve" smooth="yes"/>
      <point x="122" y="134"/>
      <point x="287" y="-19"/>
      <point x="502" y="-19" type="curve" smooth="yes"/>
      <point x="575" y="-19"/>
      <point x="628" y="-4"/>
      <point x="725" y="41" type="curve"/>
      <point x="712" y="70" type="line"/>
      <point x="634" y="32"/>
      <point x="580" y="23"/>
      <point x="513" y="23" type="curve" smooth="yes"/>
      <point x="334" y="23"/>
      <point x="208" y="148"/>
      <point x="208" y="325" type="curve" smooth="yes"/>
      <point x="208" y="518"/>
      <point x="330" y="659"/>
      <point x="500" y="659" type="curve" smooth="yes"/>
      <point x="660" y="659"/>
      <point x="795" y="531"/>
      <point x="795" y="381" type="curve" smooth="yes"/>
      <point x="795" y="275"/>
      <point x="731" y="177"/>
      <point x="659" y="177" type="curve" smooth="yes"/>
      <point x="634" y="177"/>
      <point x="621" y="192"/>
      <point x="621" y="221" type="curve" smooth="yes"/>
      <point x="621" y="229"/>
      <point x="622" y="235"/>
      <point x="624" y="244" type="curve" smooth="yes"/>
      <point x="691" y="505" type="line"/>
      <point x="620" y="505" type="line"/>
    </contour>
    <contour>
      <point x="550" y="473" type="line" smooth="yes"/>
      <point x="577" y="470"/>
      <point x="592" y="452"/>
      <point x="592" y="417" type="curve" smooth="yes" name="hr01"/>
      <point x="592" y="410" type="line" smooth="yes"/>
      <point x="587" y="293"/>
      <point x="527" y="188"/>
      <point x="468" y="188" type="curve" smooth="yes"/>
      <point x="428" y="188"/>
      <point x="408" y="221"/>
      <point x="408" y="276" type="curve" smooth="yes"/>
      <point x="408" y="368"/>
      <point x="478" y="473"/>
      <point x="545" y="473" type="curve" smooth="yes"/>
    </contour>
  </outline>
</glyph>
<glyph name="A" format="1">
  <unicode hex="0041"/>
  <advance width="635"/>
  <outline>
    <contour>
      <point x="388" y="235" type="line"/>
      <point x="410" y="99" type="line" smooth="yes"/>
      <point x="411" y="89"/>
      <point x="412" y="79"/>
      <point x="412" y="71" type="curve" smooth="yes"/>
      <point x="412" y="33"/>
      <point x="396" y="23"/>
      <point x="330" y="17" type="curve"/>
      <point x="330" y="0" type="line"/>
      <point x="586" y="0" type="line"/>
      <point x="586" y="17" type="line"/>
      <point x="527" y="23"/>
      <point x="519" y="32"/>
      <point x="507" y="106" type="curve" smooth="yes"/>
      <point x="410" y="693" type="line"/>
      <point x="382" y="693" type="line"/>
      <point x="80" y="175" type="line"/>
      <point x="0" y="34"/>
      <point x="-13" y="26"/>
      <point x="-54" y="17" type="curve"/>
      <point x="-54" y="0" type="line"/>
      <point x="142" y="0" type="line"/>
      <point x="142" y="17" type="line"/>
      <point x="88" y="23"/>
      <point x="79" y="27"/>
      <point x="79" y="54" type="curve" smooth="yes"/>
      <point x="79" y="74"/>
      <point x="84" y="78"/>
      <point x="101" y="117" type="curve"/>
      <point x="160" y="235" type="line"/>
    </contour>
    <contour>
      <point x="181" y="272" type="line"/>
      <point x="337" y="542" type="line"/>
      <point x="383" y="272" type="line"/>
    </contour>
  </outline>
</glyph>
<glyph name="F" format="1">
  <unicode hex="0046"/>
  <advance width="635"/>
  <outline>
    <contour>
      <point x="659" y="678" type="line"/>
      <point x="143" y="678" type="line"/>
      <point x="143" y="661" type="line"/>
      <point x="207" y="653"/>
      <point x="223" y="645"/>
      <point x="223" y="620" type="curve" smooth="yes"/>
      <point x="223" y="609"/>
      <point x="216" y="570"/>
      <point x="211" y="552" type="curve" smooth="yes"/>
      <point x="83" y="93" type="line"/>
      <point x="65" y="33"/>
      <point x="56" y="25"/>
      <point x="-1" y="17" type="curve"/>
      <point x="-1" y="0" type="line"/>
      <point x="260" y="0" type="line"/>
      <point x="260" y="17" type="line"/>
      <point x="198" y="20"/>
      <point x="181" y="30"/>
      <point x="181" y="62" type="curve" smooth="yes"/>
      <point x="181" y="72"/>
      <point x="184" y="83"/>
      <point x="190" y="109" type="curve"/>
      <point x="253" y="340" type="line"/>
      <point x="292" y="338"/>
      <point x="316" y="338"/>
      <point x="365" y="336" type="curve"/>
      <point x="407" y="336"/>
      <point x="422" y="322"/>
      <point x="422" y="291" type="curve" smooth="yes"/>
      <point x="422" y="276"/>
      <point x="421" y="268"/>
      <point x="415" y="236" type="curve"/>
      <point x="436" y="230" type="line"/>
      <point x="507" y="470" type="line"/>
      <point x="489" y="475" type="line"/>
      <point x="444" y="376"/>
      <point x="442" y="376"/>
      <point x="263" y="375" type="curve"/>
      <point x="332" y="617" type="line"/>
      <point x="340" y="638"/>
      <point x="354" y="644"/>
      <point x="397" y="644" type="curve" smooth="yes"/>
      <point x="572" y="644"/>
      <point x="607" y="631"/>
      <point x="606" y="564" type="curve" smooth="yes"/>
      <point x="606" y="545"/>
      <point x="606" y="532"/>
      <point x="605" y="521" type="curve"/>
      <point x="627" y="519" type="line"/>
    </contour>
  </outline>
</glyph>
<glyph name="N" format="1">
  <unicode hex="004E"/>
  <advance width="692"/>
  <outline>
    <contour>
      <point x="498" y="-16" type="line"/>
      <point x="647" y="507" type="line"/>
      <point x="686" y="640"/>
      <point x="689" y="649"/>
      <point x="755" y="661" type="curve"/>
      <point x="755" y="678" type="line"/>
      <point x="548" y="678" type="line"/>
      <point x="548" y="661" type="line"/>
      <point x="632" y="657"/>
      <point x="627" y="622"/>
      <point x="611" y="562" type="curve" smooth="yes"/>
      <point x="504" y="160" type="line"/>
      <point x="289" y="678" type="line"/>
      <point x="120" y="678" type="line"/>
      <point x="120" y="661" type="line"/>
      <point x="169" y="657"/>
      <point x="191" y="644"/>
      <point x="209" y="603" type="curve"/>
      <point x="86" y="171" type="line"/>
      <point x="49" y="38"/>
      <point x="36" y="23"/>
      <point x="-21" y="17" type="curve"/>
      <point x="-21" y="0" type="line" name="hr01"/>
      <point x="185" y="0" type="line"/>
      <point x="185" y="17" type="line"/>
      <point x="98" y="20"/>
      <point x="105" y="58"/>
      <point x="121" y="117" type="curve" smooth="yes"/>
      <point x="240" y="555" type="line"/>
      <point x="478" y="-16" type="line" name="hr02"/>
    </contour>
  </outline>
</glyph>
<glyph name="P" format="1">
  <unicode hex="0050"/>
  <advance width="635"/>
  <outline>
    <contour>
      <point x="251" y="325" type="line"/>
      <point x="279" y="318"/>
      <point x="301" y="316"/>
      <point x="347" y="316" type="curve" smooth="yes"/>
      <point x="530" y="316"/>
      <point x="629" y="402"/>
      <point x="629" y="523" type="curve" smooth="yes"/>
      <point x="629" y="623"/>
      <point x="551" y="678"/>
      <point x="410" y="678" type="curve" smooth="yes"/>
      <point x="152" y="678" type="line"/>
      <point x="152" y="661" type="line"/>
      <point x="211" y="654"/>
      <point x="225" y="646"/>
      <point x="225" y="618" type="curve" smooth="yes"/>
      <point x="225" y="602"/>
      <point x="221" y="584"/>
      <point x="207" y="534" type="curve" smooth="yes"/>
      <point x="85" y="93" type="line"/>
      <point x="67" y="33"/>
      <point x="59" y="23"/>
      <point x="0" y="17" type="curve"/>
      <point x="0" y="0" type="line"/>
      <point x="254" y="0" type="line"/>
      <point x="254" y="17" type="line"/>
      <point x="159" y="26"/>
      <point x="180" y="52"/>
      <point x="196" y="124" type="curve"/>
    </contour>
    <contour>
      <point x="334" y="618" type="line" smooth="yes"/>
      <point x="341" y="641"/>
      <point x="354" y="647"/>
      <point x="382" y="647" type="curve" smooth="yes"/>
      <point x="475" y="647"/>
      <point x="521" y="615"/>
      <point x="521" y="523" type="curve" smooth="yes"/>
      <point x="521" y="413"/>
      <point x="467" y="355"/>
      <point x="314" y="355" type="curve" smooth="yes"/>
      <point x="293" y="355"/>
      <point x="282" y="355"/>
      <point x="261" y="360" type="curve"/>
    </contour>
  </outline>
</glyph>
<glyph name="Q" format="1">
  <unicode hex="0051"/>
  <advance width="750"/>
  <outline>
    <contour>
      <point x="290" y="-17" type="line"/>
      <point x="533" y="0"/>
      <point x="726" y="226"/>
      <point x="726" y="447" type="curve" smooth="yes"/>
      <point x="726" y="591"/>
      <point x="626" y="691"/>
      <point x="488" y="691" type="curve" smooth="yes"/>
      <point x="276" y="691"/>
      <point x="62" y="438"/>
      <point x="62" y="230" type="curve" smooth="yes"/>
      <point x="62" y="105"/>
      <point x="124" y="17"/>
      <point x="245" y="-13" type="curve"/>
      <point x="151" y="-98"/>
      <point x="143" y="-104"/>
      <point x="61" y="-160" type="curve"/>
      <point x="71" y="-176" type="line"/>
      <point x="110" y="-153"/>
      <point x="151" y="-144"/>
      <point x="191" y="-144" type="curve" smooth="yes" name="hr01"/>
      <point x="233" y="-144"/>
      <point x="388" y="-189"/>
      <point x="445" y="-189" type="curve" smooth="yes" name="hr02"/>
      <point x="535" y="-189"/>
      <point x="628" y="-143"/>
      <point x="693" y="-51" type="curve"/>
      <point x="678" y="-40" type="line"/>
      <point x="619" y="-100"/>
      <point x="578" y="-118"/>
      <point x="503" y="-118" type="curve" smooth="yes"/>
      <point x="455" y="-118"/>
      <point x="337" y="-88"/>
      <point x="280" y="-75" type="curve"/>
      <point x="271" y="-74"/>
      <point x="255" y="-73"/>
      <point x="234" y="-75" type="curve"/>
    </contour>
    <contour>
      <point x="304" y="18" type="curve" smooth="yes"/>
      <point x="220" y="18"/>
      <point x="172" y="78"/>
      <point x="172" y="190" type="curve" smooth="yes"/>
      <point x="172" y="392"/>
      <point x="319" y="657"/>
      <point x="480" y="657" type="curve" smooth="yes"/>
      <point x="566" y="657"/>
      <point x="617" y="598"/>
      <point x="617" y="499" type="curve" smooth="yes"/>
      <point x="617" y="287"/>
      <point x="476" y="18"/>
    </contour>
  </outline>
</glyph>
<glyph name="T" format="1">
  <unicode hex="0054"/>
  <advance width="577"/>
  <outline>
    <contour>
      <point x="657" y="678" type="line"/>
      <point x="105" y="678" type="line"/>
      <point x="61" y="518" type="line"/>
      <point x="79" y="514" type="line"/>
      <point x="131" y="619"/>
      <point x="164" y="643"/>
      <point x="327" y="643" type="curve"/>
      <point x="177" y="93" type="line" smooth="yes"/>
      <point x="162" y="40"/>
      <point x="136" y="23"/>
      <point x="67" y="17" type="curve"/>
      <point x="67" y="0" type="line"/>
      <point x="369" y="0" type="line"/>
      <point x="369" y="17" type="line"/>
      <point x="255" y="21"/>
      <point x="273" y="65"/>
      <point x="289" y="124" type="curve" smooth="yes"/>
      <point x="431" y="643" type="line"/>
      <point x="489" y="643" type="line" smooth="yes"/>
      <point x="588" y="643"/>
      <point x="610" y="590"/>
      <point x="594" y="511" type="curve"/>
      <point x="611" y="510" type="line"/>
    </contour>
  </outline>
</glyph>
<glyph name="V" format="1">
  <unicode hex="0056"/>
  <advance width="635"/>
  <outline>
    <contour>
      <point x="269" y="-19" type="line"/>
      <point x="655" y="620" type="line"/>
      <point x="673" y="647"/>
      <point x="692" y="660"/>
      <point x="714" y="661" type="curve"/>
      <point x="714" y="678" type="line"/>
      <point x="521" y="678" type="line"/>
      <point x="521" y="661" type="line"/>
      <point x="569" y="655"/>
      <point x="587" y="646"/>
      <point x="587" y="626" type="curve" smooth="yes"/>
      <point x="587" y="603"/>
      <point x="568" y="563"/>
      <point x="532" y="503" type="curve"/>
      <point x="319" y="133" type="line"/>
      <point x="250" y="593" type="line" smooth="yes"/>
      <point x="243" y="638"/>
      <point x="263" y="657"/>
      <point x="329" y="661" type="curve"/>
      <point x="329" y="678" type="line"/>
      <point x="78" y="678" type="line"/>
      <point x="78" y="661" type="line"/>
      <point x="135" y="653"/>
      <point x="141" y="651"/>
      <point x="161" y="521" type="curve"/>
      <point x="249" y="-19" type="line"/>
    </contour>
  </outline>
</glyph>
<glyph name="bracketleft" format="1">
  <unicode hex="005B"/>
  <advance width="404"/>
  <outline>
    <contour>
      <point x="224" y="-131" type="line"/>
      <point x="166" y="-131" type="line" smooth="yes"/>
      <point x="116" y="-131"/>
      <point x="111" y="-113"/>
      <point x="119" y="-79" type="curve" smooth="yes"/>
      <point x="286" y="624" type="line" smooth="yes"/>
      <point x="293" y="651"/>
      <point x="303" y="660"/>
      <point x="334" y="660" type="curve" smooth="yes"/>
      <point x="399" y="660" type="line"/>
      <point x="407" y="688" type="line"/>
      <point x="226" y="688" type="line"/>
      <point x="23" y="-159" type="line"/>
      <point x="217" y="-159" type="line"/>
    </contour>
  </outline>
</glyph>
<glyph name="backslash" format="1">
  <unicode hex="005C"/>
  <advance width="289"/>
  <outline>
    <contour>
      <point x="-43" y="691" type="line"/>
      <point x="257" y="-19" type="line"/>
      <point x="331" y="-19" type="line"/>
      <point x="32" y="691" type="line"/>
    </contour>
  </outline>
</glyph>
<glyph name="bracketright" format="1">
  <unicode hex="005D"/>
  <advance width="404"/>
  <outline>
    <contour>
      <point x="20" y="-131" type="line"/>
      <point x="13" y="-159" type="line"/>
      <point x="192" y="-159" type="line"/>
      <point x="397" y="688" type="line"/>
      <point x="200" y="688" type="line"/>
      <point x="193" y="660" type="line"/>
      <point x="252" y="660" type="line" smooth="yes"/>
      <point x="302" y="660"/>
      <point x="308" y="645"/>
      <point x="298" y="610" type="curve"/>
      <point x="132" y="-93" type="line"/>
      <point x="124" y="-124"/>
      <point x="115" y="-131"/>
      <point x="84" y="-131" type="curve" smooth="yes"/>
    </contour>
  </outline>
</glyph>
<glyph name="asciicircum" format="1">
  <unicode hex="005E"/>
  <advance width="438"/>
  <outline>
    <contour>
      <point x="70" y="312" type="line"/>
      <point x="219" y="613" type="line"/>
      <point x="368" y="312" type="line"/>
      <point x="438" y="312" type="line"/>
      <point x="250" y="691" type="line"/>
      <point x="188" y="691" type="line"/>
      <point x="0" y="312" type="line"/>
    </contour>
  </outline>
</glyph>
<glyph name="underscore" format="1">
  <unicode hex="005F"/>
  <advance width="519"/>
  <outline>
    <contour>
      <point x="519" y="-130" type="line"/>
      <point x="519" y="-77" type="line"/>
      <point x="0" y="-77" type="line"/>
      <point x="0" y="-130" type="line"/>
    </contour>
  </outline>
</glyph>
<glyph name="grave" format="1">
  <unicode hex="0060"/>
  <advance width="345"/>
  <outline>
    <contour>
      <point x="312" y="691" type="line"/>
      <point x="225" y="644"/>
      <point x="177" y="586"/>
      <point x="177" y="527" type="curve" smooth="yes"/>
      <point x="177" y="484"/>
      <point x="202" y="453"/>
      <point x="238" y="453" type="curve" smooth="yes"/>
      <point x="269" y="453"/>
      <point x="291" y="473"/>
      <point x="291" y="502" type="curve" smooth="yes"/>
      <point x="291" y="528"/>
      <point x="244" y="562"/>
      <point x="244" y="581" type="curve" smooth="yes" name="hr01"/>
      <point x="244" y="609"/>
      <point x="267" y="638"/>
      <point x="322" y="674" type="curve"/>
    </contour>
  </outline>
</glyph>
<glyph name="j" format="1">
  <unicode hex="006A"/>
  <advance width="289"/>
  <outline>
    <contour>
      <point x="255" y="456" type="line"/>
      <point x="252" y="458" type="line"/>
      <point x="166" y="443"/>
      <point x="108" y="433"/>
      <point x="75" y="431" type="curve"/>
      <point x="75" y="415" type="line"/>
      <point x="110" y="415" type="line" smooth="yes"/>
      <point x="141" y="415"/>
      <point x="153" y="407"/>
      <point x="153" y="383" type="curve"/>
      <point x="152" y="372"/>
      <point x="149" y="352"/>
      <point x="61" y="-3" type="curve" smooth="yes"/>
      <point x="25" y="-147"/>
      <point x="2" y="-191"/>
      <point x="-40" y="-191" type="curve" smooth="yes"/>
      <point x="-53" y="-191"/>
      <point x="-59" y="-188"/>
      <point x="-59" y="-179" type="curve" smooth="yes"/>
      <point x="-59" y="-172"/>
      <point x="-45" y="-158"/>
      <point x="-45" y="-147" type="curve" smooth="yes"/>
      <point x="-45" y="-124"/>
      <point x="-64" y="-108"/>
      <point x="-87" y="-108" type="curve" smooth="yes" name="hr01"/>
      <point x="-109" y="-108"/>
      <point x="-129" y="-126"/>
      <point x="-129" y="-152" type="curve" smooth="yes"/>
      <point x="-129" y="-189"/>
      <point x="-95" y="-215"/>
      <point x="-47" y="-215" type="curve" smooth="yes"/>
      <point x="46" y="-215"/>
      <point x="107" y="-138"/>
      <point x="148" y="29" type="curve" smooth="yes"/>
    </contour>
    <contour>
      <point x="235" y="679" type="line"/>
      <point x="206" y="679"/>
      <point x="186" y="654"/>
      <point x="186" y="624" type="curve" smooth="yes"/>
      <point x="186" y="591"/>
      <point x="204" y="569"/>
      <point x="236" y="569" type="curve" smooth="yes"/>
      <point x="264" y="569"/>
      <point x="287" y="593"/>
      <point x="287" y="622" type="curve" smooth="yes"/>
      <point x="287" y="652"/>
      <point x="263" y="679"/>
      <point x="235" y="679" type="curve"/>
    </contour>
  </outline>
</glyph>
<glyph name="l" format="1">
  <unicode hex="006C"/>
  <advance width="289"/>
  <outline>
    <contour>
      <point x="237" y="128" type="line"/>
      <point x="178" y="56"/>
      <point x="164" y="32"/>
      <point x="138" y="33" type="curve" smooth="yes"/>
      <point x="110" y="34"/>
      <point x="126" y="72"/>
      <point x="133" y="103" type="curve"/>
      <point x="290" y="704" type="line"/>
      <point x="285" y="709" type="line"/>
      <point x="225" y="696"/>
      <point x="183" y="688"/>
      <point x="122" y="681" type="curve"/>
      <point x="122" y="664" type="line"/>
      <point x="141" y="664" type="line" smooth="yes"/>
      <point x="173" y="664"/>
      <point x="193" y="654"/>
      <point x="193" y="641" type="curve" smooth="yes"/>
      <point x="193" y="636"/>
      <point x="191" y="630"/>
      <point x="47" y="73" type="curve"/>
      <point x="33" y="31"/>
      <point x="51" y="-11"/>
      <point x="93" y="-11" type="curve" smooth="yes"/>
      <point x="149" y="-11"/>
      <point x="182" y="20"/>
      <point x="250" y="118" type="curve"/>
    </contour>
  </outline>
</glyph>
<glyph name="q" format="1">
  <unicode hex="0071"/>
  <advance width="519"/>
  <outline>
    <contour>
      <point x="253" y="-144" type="line" smooth="yes"/>
      <point x="241" y="-184"/>
      <point x="221" y="-195"/>
      <point x="156" y="-198" type="curve"/>
      <point x="156" y="-215" type="line"/>
      <point x="407" y="-215" type="line"/>
      <point x="407" y="-196" type="line"/>
      <point x="388" y="-196" type="line" smooth="yes"/>
      <point x="343" y="-196"/>
      <point x="325" y="-186"/>
      <point x="331" y="-155" type="curve"/>
      <point x="502" y="444" type="line"/>
      <point x="425" y="444" type="line"/>
      <point x="411" y="394" type="line"/>
      <point x="394" y="442"/>
      <point x="373" y="458"/>
      <point x="330" y="458" type="curve" smooth="yes"/>
      <point x="191" y="458"/>
      <point x="26" y="266"/>
      <point x="26" y="109" type="curve" smooth="yes"/>
      <point x="26" y="33"/>
      <point x="64" y="-12"/>
      <point x="132" y="-12" type="curve" smooth="yes"/>
      <point x="207" y="-12"/>
      <point x="252" y="25"/>
      <point x="345" y="159" type="curve"/>
    </contour>
    <contour>
      <point x="333" y="434" type="line"/>
      <point x="367" y="434"/>
      <point x="395" y="407"/>
      <point x="395" y="373" type="curve" smooth="yes"/>
      <point x="395" y="245"/>
      <point x="274" y="44"/>
      <point x="174" y="44" type="curve" smooth="yes"/>
      <point x="137" y="44"/>
      <point x="115" y="74"/>
      <point x="115" y="123" type="curve" smooth="yes"/>
      <point x="115" y="231"/>
      <point x="230" y="434"/>
      <point x="333" y="434" type="curve"/>
    </contour>
  </outline>
</glyph>
<glyph name="t" format="1">
  <unicode hex="0074"/>
  <advance width="289"/>
  <outline>
    <contour>
      <point x="307" y="444" type="line"/>
      <point x="224" y="444" type="line"/>
      <point x="253" y="551" type="line" smooth="yes"/>
      <point x="255" y="558"/>
      <point x="254" y="567"/>
      <point x="244" y="566" type="curve"/>
      <point x="239" y="566"/>
      <point x="235" y="563"/>
      <point x="231" y="557" type="curve" smooth="yes"/>
      <point x="161" y="460"/>
      <point x="59" y="436"/>
      <point x="59" y="417" type="curve"/>
      <point x="59" y="415"/>
      <point x="59" y="413"/>
      <point x="60" y="412" type="curve"/>
      <point x="137" y="412" type="line"/>
      <point x="50" y="89"/>
      <point x="39" y="41"/>
      <point x="39" y="27" type="curve" smooth="yes"/>
      <point x="39" y="4"/>
      <point x="62" y="-11"/>
      <point x="88" y="-11" type="curve" smooth="yes"/>
      <point x="135" y="-11"/>
      <point x="171" y="20"/>
      <point x="236" y="114" type="curve"/>
      <point x="222" y="121" type="line"/>
      <point x="173" y="58"/>
      <point x="154" y="40"/>
      <point x="138" y="40" type="curve" smooth="yes"/>
      <point x="128" y="40"/>
      <point x="119" y="47"/>
      <point x="123" y="65" type="curve"/>
      <point x="215" y="412" type="line"/>
      <point x="301" y="412" type="line"/>
    </contour>
  </outline>
</glyph>
<glyph name="braceleft" format="1">
  <unicode hex="007B"/>
  <advance width="415"/>
  <outline>
    <contour>
      <point x="422" y="713" type="line"/>
      <point x="301" y="713"/>
      <point x="263" y="677"/>
      <point x="226" y="568" type="curve"/>
      <point x="177" y="383" type="line"/>
      <point x="156" y="309"/>
      <point x="135" y="281"/>
      <point x="67" y="265" type="curve"/>
      <point x="107" y="249"/>
      <point x="121" y="235"/>
      <point x="121" y="205" type="curve" smooth="yes"/>
      <point x="121" y="172"/>
      <point x="54" y="-74"/>
      <point x="54" y="-103" type="curve" smooth="yes" name="hr01"/>
      <point x="54" y="-158"/>
      <point x="88" y="-180"/>
      <point x="182" y="-183" type="curve"/>
      <point x="186" y="-173" type="line"/>
      <point x="148" y="-161"/>
      <point x="131" y="-144"/>
      <point x="131" y="-104" type="curve" smooth="yes"/>
      <point x="131" y="-80"/>
      <point x="198" y="192"/>
      <point x="198" y="198" type="curve" smooth="yes" name="hr02"/>
      <point x="198" y="227"/>
      <point x="182" y="247"/>
      <point x="143" y="265" type="curve"/>
      <point x="210" y="281"/>
      <point x="238" y="315"/>
      <point x="260" y="399" type="curve" smooth="yes"/>
      <point x="306" y="573" type="line" smooth="yes"/>
      <point x="327" y="654"/>
      <point x="355" y="684"/>
      <point x="419" y="702" type="curve"/>
    </contour>
  </outline>
</glyph>
<glyph name="bar" format="1">
  <unicode hex="007C"/>
  <advance width="169"/>
  <outline>
    <contour>
      <point x="71" y="-215" type="line"/>
      <point x="103" y="-215" type="line"/>
      <point x="103" y="825" type="line"/>
      <point x="71" y="825" type="line"/>
    </contour>
  </outline>
</glyph>
<glyph name="braceright" format="1">
  <unicode hex="007D"/>
  <advance width="415"/>
  <outline>
    <contour>
      <point x="230" y="702" type="line"/>
      <point x="270" y="690"/>
      <point x="285" y="670"/>
      <point x="285" y="633" type="curve" smooth="yes"/>
      <point x="285" y="607"/>
      <point x="216" y="342"/>
      <point x="216" y="330" type="curve" smooth="yes" name="hr01"/>
      <point x="216" y="299"/>
      <point x="234" y="283"/>
      <point x="274" y="265" type="curve"/>
      <point x="203" y="248"/>
      <point x="179" y="216"/>
      <point x="156" y="131" type="curve" smooth="yes"/>
      <point x="109" y="-44" type="line"/>
      <point x="88" y="-127"/>
      <point x="59" y="-154"/>
      <point x="-4" y="-173" type="curve"/>
      <point x="-8" y="-183" type="line"/>
      <point x="108" y="-183"/>
      <point x="156" y="-149"/>
      <point x="189" y="-39" type="curve"/>
      <point x="239" y="147" type="line"/>
      <point x="261" y="221"/>
      <point x="282" y="249"/>
      <point x="348" y="265" type="curve"/>
      <point x="308" y="281"/>
      <point x="294" y="293"/>
      <point x="294" y="324" type="curve" smooth="yes"/>
      <point x="294" y="355"/>
      <point x="363" y="607"/>
      <point x="363" y="633" type="curve" smooth="yes" name="hr02"/>
      <point x="363" y="689"/>
      <point x="327" y="710"/>
      <point x="233" y="713" type="curve"/>
    </contour>
  </outline>
</glyph>
<glyph name="exclamdown" format="1">
  <unicode hex="00A1"/>
  <advance width="404"/>
  <outline>
    <contour>
      <point x="233" y="295" type="line"/>
      <point x="146" y="54"/>
      <point x="63" y="-95"/>
      <point x="61" y="-160" type="curve"/>
      <point x="61" y="-195"/>
      <point x="75" y="-212"/>
      <point x="103" y="-212" type="curve" smooth="yes"/>
      <point x="141" y="-212"/>
      <point x="161" y="-178"/>
      <point x="176" y="-92" type="curve"/>
      <point x="195" y="30"/>
      <point x="212" y="122"/>
      <point x="250" y="292" type="curve"/>
    </contour>
    <contour>
      <point x="281" y="492" type="line"/>
      <point x="249" y="492"/>
      <point x="223" y="467"/>
      <point x="223" y="438" type="curve" smooth="yes"/>
      <point x="223" y="409"/>
      <point x="249" y="382"/>
      <point x="280" y="382" type="curve" smooth="yes"/>
      <point x="307" y="382"/>
      <point x="333" y="409"/>
      <point x="333" y="434" type="curve" smooth="yes"/>
      <point x="333" y="468"/>
      <point x="310" y="492"/>
      <point x="281" y="492" type="curve"/>
    </contour>
  </outline>
</glyph>
<glyph name="cent" format="1">
  <unicode hex="00A2"/>
  <advance width="519"/>
  <outline>
    <contour>
      <point x="429" y="581" type="line"/>
      <point x="399" y="581" type="line"/>
      <point x="355" y="457" type="line"/>
      <point x="188" y="429"/>
      <point x="79" y="283"/>
      <point x="79" y="146" type="curve" smooth="yes"/>
      <point x="79" y="63"/>
      <point x="114" y="11"/>
      <point x="192" y="-8" type="curve"/>
      <point x="143" y="-149" type="line"/>
      <point x="175" y="-149" type="line"/>
      <point x="223" y="-11" type="line"/>
      <point x="229" y="-12"/>
      <point x="231" y="-12"/>
      <point x="236" y="-12" type="curve" smooth="yes"/>
      <point x="310" y="-12"/>
      <point x="367" y="23"/>
      <point x="428" y="100" type="curve"/>
      <point x="413" y="110" type="line"/>
      <point x="354" y="49"/>
      <point x="314" y="26"/>
      <point x="262" y="26" type="curve" smooth="yes"/>
      <point x="251" y="26"/>
      <point x="245" y="27"/>
      <point x="237" y="30" type="curve"/>
      <point x="379" y="436" type="line"/>
      <point x="403" y="434"/>
      <point x="415" y="427"/>
      <point x="415" y="415" type="curve" smooth="yes"/>
      <point x="415" y="405"/>
      <point x="400" y="378"/>
      <point x="400" y="366" type="curve" smooth="yes"/>
      <point x="400" y="340"/>
      <point x="415" y="326"/>
      <point x="440" y="326" type="curve" smooth="yes"/>
      <point x="469" y="326"/>
      <point x="490" y="347"/>
      <point x="490" y="374" type="curve" smooth="yes"/>
      <point x="490" y="421"/>
      <point x="451" y="451"/>
      <point x="386" y="457" type="curve"/>
    </contour>
    <contour>
      <point x="209" y="43" type="line"/>
      <point x="181" y="65"/>
      <point x="169" y="98"/>
      <point x="169" y="145" type="curve" smooth="yes"/>
      <point x="169" y="279"/>
      <point x="244" y="404"/>
      <point x="347" y="432" type="curve"/>
    </contour>
  </outline>
</glyph>
<glyph name="sterling" format="1">
  <unicode hex="00A3"/>
  <advance width="519"/>
  <outline>
    <contour>
      <point x="412" y="329" type="line"/>
      <point x="418" y="373" type="line"/>
      <point x="291" y="373" type="line"/>
      <point x="334" y="607"/>
      <point x="358" y="663"/>
      <point x="417" y="663" type="curve" smooth="yes"/>
      <point x="471" y="663"/>
      <point x="446" y="572"/>
      <point x="497" y="572" type="curve" smooth="yes" name="hr01"/>
      <point x="522" y="572"/>
      <point x="536" y="587"/>
      <point x="536" y="615" type="curve" smooth="yes"/>
      <point x="536" y="661"/>
      <point x="498" y="693"/>
      <point x="440" y="693" type="curve" smooth="yes"/>
      <point x="314" y="693"/>
      <point x="232" y="560"/>
      <point x="198" y="373" type="curve"/>
      <point x="84" y="373" type="line"/>
      <point x="74" y="329" type="line"/>
      <point x="192" y="329" type="line"/>
      <point x="166" y="117" type="line"/>
      <point x="124" y="129"/>
      <point x="123" y="129"/>
      <point x="108" y="129" type="curve" smooth="yes"/>
      <point x="51" y="129"/>
      <point x="11" y="100"/>
      <point x="11" y="58" type="curve" smooth="yes"/>
      <point x="11" y="19"/>
      <point x="38" y="-8"/>
      <point x="77" y="-8" type="curve" smooth="yes"/>
      <point x="114" y="-8"/>
      <point x="137" y="7"/>
      <point x="177" y="57" type="curve"/>
      <point x="244" y="7"/>
      <point x="277" y="-8"/>
      <point x="327" y="-8" type="curve" smooth="yes"/>
      <point x="397" y="-8"/>
      <point x="448" y="28"/>
      <point x="474" y="92" type="curve"/>
      <point x="463" y="102" type="line"/>
      <point x="423" y="72"/>
      <point x="401" y="66"/>
      <point x="371" y="66" type="curve" smooth="yes" name="hr02"/>
      <point x="327" y="66"/>
      <point x="279" y="77"/>
      <point x="204" y="106" type="curve"/>
      <point x="247" y="198"/>
      <point x="253" y="215"/>
      <point x="281" y="329" type="curve"/>
    </contour>
    <contour>
      <point x="152" y="73" type="line"/>
      <point x="139" y="39"/>
      <point x="109" y="15"/>
      <point x="77" y="15" type="curve" smooth="yes" name="hr03"/>
      <point x="54" y="15"/>
      <point x="33" y="31"/>
      <point x="33" y="54" type="curve" smooth="yes"/>
      <point x="33" y="81"/>
      <point x="57" y="100"/>
      <point x="89" y="100" type="curve" smooth="yes"/>
      <point x="110" y="100"/>
      <point x="120" y="96"/>
      <point x="152" y="73" type="curve"/>
    </contour>
  </outline>
</glyph>
<glyph name="yen" format="1">
  <unicode hex="00A5"/>
  <advance width="519"/>
  <outline>
    <contour>
      <point x="473" y="189" type="line"/>
      <point x="486" y="231" type="line"/>
      <point x="298" y="231" type="line"/>
      <point x="324" y="315" type="line"/>
      <point x="330" y="324" type="line"/>
      <point x="507" y="324" type="line"/>
      <point x="519" y="366" type="line"/>
      <point x="363" y="366" type="line"/>
      <point x="550" y="598" type="line" smooth="yes"/>
      <point x="584" y="640"/>
      <point x="593" y="647"/>
      <point x="626" y="661" type="curve"/>
      <point x="626" y="678" type="line"/>
      <point x="429" y="678" type="line"/>
      <point x="429" y="661" type="line"/>
      <point x="480" y="657"/>
      <point x="502" y="652"/>
      <point x="502" y="630" type="curve" smooth="yes"/>
      <point x="502" y="600"/>
      <point x="443" y="517"/>
      <point x="304" y="360" type="curve"/>
      <point x="275" y="465" type="line"/>
      <point x="244" y="563"/>
      <point x="235" y="608"/>
      <point x="234" y="624" type="curve"/>
      <point x="234" y="649"/>
      <point x="245" y="654"/>
      <point x="311" y="661" type="curve"/>
      <point x="311" y="678" type="line"/>
      <point x="63" y="678" type="line"/>
      <point x="63" y="661" type="line"/>
      <point x="130" y="651"/>
      <point x="141" y="649"/>
      <point x="156" y="593" type="curve" smooth="yes"/>
      <point x="220" y="366" type="line"/>
      <point x="74" y="366" type="line"/>
      <point x="62" y="324" type="line"/>
      <point x="232" y="324" type="line"/>
      <point x="235" y="313" type="line"/>
      <point x="210" y="231" type="line"/>
      <point x="41" y="231" type="line"/>
      <point x="28" y="189" type="line" name="hr01"/>
      <point x="198" y="189" type="line"/>
      <point x="172" y="93" type="line"/>
      <point x="154" y="41"/>
      <point x="123" y="21"/>
      <point x="59" y="17" type="curve"/>
      <point x="55" y="0" type="line" name="hr02"/>
      <point x="350" y="0" type="line"/>
      <point x="350" y="17" type="line"/>
      <point x="276" y="21"/>
      <point x="254" y="24"/>
      <point x="254" y="59" type="curve" smooth="yes"/>
      <point x="254" y="82"/>
      <point x="261" y="107"/>
      <point x="287" y="189" type="curve" name="hr03"/>
    </contour>
  </outline>
</glyph>
<glyph name="brokenbar" format="1">
  <unicode hex="00A6"/>
  <advance width="286"/>
  <outline>
    <contour>
      <point x="109" y="-19" type="line"/>
      <point x="177" y="-19" type="line"/>
      <point x="177" y="267" type="line"/>
      <point x="109" y="267" type="line"/>
    </contour>
    <contour>
      <point x="109" y="407" type="line"/>
      <point x="177" y="407" type="line"/>
      <point x="177" y="693" type="line"/>
      <point x="109" y="693" type="line"/>
    </contour>
  </outline>
</glyph>
<glyph name="section" format="1">
  <unicode hex="00A7"/>
  <advance width="519"/>
  <outline>
    <contour>
      <point x="259" y="413" type="line"/>
      <point x="241" y="421"/>
      <point x="221" y="424"/>
      <point x="203" y="424" type="curve" smooth="yes"/>
      <point x="144" y="424"/>
      <point x="93" y="367"/>
      <point x="93" y="296" type="curve" smooth="yes"/>
      <point x="93" y="248"/>
      <point x="118" y="193"/>
      <point x="167" y="138" type="curve" smooth="yes"/>
      <point x="246" y="48" type="line" smooth="yes"/>
      <point x="286" y="3"/>
      <point x="297" y="-23"/>
      <point x="297" y="-54" type="curve" smooth="yes"/>
      <point x="297" y="-108"/>
      <point x="254" y="-147"/>
      <point x="192" y="-147" type="curve" smooth="yes"/>
      <point x="154" y="-147"/>
      <point x="118" y="-129"/>
      <point x="118" y="-108" type="curve" smooth="yes" name="hr01"/>
      <point x="118" y="-93"/>
      <point x="162" y="-78"/>
      <point x="162" y="-43" type="curve" smooth="yes"/>
      <point x="162" y="-15"/>
      <point x="144" y="2"/>
      <point x="113" y="2" type="curve" smooth="yes"/>
      <point x="76" y="2"/>
      <point x="56" y="-20"/>
      <point x="56" y="-57" type="curve" smooth="yes"/>
      <point x="56" y="-119"/>
      <point x="117" y="-168"/>
      <point x="196" y="-168" type="curve" smooth="yes"/>
      <point x="289" y="-168"/>
      <point x="358" y="-107"/>
      <point x="358" y="-26" type="curve" smooth="yes"/>
      <point x="358" y="16"/>
      <point x="348" y="38"/>
      <point x="293" y="108" type="curve"/>
      <point x="295" y="110" type="line"/>
      <point x="307" y="106"/>
      <point x="314" y="104"/>
      <point x="329" y="104" type="curve" smooth="yes"/>
      <point x="402" y="104"/>
      <point x="452" y="157"/>
      <point x="452" y="235" type="curve" smooth="yes"/>
      <point x="452" y="278"/>
      <point x="436" y="320"/>
      <point x="410" y="353" type="curve" smooth="yes"/>
      <point x="282" y="510" type="line"/>
      <point x="264" y="530"/>
      <point x="254" y="556"/>
      <point x="254" y="584" type="curve" smooth="yes"/>
      <point x="254" y="637"/>
      <point x="291" y="669"/>
      <point x="350" y="669" type="curve" smooth="yes"/>
      <point x="385" y="669"/>
      <point x="413" y="654"/>
      <point x="413" y="638" type="curve" smooth="yes" name="hr02"/>
      <point x="413" y="628"/>
      <point x="377" y="602"/>
      <point x="377" y="578" type="curve" smooth="yes" name="hr03"/>
      <point x="377" y="551"/>
      <point x="397" y="531"/>
      <point x="424" y="531" type="curve" smooth="yes"/>
      <point x="458" y="531"/>
      <point x="478" y="554"/>
      <point x="478" y="589" type="curve" smooth="yes"/>
      <point x="478" y="649"/>
      <point x="422" y="691"/>
      <point x="343" y="691" type="curve" smooth="yes"/>
      <point x="254" y="691"/>
      <point x="191" y="638"/>
      <point x="191" y="561" type="curve" smooth="yes"/>
      <point x="191" y="516"/>
      <point x="208" y="480"/>
      <point x="261" y="416" type="curve"/>
    </contour>
    <contour>
      <point x="221" y="403" type="line"/>
      <point x="294" y="403"/>
      <point x="392" y="251"/>
      <point x="392" y="198" type="curve" smooth="yes" name="hr04"/>
      <point x="392" y="160"/>
      <point x="360" y="126"/>
      <point x="324" y="126" type="curve" smooth="yes"/>
      <point x="264" y="126"/>
      <point x="153" y="261"/>
      <point x="153" y="334" type="curve" smooth="yes"/>
      <point x="153" y="373"/>
      <point x="183" y="403"/>
      <point x="221" y="403" type="curve"/>
    </contour>
  </outline>
</glyph>
<glyph name="dieresis" format="1">
  <unicode hex="00A8"/>
  <advance width="345"/>
  <outline>
    <contour>
      <point x="163" y="630" type="line"/>
      <point x="134" y="630"/>
      <point x="110" y="606"/>
      <point x="110" y="579" type="curve" smooth="yes"/>
      <point x="110" y="550"/>
      <point x="134" y="528"/>
      <point x="162" y="528" type="curve" smooth="yes"/>
      <point x="190" y="528"/>
      <point x="212" y="550"/>
      <point x="212" y="578" type="curve" smooth="yes"/>
      <point x="212" y="604"/>
      <point x="189" y="630"/>
      <point x="163" y="630" type="curve"/>
    </contour>
    <contour>
      <point x="371" y="630" type="line"/>
      <point x="341" y="630"/>
      <point x="319" y="606"/>
      <point x="319" y="579" type="curve" smooth="yes"/>
      <point x="319" y="550"/>
      <point x="341" y="528"/>
      <point x="370" y="528" type="curve" smooth="yes"/>
      <point x="398" y="528"/>
      <point x="421" y="550"/>
      <point x="421" y="578" type="curve" smooth="yes"/>
      <point x="421" y="604"/>
      <point x="397" y="630"/>
      <point x="371" y="630" type="curve"/>
    </contour>
  </outline>
</glyph>
<glyph name="copyright" format="1">
  <unicode hex="00A9"/>
  <advance width="797"/>
  <outline>
    <contour>
      <point x="564" y="409" type="line"/>
      <point x="564" y="549" type="line"/>
      <point x="539" y="549" type="line"/>
      <point x="528" y="529"/>
      <point x="527" y="527"/>
      <point x="516" y="527" type="curve" smooth="yes"/>
      <point x="479" y="527"/>
      <point x="445" y="549"/>
      <point x="409" y="549" type="curve" smooth="yes"/>
      <point x="283" y="549"/>
      <point x="198" y="463"/>
      <point x="198" y="340" type="curve" smooth="yes"/>
      <point x="198" y="218"/>
      <point x="279" y="137"/>
      <point x="406" y="137" type="curve" smooth="yes"/>
      <point x="473" y="137"/>
      <point x="524" y="161"/>
      <point x="572" y="214" type="curve"/>
      <point x="557" y="230" type="line"/>
      <point x="508" y="187"/>
      <point x="471" y="171"/>
      <point x="418" y="171" type="curve" smooth="yes"/>
      <point x="329" y="171"/>
      <point x="274" y="236"/>
      <point x="274" y="344" type="curve" smooth="yes"/>
      <point x="274" y="453"/>
      <point x="326" y="517"/>
      <point x="413" y="517" type="curve" smooth="yes"/>
      <point x="481" y="517"/>
      <point x="524" y="481"/>
      <point x="541" y="409" type="curve"/>
    </contour>
    <contour>
      <point x="398" y="704" type="line"/>
      <point x="203" y="704"/>
      <point x="44" y="543"/>
      <point x="44" y="343" type="curve" smooth="yes"/>
      <point x="44" y="142"/>
      <point x="203" y="-17"/>
      <point x="398" y="-17" type="curve" smooth="yes"/>
      <point x="593" y="-17"/>
      <point x="752" y="142"/>
      <point x="752" y="343" type="curve" smooth="yes"/>
      <point x="752" y="543"/>
      <point x="593" y="704"/>
      <point x="398" y="704" type="curve"/>
    </contour>
    <contour>
      <point x="398" y="658" type="line"/>
      <point x="565" y="658"/>
      <point x="699" y="516"/>
      <point x="699" y="343" type="curve" smooth="yes"/>
      <point x="699" y="169"/>
      <point x="565" y="29"/>
      <point x="398" y="29" type="curve" smooth="yes"/>
      <point x="231" y="29"/>
      <point x="96" y="169"/>
      <point x="96" y="343" type="curve" smooth="yes"/>
      <point x="96" y="516"/>
      <point x="231" y="658"/>
      <point x="398" y="658" type="curve"/>
    </contour>
  </outline>
</glyph>
<glyph name="ordfeminine" format="1">
  <unicode hex="00AA"/>
  <advance width="287"/>
  <outline>
    <contour>
      <point x="310" y="689" type="line"/>
      <point x="300" y="656" type="line"/>
      <point x="295" y="681"/>
      <point x="276" y="693"/>
      <point x="240" y="693" type="curve" smooth="yes"/>
      <point x="149" y="693"/>
      <point x="44" y="582"/>
      <point x="44" y="486" type="curve" smooth="yes"/>
      <point x="44" y="440"/>
      <point x="74" y="412"/>
      <point x="124" y="412" type="curve" smooth="yes"/>
      <point x="176" y="412"/>
      <point x="204" y="432"/>
      <point x="255" y="503" type="curve"/>
      <point x="241" y="466"/>
      <point x="238" y="456"/>
      <point x="238" y="439" type="curve" smooth="yes" name="hr01"/>
      <point x="238" y="422"/>
      <point x="250" y="412"/>
      <point x="270" y="412" type="curve" smooth="yes"/>
      <point x="296" y="412"/>
      <point x="312" y="423"/>
      <point x="364" y="481" type="curve"/>
      <point x="356" y="492" type="line"/>
      <point x="317" y="449"/>
      <point x="314" y="451"/>
      <point x="309" y="451" type="curve" smooth="yes"/>
      <point x="303" y="451"/>
      <point x="305" y="461"/>
      <point x="309" y="481" type="curve" smooth="yes"/>
      <point x="313" y="503"/>
      <point x="331" y="571"/>
      <point x="366" y="692" type="curve"/>
    </contour>
    <contour>
      <point x="280" y="635" type="line" name="hr02"/>
      <point x="280" y="571"/>
      <point x="206" y="448"/>
      <point x="150" y="448" type="curve" smooth="yes"/>
      <point x="134" y="448"/>
      <point x="119" y="468"/>
      <point x="119" y="490" type="curve" smooth="yes"/>
      <point x="119" y="564"/>
      <point x="201" y="674"/>
      <point x="254" y="674" type="curve"/>
      <point x="271" y="672"/>
      <point x="280" y="656"/>
      <point x="280" y="635" type="curve"/>
    </contour>
  </outline>
</glyph>
<glyph name="guillemotleft" format="1">
  <unicode hex="00AB"/>
  <advance width="519"/>
  <outline>
    <contour>
      <point x="56" y="224" type="line"/>
      <point x="69" y="202"/>
      <point x="197" y="39"/>
      <point x="209" y="39" type="curve" smooth="yes"/>
      <point x="213" y="39"/>
      <point x="217" y="42"/>
      <point x="217" y="46" type="curve" smooth="yes"/>
      <point x="217" y="57"/>
      <point x="190" y="114"/>
      <point x="132" y="225" type="curve"/>
      <point x="226" y="324"/>
      <point x="294" y="379"/>
      <point x="294" y="411" type="curve" smooth="yes"/>
      <point x="294" y="414"/>
      <point x="291" y="418"/>
      <point x="287" y="418" type="curve" smooth="yes"/>
      <point x="269" y="418"/>
      <point x="253" y="383"/>
      <point x="92" y="262" type="curve" smooth="yes"/>
      <point x="56" y="234" type="line"/>
    </contour>
    <contour>
      <point x="223" y="224" type="line"/>
      <point x="238" y="203"/>
      <point x="367" y="39"/>
      <point x="378" y="39" type="curve" smooth="yes"/>
      <point x="382" y="39"/>
      <point x="385" y="42"/>
      <point x="385" y="46" type="curve" smooth="yes"/>
      <point x="385" y="61"/>
      <point x="344" y="135"/>
      <point x="299" y="225" type="curve"/>
      <point x="395" y="325"/>
      <point x="462" y="380"/>
      <point x="462" y="411" type="curve" smooth="yes"/>
      <point x="462" y="414"/>
      <point x="459" y="418"/>
      <point x="455" y="418" type="curve" smooth="yes"/>
      <point x="438" y="418"/>
      <point x="419" y="383"/>
      <point x="261" y="262" type="curve"/>
      <point x="223" y="234" type="line"/>
    </contour>
  </outline>
</glyph>
<glyph name="logicalnot" format="1">
  <unicode hex="00AC"/>
  <advance width="701"/>
  <outline>
    <contour>
      <point x="544" y="112" type="line"/>
      <point x="613" y="112" type="line"/>
      <point x="613" y="401" type="line"/>
      <point x="89" y="401" type="line"/>
      <point x="89" y="331" type="line"/>
      <point x="544" y="331" type="line"/>
    </contour>
  </outline>
</glyph>
<glyph name="registered" format="1">
  <unicode hex="00AE"/>
  <advance width="797"/>
  <outline>
    <contour>
      <point x="509" y="159" type="line"/>
      <point x="610" y="159" type="line"/>
      <point x="610" y="177" type="line"/>
      <point x="585" y="180"/>
      <point x="571" y="189"/>
      <point x="548" y="216" type="curve" smooth="yes"/>
      <point x="438" y="346" type="line"/>
      <point x="505" y="357"/>
      <point x="544" y="395"/>
      <point x="544" y="448" type="curve" smooth="yes"/>
      <point x="544" y="524"/>
      <point x="494" y="555"/>
      <point x="375" y="555" type="curve" smooth="yes"/>
      <point x="207" y="555" type="line"/>
      <point x="207" y="539" type="line" name="hr01"/>
      <point x="256" y="536"/>
      <point x="267" y="528"/>
      <point x="267" y="491" type="curve" smooth="yes"/>
      <point x="267" y="222" type="line" smooth="yes"/>
      <point x="267" y="186"/>
      <point x="256" y="177"/>
      <point x="207" y="174" type="curve"/>
      <point x="207" y="159" type="line" name="hr02"/>
      <point x="398" y="159" type="line"/>
      <point x="398" y="174" type="line" name="hr03"/>
      <point x="349" y="177"/>
      <point x="338" y="186"/>
      <point x="338" y="222" type="curve" smooth="yes"/>
      <point x="338" y="338" type="line" name="hr04"/>
      <point x="365" y="338" type="line"/>
    </contour>
    <contour>
      <point x="338" y="367" type="line"/>
      <point x="338" y="503" type="line" smooth="yes"/>
      <point x="338" y="523"/>
      <point x="338" y="524"/>
      <point x="378" y="524" type="curve" smooth="yes"/>
      <point x="439" y="524"/>
      <point x="470" y="498"/>
      <point x="470" y="447" type="curve" smooth="yes"/>
      <point x="470" y="390"/>
      <point x="438" y="367"/>
      <point x="355" y="367" type="curve" smooth="yes"/>
    </contour>
    <contour>
      <point x="399" y="705" type="line" name="hr05"/>
      <point x="205" y="705"/>
      <point x="45" y="544"/>
      <point x="45" y="344" type="curve" smooth="yes"/>
      <point x="45" y="143"/>
      <point x="205" y="-16"/>
      <point x="399" y="-16" type="curve" smooth="yes"/>
      <point x="594" y="-16"/>
      <point x="753" y="143"/>
      <point x="753" y="344" type="curve" smooth="yes"/>
      <point x="753" y="544"/>
      <point x="594" y="705"/>
      <point x="399" y="705" type="curve"/>
    </contour>
    <contour>
      <point x="399" y="659" type="line" name="hr06"/>
      <point x="566" y="659"/>
      <point x="700" y="517"/>
      <point x="700" y="344" type="curve" smooth="yes"/>
      <point x="700" y="170"/>
      <point x="566" y="30"/>
      <point x="399" y="30" type="curve" smooth="yes"/>
      <point x="232" y="30"/>
      <point x="97" y="170"/>
      <point x="97" y="344" type="curve" smooth="yes"/>
      <point x="97" y="517"/>
      <point x="232" y="659"/>
      <point x="399" y="659" type="curve"/>
    </contour>
  </outline>
</glyph>
<glyph name="uni00AF" format="1">
  <unicode hex="00AF"/>
  <unicode hex="02C9"/>
  <advance width="345"/>
  <outline>
    <contour>
      <point x="426" y="605" type="line"/>
      <point x="114" y="605" type="line"/>
      <point x="103" y="552" type="line"/>
      <point x="415" y="552" type="line"/>
    </contour>
  </outline>
</glyph>
<glyph name="degree" format="1">
  <unicode hex="00B0"/>
  <advance width="415"/>
  <outline>
    <contour>
      <point x="253" y="693" type="line"/>
      <point x="171" y="693"/>
      <point x="105" y="628"/>
      <point x="105" y="545" type="curve" smooth="yes"/>
      <point x="105" y="462"/>
      <point x="171" y="396"/>
      <point x="251" y="396" type="curve" smooth="yes"/>
      <point x="336" y="396"/>
      <point x="402" y="460"/>
      <point x="402" y="545" type="curve" smooth="yes"/>
      <point x="402" y="628"/>
      <point x="336" y="693"/>
      <point x="253" y="693" type="curve"/>
    </contour>
    <contour>
      <point x="253" y="657" type="line"/>
      <point x="311" y="657"/>
      <point x="362" y="606"/>
      <point x="362" y="545" type="curve" smooth="yes"/>
      <point x="362" y="482"/>
      <point x="312" y="431"/>
      <point x="252" y="431" type="curve" smooth="yes"/>
      <point x="194" y="431"/>
      <point x="146" y="483"/>
      <point x="146" y="545" type="curve" smooth="yes"/>
      <point x="146" y="606"/>
      <point x="194" y="657"/>
      <point x="253" y="657" type="curve"/>
    </contour>
  </outline>
</glyph>
<glyph name="plusminus" format="1">
  <unicode hex="00B1"/>
  <advance width="701"/>
  <outline>
    <contour>
      <point x="89" y="0" type="line"/>
      <point x="613" y="0" type="line"/>
      <point x="613" y="68" type="line"/>
      <point x="89" y="68" type="line"/>
    </contour>
    <contour>
      <point x="316" y="362" type="line"/>
      <point x="89" y="362" type="line"/>
      <point x="89" y="293" type="line"/>
      <point x="316" y="293" type="line"/>
      <point x="316" y="127" type="line"/>
      <point x="385" y="127" type="line"/>
      <point x="385" y="293" type="line"/>
      <point x="613" y="293" type="line"/>
      <point x="613" y="362" type="line"/>
      <point x="385" y="362" type="line"/>
      <point x="385" y="590" type="line"/>
      <point x="316" y="590" type="line"/>
    </contour>
  </outline>
</glyph>
<glyph name="twosuperior" format="1">
  <unicode hex="00B2"/>
  <advance width="311"/>
  <outline>
    <contour>
      <point x="296" y="363" type="line"/>
      <point x="281" y="334"/>
      <point x="267" y="327"/>
      <point x="230" y="327" type="curve" smooth="yes"/>
      <point x="117" y="327" type="line"/>
      <point x="115" y="332" type="line"/>
      <point x="234" y="447" type="line" smooth="yes"/>
      <point x="324" y="534"/>
      <point x="336" y="551"/>
      <point x="336" y="589" type="curve" smooth="yes"/>
      <point x="336" y="644"/>
      <point x="285" y="693"/>
      <point x="221" y="693" type="curve" smooth="yes"/>
      <point x="161" y="693"/>
      <point x="108" y="661"/>
      <point x="80" y="593" type="curve"/>
      <point x="94" y="585" type="line"/>
      <point x="124" y="625"/>
      <point x="151" y="640"/>
      <point x="188" y="640" type="curve" smooth="yes"/>
      <point x="233" y="640"/>
      <point x="269" y="609"/>
      <point x="269" y="570" type="curve" smooth="yes"/>
      <point x="269" y="537"/>
      <point x="237" y="489"/>
      <point x="173" y="425" type="curve"/>
      <point x="34" y="290" type="line"/>
      <point x="34" y="273" type="line"/>
      <point x="275" y="273" type="line"/>
      <point x="308" y="355" type="line"/>
    </contour>
  </outline>
</glyph>
<glyph name="threesuperior" format="1">
  <unicode hex="00B3"/>
  <advance width="311"/>
  <outline>
    <contour>
      <point x="156" y="623" type="line"/>
      <point x="185" y="650"/>
      <point x="203" y="659"/>
      <point x="231" y="659" type="curve" smooth="yes"/>
      <point x="260" y="659"/>
      <point x="283" y="637"/>
      <point x="283" y="606" type="curve" smooth="yes"/>
      <point x="283" y="559"/>
      <point x="234" y="526"/>
      <point x="130" y="508" type="curve"/>
      <point x="130" y="499" type="line" name="hr01"/>
      <point x="203" y="499"/>
      <point x="247" y="468"/>
      <point x="247" y="399" type="curve" smooth="yes"/>
      <point x="247" y="343"/>
      <point x="209" y="301"/>
      <point x="160" y="301" type="curve" smooth="yes"/>
      <point x="145" y="301"/>
      <point x="91" y="339"/>
      <point x="75" y="339" type="curve" smooth="yes" name="hr02"/>
      <point x="59" y="339"/>
      <point x="45" y="325"/>
      <point x="45" y="310" type="curve" smooth="yes"/>
      <point x="45" y="284"/>
      <point x="71" y="270"/>
      <point x="120" y="270" type="curve" smooth="yes"/>
      <point x="233" y="270"/>
      <point x="312" y="336"/>
      <point x="312" y="432" type="curve" smooth="yes"/>
      <point x="312" y="477"/>
      <point x="305" y="496"/>
      <point x="247" y="523" type="curve"/>
      <point x="327" y="551"/>
      <point x="352" y="574"/>
      <point x="352" y="614" type="curve" smooth="yes" name="hr03"/>
      <point x="352" y="658"/>
      <point x="309" y="693"/>
      <point x="253" y="693" type="curve" smooth="yes"/>
      <point x="206" y="693"/>
      <point x="165" y="669"/>
      <point x="145" y="630" type="curve"/>
    </contour>
  </outline>
</glyph>
<glyph name="acute" format="1">
  <unicode hex="00B4"/>
  <advance width="345"/>
  <outline>
    <contour>
      <point x="187" y="513" type="line"/>
      <point x="223" y="513" type="line"/>
      <point x="401" y="623" type="line" smooth="yes"/>
      <point x="413" y="631"/>
      <point x="418" y="640"/>
      <point x="418" y="651" type="curve" smooth="yes"/>
      <point x="418" y="673"/>
      <point x="402" y="689"/>
      <point x="381" y="689" type="curve" smooth="yes"/>
      <point x="371" y="689"/>
      <point x="363" y="686"/>
      <point x="355" y="679" type="curve" smooth="yes"/>
    </contour>
  </outline>
</glyph>
<glyph name="uni00B5" format="1">
  <unicode hex="00B5"/>
  <unicode hex="03BC"/>
  <advance width="519"/>
  <outline>
    <contour>
      <point x="516" y="444" type="line"/>
      <point x="424" y="444" type="line"/>
      <point x="349" y="119" type="line"/>
      <point x="312" y="72"/>
      <point x="267" y="47"/>
      <point x="222" y="47" type="curve" smooth="yes"/>
      <point x="165" y="47"/>
      <point x="139" y="97"/>
      <point x="154" y="150" type="curve"/>
      <point x="223" y="444" type="line"/>
      <point x="132" y="444" type="line"/>
      <point x="44" y="57" type="line"/>
      <point x="32" y="8"/>
      <point x="-31" y="-126"/>
      <point x="-31" y="-162" type="curve" smooth="yes"/>
      <point x="-31" y="-201"/>
      <point x="-20" y="-217"/>
      <point x="4" y="-217" type="curve" smooth="yes"/>
      <point x="49" y="-217"/>
      <point x="77" y="-159"/>
      <point x="77" y="-68" type="curve" smooth="yes"/>
      <point x="77" y="-47"/>
      <point x="75" y="1"/>
      <point x="75" y="19" type="curve" smooth="yes"/>
      <point x="75" y="35"/>
      <point x="76" y="47"/>
      <point x="77" y="68" type="curve"/>
      <point x="98" y="15"/>
      <point x="130" y="-11"/>
      <point x="185" y="-11" type="curve" smooth="yes"/>
      <point x="240" y="-11"/>
      <point x="290" y="19"/>
      <point x="344" y="83" type="curve"/>
      <point x="341" y="68"/>
      <point x="340" y="61"/>
      <point x="340" y="51" type="curve" smooth="yes"/>
      <point x="340" y="11"/>
      <point x="360" y="-11"/>
      <point x="400" y="-11" type="curve" smooth="yes"/>
      <point x="440" y="-11"/>
      <point x="467" y="4"/>
      <point x="511" y="49" type="curve"/>
      <point x="514" y="59" type="line"/>
      <point x="488" y="39"/>
      <point x="473" y="31"/>
      <point x="456" y="31" type="curve" smooth="yes" name="hr01"/>
      <point x="422" y="31"/>
      <point x="424" y="67"/>
      <point x="434" y="95" type="curve"/>
    </contour>
  </outline>
</glyph>
<glyph name="paragraph" format="1">
  <unicode hex="00B6"/>
  <advance width="543"/>
  <outline>
    <contour>
      <point x="640" y="678" type="line"/>
      <point x="373" y="678" type="line" smooth="yes"/>
      <point x="180" y="678"/>
      <point x="95" y="568"/>
      <point x="95" y="418" type="curve" smooth="yes"/>
      <point x="95" y="340"/>
      <point x="148" y="297"/>
      <point x="254" y="294" type="curve"/>
      <point x="156" y="-87"/>
      <point x="153" y="-88"/>
      <point x="139" y="-92" type="curve"/>
      <point x="127" y="-99"/>
      <point x="110" y="-102"/>
      <point x="62" y="-106" type="curve"/>
      <point x="58" y="-128" type="line"/>
      <point x="210" y="-128" type="line"/>
      <point x="418" y="655" type="line"/>
      <point x="478" y="655" type="line"/>
      <point x="271" y="-128" type="line"/>
      <point x="424" y="-128" type="line"/>
      <point x="429" y="-106" type="line"/>
      <point x="377" y="-101"/>
      <point x="355" y="-98"/>
      <point x="355" y="-78" type="curve" smooth="yes"/>
      <point x="355" y="-65"/>
      <point x="359" y="-46"/>
      <point x="371" y="-12" type="curve"/>
      <point x="532" y="596" type="line" smooth="yes"/>
      <point x="545" y="646"/>
      <point x="555" y="650"/>
      <point x="634" y="655" type="curve"/>
    </contour>
    <contour>
      <point x="265" y="315" type="line"/>
      <point x="197" y="324"/>
      <point x="176" y="368"/>
      <point x="176" y="421" type="curve" smooth="yes"/>
      <point x="176" y="534"/>
      <point x="244" y="648"/>
      <point x="347" y="655" type="curve"/>
    </contour>
  </outline>
</glyph>
<glyph name="periodcentered" format="1">
  <unicode hex="00B7"/>
  <unicode hex="2219"/>
  <advance width="260"/>
  <outline>
    <contour>
      <point x="130" y="322" type="line"/>
      <point x="99" y="322"/>
      <point x="72" y="295"/>
      <point x="72" y="263" type="curve" smooth="yes"/>
      <point x="72" y="233"/>
      <point x="99" y="206"/>
      <point x="129" y="206" type="curve" smooth="yes"/>
      <point x="161" y="206"/>
      <point x="188" y="233"/>
      <point x="188" y="263" type="curve" smooth="yes"/>
      <point x="188" y="295"/>
      <point x="161" y="322"/>
      <point x="130" y="322" type="curve"/>
    </contour>
  </outline>
</glyph>
<glyph name="cedilla" format="1">
  <unicode hex="00B8"/>
  <advance width="345"/>
  <outline>
    <contour>
      <point x="23" y="-100" type="line"/>
      <point x="31" y="-108" type="line"/>
      <point x="46" y="-103"/>
      <point x="55" y="-101"/>
      <point x="64" y="-101" type="curve" smooth="yes"/>
      <point x="92" y="-101"/>
      <point x="112" y="-119"/>
      <point x="112" y="-147" type="curve" smooth="yes"/>
      <point x="112" y="-174"/>
      <point x="92" y="-189"/>
      <point x="58" y="-189" type="curve" smooth="yes"/>
      <point x="35" y="-189"/>
      <point x="18" y="-185"/>
      <point x="-14" y="-174" type="curve"/>
      <point x="-31" y="-203" type="line"/>
      <point x="13" y="-220"/>
      <point x="36" y="-225"/>
      <point x="65" y="-225" type="curve" smooth="yes"/>
      <point x="137" y="-225"/>
      <point x="189" y="-188"/>
      <point x="189" y="-136" type="curve" smooth="yes"/>
      <point x="189" y="-93"/>
      <point x="156" y="-65"/>
      <point x="104" y="-65" type="curve" smooth="yes"/>
      <point x="95" y="-65"/>
      <point x="88" y="-67"/>
      <point x="77" y="-68" type="curve"/>
      <point x="123" y="0" type="line"/>
      <point x="84" y="0" type="line"/>
    </contour>
  </outline>
</glyph>
<glyph name="onesuperior" format="1">
  <unicode hex="00B9"/>
  <advance width="311"/>
  <outline>
    <contour>
      <point x="233" y="288" type="line"/>
      <point x="193" y="289"/>
      <point x="181" y="294"/>
      <point x="181" y="310" type="curve" smooth="yes"/>
      <point x="181" y="319"/>
      <point x="189" y="347"/>
      <point x="201" y="387" type="curve" smooth="yes"/>
      <point x="291" y="671" type="line" smooth="yes"/>
      <point x="294" y="679"/>
      <point x="295" y="685"/>
      <point x="295" y="687" type="curve" smooth="yes"/>
      <point x="295" y="689"/>
      <point x="292" y="693"/>
      <point x="287" y="693" type="curve" smooth="yes"/>
      <point x="272" y="692"/>
      <point x="226" y="682"/>
      <point x="154" y="670" type="curve"/>
      <point x="154" y="650" type="line"/>
      <point x="194" y="651" type="line" smooth="yes"/>
      <point x="201" y="651"/>
      <point x="210" y="641"/>
      <point x="210" y="634" type="curve" smooth="yes"/>
      <point x="210" y="629"/>
      <point x="209" y="624"/>
      <point x="205" y="611" type="curve" smooth="yes"/>
      <point x="112" y="315" type="line" smooth="yes"/>
      <point x="107" y="299"/>
      <point x="93" y="294"/>
      <point x="45" y="288" type="curve"/>
      <point x="45" y="273" type="line"/>
      <point x="233" y="273" type="line"/>
    </contour>
  </outline>
</glyph>
<glyph name="ordmasculine" format="1">
  <unicode hex="00BA"/>
  <advance width="322"/>
  <outline>
    <contour>
      <point x="276" y="693" type="line"/>
      <point x="171" y="693"/>
      <point x="69" y="597"/>
      <point x="69" y="499" type="curve" smooth="yes"/>
      <point x="69" y="447"/>
      <point x="109" y="412"/>
      <point x="171" y="412" type="curve" smooth="yes"/>
      <point x="272" y="412"/>
      <point x="377" y="510"/>
      <point x="377" y="606" type="curve" smooth="yes"/>
      <point x="377" y="656"/>
      <point x="334" y="693"/>
      <point x="276" y="693" type="curve"/>
    </contour>
    <contour>
      <point x="299" y="622" type="line"/>
      <point x="299" y="549"/>
      <point x="249" y="437"/>
      <point x="185" y="437" type="curve" smooth="yes"/>
      <point x="161" y="437"/>
      <point x="146" y="456"/>
      <point x="146" y="486" type="curve" smooth="yes"/>
      <point x="146" y="571"/>
      <point x="209" y="670"/>
      <point x="265" y="670" type="curve" smooth="yes"/>
      <point x="290" y="670"/>
      <point x="299" y="652"/>
      <point x="299" y="622" type="curve"/>
    </contour>
  </outline>
</glyph>
<glyph name="guillemotright" format="1">
  <unicode hex="00BB"/>
  <advance width="519"/>
  <outline>
    <contour>
      <point x="465" y="233" type="line"/>
      <point x="452" y="252"/>
      <point x="324" y="418"/>
      <point x="309" y="418" type="curve" smooth="yes"/>
      <point x="305" y="418"/>
      <point x="301" y="415"/>
      <point x="301" y="412" type="curve" smooth="yes"/>
      <point x="301" y="401"/>
      <point x="329" y="342"/>
      <point x="387" y="232" type="curve"/>
      <point x="293" y="134"/>
      <point x="225" y="75"/>
      <point x="225" y="47" type="curve" smooth="yes"/>
      <point x="225" y="43"/>
      <point x="229" y="39"/>
      <point x="233" y="39" type="curve" smooth="yes"/>
      <point x="256" y="39"/>
      <point x="257" y="63"/>
      <point x="465" y="223" type="curve"/>
    </contour>
    <contour>
      <point x="295" y="233" type="line"/>
      <point x="284" y="252"/>
      <point x="154" y="418"/>
      <point x="142" y="418" type="curve" smooth="yes"/>
      <point x="137" y="418"/>
      <point x="134" y="415"/>
      <point x="134" y="412" type="curve" smooth="yes"/>
      <point x="134" y="401"/>
      <point x="161" y="342"/>
      <point x="219" y="232" type="curve"/>
      <point x="124" y="134"/>
      <point x="58" y="74"/>
      <point x="58" y="47" type="curve" smooth="yes"/>
      <point x="58" y="43"/>
      <point x="60" y="39"/>
      <point x="64" y="39" type="curve" smooth="yes"/>
      <point x="88" y="39"/>
      <point x="89" y="64"/>
      <point x="295" y="223" type="curve"/>
    </contour>
  </outline>
</glyph>
<glyph name="onequarter" format="1">
  <unicode hex="00BC"/>
  <advance width="778"/>
  <outline>
    <contour>
      <point x="739" y="153" type="line"/>
      <point x="682" y="153" type="line"/>
      <point x="765" y="421" type="line"/>
      <point x="727" y="421" type="line"/>
      <point x="445" y="153" type="line"/>
      <point x="431" y="109" type="line" name="hr01"/>
      <point x="606" y="109" type="line"/>
      <point x="573" y="0" type="line" name="hr02"/>
      <point x="639" y="0" type="line"/>
      <point x="669" y="108" type="line"/>
      <point x="731" y="108" type="line"/>
    </contour>
    <contour>
      <point x="678" y="345" type="line"/>
      <point x="616" y="153" type="line"/>
      <point x="482" y="153" type="line"/>
    </contour>
    <contour>
      <point x="674" y="702" type="line"/>
      <point x="621" y="702" type="line"/>
      <point x="149" y="-11" type="line" name="hr03"/>
      <point x="201" y="-11" type="line"/>
    </contour>
    <contour>
      <point x="222" y="288" type="line"/>
      <point x="182" y="289"/>
      <point x="172" y="294"/>
      <point x="172" y="310" type="curve" smooth="yes"/>
      <point x="172" y="319"/>
      <point x="178" y="347"/>
      <point x="281" y="671" type="curve" smooth="yes"/>
      <point x="283" y="677"/>
      <point x="284" y="683"/>
      <point x="284" y="687" type="curve" smooth="yes"/>
      <point x="284" y="690"/>
      <point x="282" y="693"/>
      <point x="279" y="693" type="curve" smooth="yes" name="hr04"/>
      <point x="274" y="693"/>
      <point x="244" y="687"/>
      <point x="216" y="682" type="curve" smooth="yes" name="hr05"/>
      <point x="144" y="670" type="line"/>
      <point x="144" y="650" type="line"/>
      <point x="182" y="651" type="line" smooth="yes"/>
      <point x="192" y="651"/>
      <point x="200" y="642"/>
      <point x="200" y="634" type="curve" smooth="yes"/>
      <point x="200" y="629"/>
      <point x="198" y="624"/>
      <point x="102" y="315" type="curve" smooth="yes"/>
      <point x="97" y="299"/>
      <point x="83" y="294"/>
      <point x="34" y="288" type="curve"/>
      <point x="34" y="273" type="line"/>
      <point x="222" y="273" type="line"/>
    </contour>
  </outline>
</glyph>
<glyph name="onehalf" format="1">
  <unicode hex="00BD"/>
  <advance width="778"/>
  <outline>
    <contour>
      <point x="674" y="702" type="line"/>
      <point x="621" y="702" type="line"/>
      <point x="149" y="-11" type="line"/>
      <point x="201" y="-11" type="line"/>
    </contour>
    <contour>
      <point x="222" y="288" type="line"/>
      <point x="182" y="289"/>
      <point x="172" y="294"/>
      <point x="172" y="310" type="curve" smooth="yes"/>
      <point x="172" y="318"/>
      <point x="178" y="346"/>
      <point x="191" y="387" type="curve" smooth="yes"/>
      <point x="281" y="671" type="line" smooth="yes"/>
      <point x="284" y="682"/>
      <point x="287" y="693"/>
      <point x="279" y="693" type="curve" smooth="yes" name="hr01"/>
      <point x="265" y="693"/>
      <point x="209" y="681"/>
      <point x="144" y="670" type="curve"/>
      <point x="144" y="650" type="line"/>
      <point x="181" y="651" type="line" smooth="yes"/>
      <point x="193" y="651"/>
      <point x="200" y="641"/>
      <point x="200" y="632" type="curve" smooth="yes"/>
      <point x="200" y="634"/>
      <point x="198" y="619"/>
      <point x="195" y="611" type="curve" smooth="yes"/>
      <point x="102" y="315" type="line" smooth="yes"/>
      <point x="97" y="299"/>
      <point x="83" y="294"/>
      <point x="34" y="288" type="curve"/>
      <point x="34" y="273" type="line"/>
      <point x="222" y="273" type="line"/>
    </contour>
    <contour>
      <point x="738" y="90" type="line"/>
      <point x="722" y="62"/>
      <point x="708" y="56"/>
      <point x="670" y="56" type="curve" smooth="yes"/>
      <point x="558" y="56" type="line"/>
      <point x="556" y="60" type="line"/>
      <point x="675" y="175" type="line" smooth="yes"/>
      <point x="766" y="262"/>
      <point x="777" y="280"/>
      <point x="777" y="315" type="curve" smooth="yes"/>
      <point x="777" y="373"/>
      <point x="726" y="421"/>
      <point x="663" y="421" type="curve" smooth="yes"/>
      <point x="607" y="421"/>
      <point x="554" y="396"/>
      <point x="522" y="321" type="curve"/>
      <point x="535" y="312" type="line"/>
      <point x="565" y="352"/>
      <point x="592" y="368"/>
      <point x="630" y="368" type="curve" smooth="yes"/>
      <point x="674" y="368"/>
      <point x="710" y="336"/>
      <point x="710" y="297" type="curve" smooth="yes"/>
      <point x="710" y="265"/>
      <point x="677" y="216"/>
      <point x="614" y="154" type="curve" smooth="yes"/>
      <point x="475" y="19" type="line"/>
      <point x="475" y="0" type="line"/>
      <point x="716" y="0" type="line"/>
      <point x="750" y="82" type="line"/>
    </contour>
  </outline>
</glyph>
<glyph name="threequarters" format="1">
  <unicode hex="00BE"/>
  <advance width="778"/>
  <outline>
    <contour>
      <point x="739" y="153" type="line"/>
      <point x="682" y="153" type="line"/>
      <point x="765" y="421" type="line"/>
      <point x="727" y="421" type="line"/>
      <point x="445" y="153" type="line"/>
      <point x="431" y="109" type="line" name="hr01"/>
      <point x="606" y="109" type="line"/>
      <point x="573" y="0" type="line" name="hr02"/>
      <point x="639" y="0" type="line"/>
      <point x="669" y="108" type="line"/>
      <point x="731" y="108" type="line"/>
    </contour>
    <contour>
      <point x="678" y="345" type="line"/>
      <point x="616" y="153" type="line"/>
      <point x="482" y="153" type="line"/>
    </contour>
    <contour>
      <point x="674" y="702" type="line"/>
      <point x="621" y="702" type="line"/>
      <point x="149" y="-11" type="line" name="hr03"/>
      <point x="201" y="-11" type="line"/>
    </contour>
    <contour>
      <point x="134" y="623" type="line"/>
      <point x="164" y="650"/>
      <point x="182" y="659"/>
      <point x="209" y="659" type="curve" smooth="yes" name="hr04"/>
      <point x="239" y="659"/>
      <point x="262" y="637"/>
      <point x="262" y="606" type="curve" smooth="yes"/>
      <point x="262" y="559"/>
      <point x="212" y="526"/>
      <point x="109" y="508" type="curve"/>
      <point x="109" y="499" type="line" name="hr05"/>
      <point x="186" y="499"/>
      <point x="226" y="468"/>
      <point x="226" y="399" type="curve" smooth="yes"/>
      <point x="226" y="343"/>
      <point x="189" y="301"/>
      <point x="139" y="301" type="curve" smooth="yes"/>
      <point x="124" y="301"/>
      <point x="70" y="339"/>
      <point x="56" y="339" type="curve" smooth="yes" name="hr06"/>
      <point x="38" y="339"/>
      <point x="24" y="325"/>
      <point x="24" y="310" type="curve" smooth="yes"/>
      <point x="24" y="284"/>
      <point x="51" y="270"/>
      <point x="100" y="270" type="curve" smooth="yes"/>
      <point x="211" y="270"/>
      <point x="292" y="336"/>
      <point x="292" y="432" type="curve" smooth="yes"/>
      <point x="292" y="475"/>
      <point x="284" y="494"/>
      <point x="231" y="522" type="curve"/>
      <point x="226" y="523" type="line"/>
      <point x="306" y="551"/>
      <point x="331" y="574"/>
      <point x="331" y="614" type="curve" smooth="yes" name="hr07"/>
      <point x="331" y="658"/>
      <point x="289" y="693"/>
      <point x="233" y="693" type="curve" smooth="yes"/>
      <point x="186" y="693"/>
      <point x="145" y="669"/>
      <point x="123" y="630" type="curve"/>
    </contour>
  </outline>
</glyph>
<glyph name="questiondown" format="1">
  <unicode hex="00BF"/>
  <advance width="519"/>
  <outline>
    <contour>
      <point x="295" y="293" type="line"/>
      <point x="289" y="264" type="line"/>
      <point x="274" y="204"/>
      <point x="242" y="169"/>
      <point x="168" y="107" type="curve"/>
      <point x="49" y="12"/>
      <point x="29" y="-19"/>
      <point x="29" y="-80" type="curve" smooth="yes"/>
      <point x="29" y="-162"/>
      <point x="89" y="-214"/>
      <point x="181" y="-214" type="curve" smooth="yes"/>
      <point x="268" y="-214"/>
      <point x="328" y="-168"/>
      <point x="328" y="-102" type="curve" smooth="yes"/>
      <point x="328" y="-70"/>
      <point x="312" y="-52"/>
      <point x="289" y="-52" type="curve" smooth="yes"/>
      <point x="263" y="-52"/>
      <point x="246" y="-67"/>
      <point x="246" y="-88" type="curve" smooth="yes"/>
      <point x="246" y="-99"/>
      <point x="262" y="-132"/>
      <point x="262" y="-143" type="curve" smooth="yes" name="hr01"/>
      <point x="262" y="-174"/>
      <point x="234" y="-192"/>
      <point x="189" y="-192" type="curve" smooth="yes"/>
      <point x="136" y="-192"/>
      <point x="106" y="-161"/>
      <point x="106" y="-105" type="curve" smooth="yes"/>
      <point x="106" y="-49"/>
      <point x="130" y="-7"/>
      <point x="196" y="67" type="curve" smooth="yes"/>
      <point x="284" y="165"/>
      <point x="293" y="190"/>
      <point x="312" y="292" type="curve"/>
    </contour>
    <contour>
      <point x="326" y="489" type="line"/>
      <point x="296" y="489"/>
      <point x="272" y="463"/>
      <point x="272" y="435" type="curve" smooth="yes"/>
      <point x="272" y="406"/>
      <point x="296" y="380"/>
      <point x="327" y="380" type="curve" smooth="yes"/>
      <point x="357" y="380"/>
      <point x="381" y="405"/>
      <point x="381" y="435" type="curve" smooth="yes"/>
      <point x="381" y="465"/>
      <point x="357" y="489"/>
      <point x="326" y="489" type="curve"/>
    </contour>
  </outline>
</glyph>
<glyph name="Acircumflex" format="1">
  <unicode hex="00C2"/>
  <advance width="635"/>
  <outline>
    <contour>
      <point x="586" y="17" type="line"/>
      <point x="527" y="23"/>
      <point x="520" y="30"/>
      <point x="507" y="106" type="curve" smooth="yes"/>
      <point x="410" y="693" type="line"/>
      <point x="382" y="693" type="line"/>
      <point x="80" y="175" type="line"/>
      <point x="1" y="35"/>
      <point x="-13" y="26"/>
      <point x="-54" y="17" type="curve"/>
      <point x="-54" y="0" type="line"/>
      <point x="142" y="0" type="line"/>
      <point x="142" y="17" type="line"/>
      <point x="88" y="23"/>
      <point x="79" y="27"/>
      <point x="79" y="54" type="curve" smooth="yes"/>
      <point x="79" y="72"/>
      <point x="83" y="82"/>
      <point x="101" y="117" type="curve" smooth="yes"/>
      <point x="160" y="235" type="line"/>
      <point x="388" y="235" type="line"/>
      <point x="410" y="99" type="line" smooth="yes"/>
      <point x="411" y="89"/>
      <point x="412" y="79"/>
      <point x="412" y="71" type="curve" smooth="yes"/>
      <point x="412" y="32"/>
      <point x="397" y="23"/>
      <point x="330" y="17" type="curve"/>
      <point x="330" y="0" type="line"/>
      <point x="586" y="0" type="line"/>
    </contour>
    <contour>
      <point x="181" y="272" type="line"/>
      <point x="337" y="542" type="line"/>
      <point x="383" y="272" type="line"/>
    </contour>
    <contour>
      <point x="458" y="907" type="line"/>
      <point x="407" y="907" type="line"/>
      <point x="244" y="731" type="line"/>
      <point x="285" y="731" type="line"/>
      <point x="426" y="839" type="line"/>
      <point x="512" y="731" type="line"/>
      <point x="549" y="731" type="line"/>
    </contour>
  </outline>
</glyph>
<glyph name="Atilde" format="1">
  <unicode hex="00C3"/>
  <advance width="635"/>
  <outline>
    <contour>
      <point x="586" y="17" type="line"/>
      <point x="527" y="23"/>
      <point x="520" y="30"/>
      <point x="507" y="106" type="curve" smooth="yes"/>
      <point x="410" y="693" type="line"/>
      <point x="382" y="693" type="line"/>
      <point x="80" y="175" type="line"/>
      <point x="1" y="35"/>
      <point x="-13" y="26"/>
      <point x="-54" y="17" type="curve"/>
      <point x="-54" y="0" type="line"/>
      <point x="142" y="0" type="line"/>
      <point x="142" y="17" type="line"/>
      <point x="88" y="23"/>
      <point x="79" y="27"/>
      <point x="79" y="54" type="curve" smooth="yes"/>
      <point x="79" y="72"/>
      <point x="83" y="82"/>
      <point x="101" y="117" type="curve" smooth="yes"/>
      <point x="160" y="235" type="line"/>
      <point x="388" y="235" type="line"/>
      <point x="410" y="99" type="line" smooth="yes"/>
      <point x="411" y="89"/>
      <point x="412" y="79"/>
      <point x="412" y="71" type="curve" smooth="yes"/>
      <point x="412" y="32"/>
      <point x="397" y="23"/>
      <point x="330" y="17" type="curve"/>
      <point x="330" y="0" type="line"/>
      <point x="586" y="0" type="line"/>
    </contour>
    <contour>
      <point x="181" y="272" type="line"/>
      <point x="337" y="542" type="line"/>
      <point x="383" y="272" type="line"/>
    </contour>
    <contour>
      <point x="558" y="868" type="line"/>
      <point x="547" y="834"/>
      <point x="533" y="822"/>
      <point x="506" y="822" type="curve" smooth="yes"/>
      <point x="480" y="822"/>
      <point x="384" y="867"/>
      <point x="352" y="867" type="curve" smooth="yes" name="hr01"/>
      <point x="297" y="867"/>
      <point x="269" y="837"/>
      <point x="248" y="757" type="curve"/>
      <point x="279" y="757" type="line"/>
      <point x="289" y="790"/>
      <point x="305" y="806"/>
      <point x="331" y="806" type="curve" smooth="yes"/>
      <point x="339" y="806"/>
      <point x="449" y="761"/>
      <point x="489" y="761" type="curve" smooth="yes" name="hr02"/>
      <point x="539" y="761"/>
      <point x="573" y="798"/>
      <point x="588" y="868" type="curve"/>
    </contour>
  </outline>
</glyph>
<glyph name="Adieresis" format="1">
  <unicode hex="00C4"/>
  <advance width="635"/>
  <outline>
    <contour>
      <point x="586" y="17" type="line"/>
      <point x="527" y="23"/>
      <point x="520" y="30"/>
      <point x="507" y="106" type="curve" smooth="yes"/>
      <point x="410" y="693" type="line"/>
      <point x="382" y="693" type="line"/>
      <point x="80" y="175" type="line"/>
      <point x="1" y="35"/>
      <point x="-13" y="26"/>
      <point x="-54" y="17" type="curve"/>
      <point x="-54" y="0" type="line"/>
      <point x="142" y="0" type="line"/>
      <point x="142" y="17" type="line"/>
      <point x="88" y="23"/>
      <point x="79" y="27"/>
      <point x="79" y="54" type="curve" smooth="yes"/>
      <point x="79" y="72"/>
      <point x="83" y="82"/>
      <point x="101" y="117" type="curve" smooth="yes"/>
      <point x="160" y="235" type="line"/>
      <point x="388" y="235" type="line"/>
      <point x="410" y="99" type="line" smooth="yes"/>
      <point x="411" y="89"/>
      <point x="412" y="79"/>
      <point x="412" y="71" type="curve" smooth="yes"/>
      <point x="412" y="32"/>
      <point x="397" y="23"/>
      <point x="330" y="17" type="curve"/>
      <point x="330" y="0" type="line"/>
      <point x="586" y="0" type="line"/>
    </contour>
    <contour>
      <point x="181" y="272" type="line"/>
      <point x="337" y="542" type="line"/>
      <point x="383" y="272" type="line"/>
    </contour>
    <contour>
      <point x="307" y="850" type="line"/>
      <point x="279" y="850"/>
      <point x="255" y="826"/>
      <point x="255" y="799" type="curve" smooth="yes"/>
      <point x="255" y="770"/>
      <point x="279" y="748"/>
      <point x="306" y="748" type="curve" smooth="yes"/>
      <point x="334" y="748"/>
      <point x="357" y="770"/>
      <point x="357" y="798" type="curve" smooth="yes"/>
      <point x="357" y="824"/>
      <point x="333" y="850"/>
      <point x="307" y="850" type="curve"/>
    </contour>
    <contour>
      <point x="515" y="850" type="line"/>
      <point x="486" y="850"/>
      <point x="463" y="826"/>
      <point x="463" y="799" type="curve" smooth="yes" name="hr01"/>
      <point x="463" y="770"/>
      <point x="486" y="748"/>
      <point x="514" y="748" type="curve" smooth="yes"/>
      <point x="542" y="748"/>
      <point x="564" y="770"/>
      <point x="564" y="798" type="curve" smooth="yes"/>
      <point x="564" y="824"/>
      <point x="541" y="850"/>
      <point x="515" y="850" type="curve"/>
    </contour>
  </outline>
</glyph>
<glyph name="Aring" format="1">
  <unicode hex="00C5"/>
  <advance width="635"/>
  <outline>
    <contour>
      <point x="586" y="17" type="line"/>
      <point x="527" y="23"/>
      <point x="520" y="30"/>
      <point x="507" y="106" type="curve" smooth="yes"/>
      <point x="410" y="693" type="line"/>
      <point x="382" y="693" type="line"/>
      <point x="80" y="175" type="line"/>
      <point x="1" y="35"/>
      <point x="-13" y="26"/>
      <point x="-54" y="17" type="curve"/>
      <point x="-54" y="0" type="line"/>
      <point x="142" y="0" type="line"/>
      <point x="142" y="17" type="line"/>
      <point x="88" y="23"/>
      <point x="79" y="27"/>
      <point x="79" y="54" type="curve" smooth="yes"/>
      <point x="79" y="72"/>
      <point x="83" y="82"/>
      <point x="101" y="117" type="curve" smooth="yes"/>
      <point x="160" y="235" type="line"/>
      <point x="388" y="235" type="line"/>
      <point x="410" y="99" type="line" smooth="yes"/>
      <point x="411" y="89"/>
      <point x="412" y="79"/>
      <point x="412" y="71" type="curve" smooth="yes"/>
      <point x="412" y="32"/>
      <point x="397" y="23"/>
      <point x="330" y="17" type="curve"/>
      <point x="330" y="0" type="line"/>
      <point x="586" y="0" type="line"/>
    </contour>
    <contour>
      <point x="181" y="272" type="line"/>
      <point x="337" y="542" type="line"/>
      <point x="383" y="272" type="line"/>
    </contour>
    <contour>
      <point x="403" y="934" type="line"/>
      <point x="347" y="934"/>
      <point x="299" y="886"/>
      <point x="299" y="831" type="curve" smooth="yes"/>
      <point x="299" y="772"/>
      <point x="345" y="727"/>
      <point x="404" y="727" type="curve" smooth="yes"/>
      <point x="461" y="727"/>
      <point x="508" y="773"/>
      <point x="508" y="830" type="curve" smooth="yes"/>
      <point x="508" y="886"/>
      <point x="460" y="934"/>
      <point x="403" y="934" type="curve"/>
    </contour>
    <contour>
      <point x="403" y="898" type="line"/>
      <point x="441" y="898"/>
      <point x="472" y="867"/>
      <point x="472" y="830" type="curve" smooth="yes"/>
      <point x="472" y="791"/>
      <point x="442" y="763"/>
      <point x="403" y="763" type="curve" smooth="yes"/>
      <point x="366" y="763"/>
      <point x="335" y="792"/>
      <point x="335" y="831" type="curve" smooth="yes"/>
      <point x="335" y="867"/>
      <point x="367" y="898"/>
      <point x="403" y="898" type="curve"/>
    </contour>
  </outline>
</glyph>
<glyph name="Ccedilla" format="1">
  <unicode hex="00C7"/>
  <advance width="692"/>
  <outline>
    <contour>
      <point x="289" y="-15" type="line"/>
      <point x="306" y="-18"/>
      <point x="323" y="-19"/>
      <point x="339" y="-19" type="curve" smooth="yes"/>
      <point x="446" y="-19"/>
      <point x="530" y="27"/>
      <point x="623" y="136" type="curve"/>
      <point x="605" y="151" type="line"/>
      <point x="512" y="59"/>
      <point x="452" y="28"/>
      <point x="367" y="28" type="curve" smooth="yes"/>
      <point x="251" y="28"/>
      <point x="185" y="107"/>
      <point x="185" y="241" type="curve" smooth="yes"/>
      <point x="185" y="436"/>
      <point x="309" y="653"/>
      <point x="500" y="653" type="curve" smooth="yes"/>
      <point x="595" y="653"/>
      <point x="648" y="598"/>
      <point x="658" y="486" type="curve"/>
      <point x="677" y="483" type="line"/>
      <point x="716" y="689" type="line" name="hr01"/>
      <point x="693" y="689" type="line"/>
      <point x="686" y="673"/>
      <point x="675" y="666"/>
      <point x="653" y="666" type="curve" smooth="yes"/>
      <point x="622" y="666"/>
      <point x="529" y="691"/>
      <point x="490" y="691" type="curve" smooth="yes" name="hr02"/>
      <point x="269" y="691"/>
      <point x="68" y="483"/>
      <point x="68" y="252" type="curve" smooth="yes"/>
      <point x="68" y="127"/>
      <point x="141" y="27"/>
      <point x="253" y="-6" type="curve"/>
      <point x="195" y="-100" type="line"/>
      <point x="204" y="-108" type="line"/>
      <point x="219" y="-103"/>
      <point x="227" y="-101"/>
      <point x="238" y="-101" type="curve" smooth="yes"/>
      <point x="266" y="-101"/>
      <point x="286" y="-119"/>
      <point x="286" y="-147" type="curve" smooth="yes"/>
      <point x="286" y="-174"/>
      <point x="266" y="-189"/>
      <point x="231" y="-189" type="curve" smooth="yes"/>
      <point x="208" y="-189"/>
      <point x="190" y="-185"/>
      <point x="160" y="-174" type="curve"/>
      <point x="143" y="-203" type="line"/>
      <point x="186" y="-220"/>
      <point x="209" y="-225"/>
      <point x="239" y="-225" type="curve" smooth="yes"/>
      <point x="310" y="-225"/>
      <point x="363" y="-188"/>
      <point x="363" y="-136" type="curve" smooth="yes"/>
      <point x="363" y="-93"/>
      <point x="329" y="-65"/>
      <point x="278" y="-65" type="curve" smooth="yes"/>
      <point x="269" y="-65"/>
      <point x="262" y="-67"/>
      <point x="251" y="-68" type="curve"/>
    </contour>
  </outline>
</glyph>
<glyph name="Edieresis" format="1">
  <unicode hex="00CB"/>
  <advance width="635"/>
  <outline>
    <contour>
      <point x="658" y="678" type="line"/>
      <point x="143" y="678" type="line"/>
      <point x="143" y="661" type="line"/>
      <point x="206" y="654"/>
      <point x="222" y="647"/>
      <point x="222" y="619" type="curve" smooth="yes"/>
      <point x="222" y="607"/>
      <point x="216" y="571"/>
      <point x="210" y="552" type="curve"/>
      <point x="83" y="93" type="line"/>
      <point x="65" y="34"/>
      <point x="58" y="27"/>
      <point x="-1" y="17" type="curve"/>
      <point x="-1" y="0" type="line"/>
      <point x="526" y="0" type="line"/>
      <point x="590" y="168" type="line"/>
      <point x="573" y="177" type="line"/>
      <point x="481" y="55"/>
      <point x="436" y="34"/>
      <point x="266" y="34" type="curve" smooth="yes"/>
      <point x="207" y="34"/>
      <point x="182" y="45"/>
      <point x="182" y="69" type="curve" smooth="yes"/>
      <point x="182" y="76"/>
      <point x="220" y="203"/>
      <point x="253" y="340" type="curve"/>
      <point x="290" y="338"/>
      <point x="322" y="337"/>
      <point x="343" y="337" type="curve" smooth="yes"/>
      <point x="402" y="337"/>
      <point x="422" y="331"/>
      <point x="422" y="290" type="curve" smooth="yes"/>
      <point x="422" y="272"/>
      <point x="421" y="259"/>
      <point x="415" y="236" type="curve"/>
      <point x="436" y="231" type="line"/>
      <point x="507" y="471" type="line"/>
      <point x="488" y="475" type="line"/>
      <point x="440" y="368"/>
      <point x="436" y="380"/>
      <point x="263" y="375" type="curve"/>
      <point x="331" y="617" type="line" smooth="yes"/>
      <point x="337" y="640"/>
      <point x="349" y="644"/>
      <point x="408" y="644" type="curve" smooth="yes"/>
      <point x="570" y="644"/>
      <point x="606" y="631"/>
      <point x="606" y="568" type="curve" smooth="yes"/>
      <point x="606" y="554"/>
      <point x="605" y="539"/>
      <point x="604" y="521" type="curve"/>
      <point x="626" y="519" type="line"/>
    </contour>
    <contour>
      <point x="329" y="850" type="line"/>
      <point x="299" y="850"/>
      <point x="278" y="826"/>
      <point x="278" y="799" type="curve" smooth="yes"/>
      <point x="278" y="770"/>
      <point x="299" y="748"/>
      <point x="328" y="748" type="curve" smooth="yes"/>
      <point x="356" y="748"/>
      <point x="379" y="770"/>
      <point x="379" y="798" type="curve" smooth="yes"/>
      <point x="379" y="824"/>
      <point x="355" y="850"/>
      <point x="329" y="850" type="curve"/>
    </contour>
    <contour>
      <point x="536" y="850" type="line"/>
      <point x="508" y="850"/>
      <point x="485" y="826"/>
      <point x="485" y="799" type="curve" smooth="yes"/>
      <point x="485" y="770"/>
      <point x="508" y="748"/>
      <point x="535" y="748" type="curve" smooth="yes"/>
      <point x="563" y="748"/>
      <point x="587" y="770"/>
      <point x="587" y="798" type="curve" smooth="yes"/>
      <point x="587" y="824"/>
      <point x="562" y="850"/>
      <point x="536" y="850" type="curve"/>
    </contour>
  </outline>
</glyph>
<glyph name="Igrave" format="1">
  <unicode hex="00CC"/>
  <advance width="345"/>
  <outline>
    <contour>
      <point x="-9" y="0" type="line"/>
      <point x="245" y="0" type="line"/>
      <point x="245" y="17" type="line"/>
      <point x="186" y="24"/>
      <point x="175" y="30"/>
      <point x="175" y="59" type="curve" smooth="yes"/>
      <point x="175" y="78"/>
      <point x="177" y="91"/>
      <point x="186" y="124" type="curve" smooth="yes"/>
      <point x="313" y="585" type="line"/>
      <point x="329" y="646"/>
      <point x="341" y="649"/>
      <point x="399" y="661" type="curve"/>
      <point x="399" y="678" type="line"/>
      <point x="143" y="678" type="line"/>
      <point x="143" y="661" type="line"/>
      <point x="202" y="653"/>
      <point x="215" y="646"/>
      <point x="215" y="617" type="curve" smooth="yes"/>
      <point x="215" y="602"/>
      <point x="210" y="578"/>
      <point x="203" y="552" type="curve" smooth="yes"/>
      <point x="75" y="93" type="line"/>
      <point x="60" y="32"/>
      <point x="48" y="28"/>
      <point x="-9" y="17" type="curve"/>
    </contour>
    <contour>
      <point x="333" y="731" type="line"/>
      <point x="366" y="731" type="line"/>
      <point x="245" y="885" type="line" smooth="yes"/>
      <point x="232" y="902"/>
      <point x="220" y="909"/>
      <point x="204" y="909" type="curve" smooth="yes"/>
      <point x="183" y="909"/>
      <point x="168" y="894"/>
      <point x="168" y="874" type="curve" smooth="yes"/>
      <point x="168" y="862"/>
      <point x="175" y="852"/>
      <point x="188" y="841" type="curve"/>
    </contour>
  </outline>
</glyph>
<glyph name="Iacute" format="1">
  <unicode hex="00CD"/>
  <advance width="345"/>
  <outline>
    <contour>
      <point x="-9" y="0" type="line"/>
      <point x="245" y="0" type="line"/>
      <point x="245" y="17" type="line"/>
      <point x="186" y="24"/>
      <point x="175" y="30"/>
      <point x="175" y="59" type="curve" smooth="yes"/>
      <point x="175" y="78"/>
      <point x="177" y="91"/>
      <point x="186" y="124" type="curve" smooth="yes"/>
      <point x="313" y="585" type="line"/>
      <point x="329" y="646"/>
      <point x="341" y="649"/>
      <point x="399" y="661" type="curve"/>
      <point x="399" y="678" type="line"/>
      <point x="143" y="678" type="line"/>
      <point x="143" y="661" type="line"/>
      <point x="202" y="653"/>
      <point x="215" y="646"/>
      <point x="215" y="617" type="curve" smooth="yes"/>
      <point x="215" y="602"/>
      <point x="210" y="578"/>
      <point x="203" y="552" type="curve" smooth="yes"/>
      <point x="75" y="93" type="line"/>
      <point x="60" y="32"/>
      <point x="48" y="28"/>
      <point x="-9" y="17" type="curve"/>
    </contour>
    <contour>
      <point x="187" y="731" type="line"/>
      <point x="223" y="731" type="line"/>
      <point x="401" y="841" type="line" smooth="yes"/>
      <point x="413" y="849"/>
      <point x="418" y="858"/>
      <point x="418" y="870" type="curve" smooth="yes"/>
      <point x="418" y="891"/>
      <point x="402" y="907"/>
      <point x="381" y="907" type="curve" smooth="yes"/>
      <point x="371" y="907"/>
      <point x="363" y="903"/>
      <point x="355" y="897" type="curve"/>
    </contour>
  </outline>
</glyph>
<glyph name="Eth" format="1">
  <unicode hex="00D0"/>
  <advance width="750"/>
  <outline>
    <contour>
      <point x="50" y="338" type="line"/>
      <point x="144" y="338" type="line"/>
      <point x="75" y="93" type="line"/>
      <point x="61" y="32"/>
      <point x="48" y="28"/>
      <point x="-9" y="17" type="curve"/>
      <point x="-9" y="0" type="line"/>
      <point x="254" y="0" type="line" smooth="yes"/>
      <point x="541" y="0"/>
      <point x="727" y="179"/>
      <point x="727" y="399" type="curve" smooth="yes"/>
      <point x="727" y="569"/>
      <point x="608" y="678"/>
      <point x="423" y="678" type="curve" smooth="yes"/>
      <point x="135" y="678" type="line"/>
      <point x="135" y="661" type="line"/>
      <point x="200" y="654"/>
      <point x="215" y="647"/>
      <point x="215" y="619" type="curve" smooth="yes"/>
      <point x="215" y="602"/>
      <point x="210" y="577"/>
      <point x="203" y="552" type="curve" smooth="yes"/>
      <point x="156" y="382" type="line"/>
      <point x="62" y="382" type="line"/>
    </contour>
    <contour>
      <point x="418" y="382" type="line"/>
      <point x="260" y="382" type="line"/>
      <point x="325" y="617" type="line" smooth="yes"/>
      <point x="331" y="640"/>
      <point x="348" y="647"/>
      <point x="392" y="647" type="curve" smooth="yes"/>
      <point x="535" y="647"/>
      <point x="611" y="565"/>
      <point x="611" y="423" type="curve" smooth="yes"/>
      <point x="611" y="205"/>
      <point x="480" y="31"/>
      <point x="244" y="31" type="curve" smooth="yes"/>
      <point x="196" y="31"/>
      <point x="177" y="43"/>
      <point x="177" y="69" type="curve" smooth="yes"/>
      <point x="177" y="71" type="line" smooth="yes"/>
      <point x="177" y="85"/>
      <point x="186" y="113"/>
      <point x="198" y="168" type="curve"/>
      <point x="247" y="338" type="line"/>
      <point x="407" y="338" type="line"/>
    </contour>
  </outline>
</glyph>
<glyph name="Ntilde" format="1">
  <unicode hex="00D1"/>
  <advance width="692"/>
  <outline>
    <contour>
      <point x="755" y="678" type="line"/>
      <point x="548" y="678" type="line"/>
      <point x="548" y="661" type="line"/>
      <point x="607" y="655"/>
      <point x="621" y="646"/>
      <point x="621" y="608" type="curve" smooth="yes"/>
      <point x="621" y="595"/>
      <point x="609" y="579"/>
      <point x="609" y="554" type="curve"/>
      <point x="504" y="160" type="line"/>
      <point x="289" y="678" type="line"/>
      <point x="120" y="678" type="line"/>
      <point x="120" y="661" type="line"/>
      <point x="169" y="657"/>
      <point x="191" y="644"/>
      <point x="209" y="603" type="curve"/>
      <point x="86" y="171" type="line"/>
      <point x="49" y="38"/>
      <point x="38" y="25"/>
      <point x="-21" y="17" type="curve"/>
      <point x="-21" y="0" type="line"/>
      <point x="185" y="0" type="line"/>
      <point x="185" y="17" type="line"/>
      <point x="132" y="21"/>
      <point x="112" y="32"/>
      <point x="112" y="61" type="curve" smooth="yes"/>
      <point x="112" y="74"/>
      <point x="115" y="95"/>
      <point x="121" y="117" type="curve" smooth="yes"/>
      <point x="240" y="555" type="line"/>
      <point x="478" y="-16" type="line" name="hr01"/>
      <point x="498" y="-16" type="line"/>
      <point x="647" y="507" type="line"/>
      <point x="686" y="641"/>
      <point x="689" y="647"/>
      <point x="755" y="661" type="curve"/>
    </contour>
    <contour>
      <point x="609" y="868" type="line"/>
      <point x="598" y="834"/>
      <point x="585" y="822"/>
      <point x="556" y="822" type="curve" smooth="yes"/>
      <point x="530" y="822"/>
      <point x="433" y="867"/>
      <point x="403" y="867" type="curve" smooth="yes" name="hr02"/>
      <point x="349" y="867"/>
      <point x="320" y="837"/>
      <point x="298" y="757" type="curve"/>
      <point x="329" y="757" type="line"/>
      <point x="339" y="790"/>
      <point x="356" y="806"/>
      <point x="382" y="806" type="curve" smooth="yes"/>
      <point x="390" y="806"/>
      <point x="500" y="761"/>
      <point x="540" y="761" type="curve" smooth="yes" name="hr03"/>
      <point x="590" y="761"/>
      <point x="624" y="798"/>
      <point x="639" y="868" type="curve"/>
    </contour>
  </outline>
</glyph>
<glyph name="Ograve" format="1">
  <unicode hex="00D2"/>
  <advance width="750"/>
  <outline>
    <contour>
      <point x="492" y="691" type="line"/>
      <point x="279" y="691"/>
      <point x="62" y="443"/>
      <point x="62" y="230" type="curve" smooth="yes"/>
      <point x="62" y="84"/>
      <point x="157" y="-19"/>
      <point x="289" y="-19" type="curve" smooth="yes"/>
      <point x="505" y="-19"/>
      <point x="714" y="198"/>
      <point x="726" y="433" type="curve"/>
      <point x="729" y="587"/>
      <point x="631" y="689"/>
      <point x="492" y="691" type="curve"/>
    </contour>
    <contour>
      <point x="483" y="657" type="line"/>
      <point x="564" y="657"/>
      <point x="617" y="598"/>
      <point x="617" y="500" type="curve" smooth="yes"/>
      <point x="617" y="289"/>
      <point x="475" y="16"/>
      <point x="306" y="16" type="curve" smooth="yes"/>
      <point x="219" y="16"/>
      <point x="172" y="78"/>
      <point x="172" y="191" type="curve" smooth="yes"/>
      <point x="172" y="390"/>
      <point x="316" y="657"/>
      <point x="483" y="657" type="curve"/>
    </contour>
    <contour>
      <point x="523" y="731" type="line"/>
      <point x="555" y="731" type="line"/>
      <point x="434" y="885" type="line" smooth="yes"/>
      <point x="421" y="902"/>
      <point x="411" y="909"/>
      <point x="395" y="909" type="curve" smooth="yes"/>
      <point x="374" y="909"/>
      <point x="358" y="894"/>
      <point x="358" y="874" type="curve" smooth="yes"/>
      <point x="358" y="862"/>
      <point x="365" y="852"/>
      <point x="378" y="841" type="curve"/>
    </contour>
  </outline>
</glyph>
<glyph name="Oacute" format="1">
  <unicode hex="00D3"/>
  <advance width="750"/>
  <outline>
    <contour>
      <point x="492" y="691" type="line"/>
      <point x="279" y="691"/>
      <point x="62" y="443"/>
      <point x="62" y="230" type="curve" smooth="yes"/>
      <point x="62" y="84"/>
      <point x="157" y="-19"/>
      <point x="289" y="-19" type="curve" smooth="yes"/>
      <point x="505" y="-19"/>
      <point x="714" y="198"/>
      <point x="726" y="433" type="curve"/>
      <point x="728" y="589"/>
      <point x="629" y="690"/>
      <point x="492" y="691" type="curve"/>
    </contour>
    <contour>
      <point x="483" y="657" type="line"/>
      <point x="564" y="657"/>
      <point x="617" y="598"/>
      <point x="617" y="500" type="curve" smooth="yes"/>
      <point x="617" y="289"/>
      <point x="475" y="16"/>
      <point x="306" y="16" type="curve" smooth="yes"/>
      <point x="219" y="16"/>
      <point x="172" y="78"/>
      <point x="172" y="191" type="curve" smooth="yes"/>
      <point x="172" y="390"/>
      <point x="316" y="657"/>
      <point x="483" y="657" type="curve"/>
    </contour>
    <contour>
      <point x="404" y="731" type="line"/>
      <point x="440" y="731" type="line"/>
      <point x="618" y="841" type="line" smooth="yes"/>
      <point x="631" y="849"/>
      <point x="636" y="858"/>
      <point x="636" y="870" type="curve" smooth="yes"/>
      <point x="636" y="891"/>
      <point x="619" y="907"/>
      <point x="598" y="907" type="curve" smooth="yes" name="hr01"/>
      <point x="588" y="907"/>
      <point x="579" y="903"/>
      <point x="572" y="897" type="curve" smooth="yes"/>
    </contour>
  </outline>
</glyph>
<glyph name="Ocircumflex" format="1">
  <unicode hex="00D4"/>
  <advance width="750"/>
  <outline>
    <contour>
      <point x="492" y="691" type="line"/>
      <point x="279" y="691"/>
      <point x="62" y="443"/>
      <point x="62" y="230" type="curve" smooth="yes"/>
      <point x="62" y="84"/>
      <point x="157" y="-19"/>
      <point x="289" y="-19" type="curve" smooth="yes"/>
      <point x="505" y="-19"/>
      <point x="714" y="198"/>
      <point x="726" y="433" type="curve"/>
      <point x="729" y="587"/>
      <point x="630" y="691"/>
      <point x="492" y="691" type="curve"/>
    </contour>
    <contour>
      <point x="483" y="657" type="line"/>
      <point x="564" y="657"/>
      <point x="617" y="598"/>
      <point x="617" y="500" type="curve" smooth="yes"/>
      <point x="617" y="289"/>
      <point x="475" y="16"/>
      <point x="306" y="16" type="curve" smooth="yes"/>
      <point x="219" y="16"/>
      <point x="172" y="78"/>
      <point x="172" y="191" type="curve" smooth="yes"/>
      <point x="172" y="390"/>
      <point x="316" y="657"/>
      <point x="483" y="657" type="curve"/>
    </contour>
    <contour>
      <point x="537" y="907" type="line"/>
      <point x="487" y="907" type="line"/>
      <point x="324" y="731" type="line" name="hr01"/>
      <point x="365" y="731" type="line"/>
      <point x="507" y="839" type="line"/>
      <point x="592" y="731" type="line"/>
      <point x="630" y="731" type="line"/>
    </contour>
  </outline>
</glyph>
<glyph name="Otilde" format="1">
  <unicode hex="00D5"/>
  <advance width="750"/>
  <outline>
    <contour>
      <point x="492" y="691" type="line"/>
      <point x="279" y="691"/>
      <point x="62" y="443"/>
      <point x="62" y="230" type="curve" smooth="yes"/>
      <point x="62" y="84"/>
      <point x="157" y="-19"/>
      <point x="289" y="-19" type="curve" smooth="yes"/>
      <point x="505" y="-19"/>
      <point x="714" y="198"/>
      <point x="726" y="433" type="curve"/>
      <point x="727" y="588"/>
      <point x="629" y="692"/>
      <point x="492" y="691" type="curve"/>
    </contour>
    <contour>
      <point x="483" y="657" type="line"/>
      <point x="564" y="657"/>
      <point x="617" y="598"/>
      <point x="617" y="500" type="curve" smooth="yes"/>
      <point x="617" y="289"/>
      <point x="475" y="16"/>
      <point x="306" y="16" type="curve" smooth="yes"/>
      <point x="219" y="16"/>
      <point x="172" y="78"/>
      <point x="172" y="191" type="curve" smooth="yes"/>
      <point x="172" y="390"/>
      <point x="316" y="657"/>
      <point x="483" y="657" type="curve"/>
    </contour>
    <contour>
      <point x="628" y="868" type="line"/>
      <point x="616" y="834"/>
      <point x="602" y="822"/>
      <point x="574" y="822" type="curve" smooth="yes"/>
      <point x="547" y="822"/>
      <point x="449" y="867"/>
      <point x="421" y="867" type="curve" smooth="yes" name="hr01"/>
      <point x="367" y="867"/>
      <point x="337" y="837"/>
      <point x="316" y="757" type="curve"/>
      <point x="347" y="757" type="line"/>
      <point x="357" y="790"/>
      <point x="374" y="806"/>
      <point x="400" y="806" type="curve" smooth="yes"/>
      <point x="410" y="806"/>
      <point x="513" y="761"/>
      <point x="557" y="761" type="curve" smooth="yes" name="hr02"/>
      <point x="607" y="761"/>
      <point x="643" y="798"/>
      <point x="655" y="868" type="curve"/>
    </contour>
  </outline>
</glyph>
<glyph name="Odieresis" format="1">
  <unicode hex="00D6"/>
  <advance width="750"/>
  <outline>
    <contour>
      <point x="492" y="691" type="line"/>
      <point x="279" y="691"/>
      <point x="62" y="443"/>
      <point x="62" y="230" type="curve" smooth="yes"/>
      <point x="62" y="84"/>
      <point x="157" y="-19"/>
      <point x="289" y="-19" type="curve" smooth="yes"/>
      <point x="505" y="-19"/>
      <point x="714" y="198"/>
      <point x="726" y="433" type="curve"/>
      <point x="727" y="588"/>
      <point x="629" y="692"/>
      <point x="492" y="691" type="curve"/>
    </contour>
    <contour>
      <point x="483" y="657" type="line"/>
      <point x="564" y="657"/>
      <point x="617" y="598"/>
      <point x="617" y="500" type="curve" smooth="yes"/>
      <point x="617" y="289"/>
      <point x="475" y="16"/>
      <point x="306" y="16" type="curve" smooth="yes"/>
      <point x="219" y="16"/>
      <point x="172" y="78"/>
      <point x="172" y="191" type="curve" smooth="yes"/>
      <point x="172" y="390"/>
      <point x="316" y="657"/>
      <point x="483" y="657" type="curve"/>
    </contour>
    <contour>
      <point x="388" y="850" type="line"/>
      <point x="359" y="850"/>
      <point x="336" y="826"/>
      <point x="336" y="799" type="curve" smooth="yes"/>
      <point x="336" y="770"/>
      <point x="359" y="748"/>
      <point x="387" y="748" type="curve" smooth="yes"/>
      <point x="415" y="748"/>
      <point x="438" y="770"/>
      <point x="438" y="798" type="curve" smooth="yes"/>
      <point x="438" y="824"/>
      <point x="414" y="850"/>
      <point x="388" y="850" type="curve"/>
    </contour>
    <contour>
      <point x="596" y="850" type="line"/>
      <point x="566" y="850"/>
      <point x="544" y="826"/>
      <point x="544" y="799" type="curve" smooth="yes" name="hr01"/>
      <point x="544" y="770"/>
      <point x="566" y="748"/>
      <point x="595" y="748" type="curve" smooth="yes"/>
      <point x="623" y="748"/>
      <point x="646" y="770"/>
      <point x="646" y="798" type="curve" smooth="yes"/>
      <point x="646" y="824"/>
      <point x="622" y="850"/>
      <point x="596" y="850" type="curve"/>
    </contour>
  </outline>
</glyph>
<glyph name="multiply" format="1">
  <unicode hex="00D7"/>
  <advance width="701"/>
  <outline>
    <contour>
      <point x="139" y="429" type="line"/>
      <point x="303" y="265" type="line"/>
      <point x="139" y="102" type="line"/>
      <point x="186" y="54" type="line"/>
      <point x="350" y="218" type="line"/>
      <point x="512" y="54" type="line"/>
      <point x="561" y="102" type="line"/>
      <point x="397" y="265" type="line"/>
      <point x="561" y="429" type="line"/>
      <point x="512" y="476" type="line"/>
      <point x="350" y="312" type="line"/>
      <point x="186" y="476" type="line"/>
    </contour>
  </outline>
</glyph>
<glyph name="Oslash" format="1">
  <unicode hex="00D8"/>
  <advance width="750"/>
  <outline>
    <contour>
      <point x="694" y="750" type="line"/>
      <point x="649" y="750" type="line"/>
      <point x="595" y="668" type="line"/>
      <point x="556" y="686"/>
      <point x="525" y="691"/>
      <point x="486" y="691" type="curve" smooth="yes"/>
      <point x="284" y="691"/>
      <point x="62" y="444"/>
      <point x="62" y="231" type="curve" smooth="yes"/>
      <point x="62" y="137"/>
      <point x="92" y="72"/>
      <point x="161" y="23" type="curve"/>
      <point x="71" y="-109" type="line"/>
      <point x="117" y="-109" type="line"/>
      <point x="194" y="3" type="line"/>
      <point x="234" y="-13"/>
      <point x="260" y="-19"/>
      <point x="292" y="-19" type="curve" smooth="yes"/>
      <point x="510" y="-19"/>
      <point x="726" y="212"/>
      <point x="726" y="447" type="curve" smooth="yes"/>
      <point x="726" y="529"/>
      <point x="699" y="593"/>
      <point x="629" y="649" type="curve"/>
    </contour>
    <contour>
      <point x="197" y="76" type="line"/>
      <point x="178" y="112"/>
      <point x="172" y="144"/>
      <point x="172" y="182" type="curve" smooth="yes"/>
      <point x="172" y="388"/>
      <point x="315" y="657"/>
      <point x="482" y="657" type="curve" smooth="yes"/>
      <point x="516" y="657"/>
      <point x="541" y="649"/>
      <point x="566" y="631" type="curve"/>
    </contour>
    <contour>
      <point x="592" y="596" type="line"/>
      <point x="608" y="565"/>
      <point x="617" y="533"/>
      <point x="617" y="493" type="curve" smooth="yes"/>
      <point x="617" y="282"/>
      <point x="474" y="16"/>
      <point x="306" y="16" type="curve" smooth="yes"/>
      <point x="271" y="16"/>
      <point x="246" y="24"/>
      <point x="223" y="46" type="curve"/>
    </contour>
  </outline>
</glyph>
<glyph name="Ugrave" format="1">
  <unicode hex="00D9"/>
  <advance width="750"/>
  <outline>
    <contour>
      <point x="794" y="678" type="line"/>
      <point x="588" y="678" type="line"/>
      <point x="588" y="661" type="line"/>
      <point x="645" y="655"/>
      <point x="661" y="643"/>
      <point x="661" y="614" type="curve" smooth="yes"/>
      <point x="661" y="593"/>
      <point x="626" y="474"/>
      <point x="571" y="265" type="curve"/>
      <point x="528" y="92"/>
      <point x="457" y="25"/>
      <point x="344" y="24" type="curve" smooth="yes"/>
      <point x="259" y="24"/>
      <point x="198" y="73"/>
      <point x="198" y="147" type="curve" smooth="yes"/>
      <point x="198" y="181"/>
      <point x="232" y="307"/>
      <point x="300" y="547" type="curve" smooth="yes"/>
      <point x="326" y="638"/>
      <point x="338" y="652"/>
      <point x="415" y="661" type="curve"/>
      <point x="415" y="678" type="line"/>
      <point x="132" y="678" type="line"/>
      <point x="132" y="661" type="line"/>
      <point x="201" y="654"/>
      <point x="212" y="649"/>
      <point x="212" y="619" type="curve" smooth="yes"/>
      <point x="212" y="606"/>
      <point x="209" y="590"/>
      <point x="205" y="572" type="curve"/>
      <point x="151" y="373" type="line"/>
      <point x="119" y="261"/>
      <point x="106" y="194"/>
      <point x="106" y="153" type="curve" smooth="yes"/>
      <point x="106" y="54"/>
      <point x="201" y="-19"/>
      <point x="331" y="-19" type="curve" smooth="yes"/>
      <point x="468" y="-19"/>
      <point x="554" y="56"/>
      <point x="600" y="210" type="curve" smooth="yes"/>
      <point x="687" y="507" type="line" smooth="yes"/>
      <point x="726" y="643"/>
      <point x="731" y="647"/>
      <point x="794" y="661" type="curve"/>
    </contour>
    <contour>
      <point x="531" y="731" type="line"/>
      <point x="562" y="731" type="line"/>
      <point x="442" y="885" type="line" smooth="yes"/>
      <point x="428" y="902"/>
      <point x="417" y="909"/>
      <point x="402" y="909" type="curve" smooth="yes"/>
      <point x="381" y="909"/>
      <point x="366" y="894"/>
      <point x="366" y="874" type="curve" smooth="yes"/>
      <point x="366" y="862"/>
      <point x="372" y="852"/>
      <point x="385" y="841" type="curve"/>
    </contour>
  </outline>
</glyph>
<glyph name="Udieresis" format="1">
  <unicode hex="00DC"/>
  <advance width="750"/>
  <outline>
    <contour>
      <point x="794" y="678" type="line"/>
      <point x="588" y="678" type="line"/>
      <point x="588" y="661" type="line"/>
      <point x="645" y="655"/>
      <point x="661" y="643"/>
      <point x="661" y="614" type="curve" smooth="yes"/>
      <point x="661" y="593"/>
      <point x="626" y="474"/>
      <point x="571" y="265" type="curve"/>
      <point x="528" y="92"/>
      <point x="457" y="25"/>
      <point x="344" y="24" type="curve" smooth="yes"/>
      <point x="259" y="24"/>
      <point x="198" y="73"/>
      <point x="198" y="147" type="curve" smooth="yes"/>
      <point x="198" y="181"/>
      <point x="232" y="307"/>
      <point x="300" y="547" type="curve" smooth="yes"/>
      <point x="326" y="638"/>
      <point x="338" y="652"/>
      <point x="415" y="661" type="curve"/>
      <point x="415" y="678" type="line"/>
      <point x="132" y="678" type="line"/>
      <point x="132" y="661" type="line"/>
      <point x="201" y="654"/>
      <point x="212" y="649"/>
      <point x="212" y="619" type="curve" smooth="yes"/>
      <point x="212" y="606"/>
      <point x="209" y="590"/>
      <point x="205" y="572" type="curve"/>
      <point x="151" y="373" type="line"/>
      <point x="119" y="261"/>
      <point x="106" y="194"/>
      <point x="106" y="153" type="curve" smooth="yes"/>
      <point x="106" y="54"/>
      <point x="201" y="-19"/>
      <point x="331" y="-19" type="curve" smooth="yes"/>
      <point x="468" y="-19"/>
      <point x="554" y="56"/>
      <point x="600" y="210" type="curve" smooth="yes"/>
      <point x="687" y="507" type="line" smooth="yes"/>
      <point x="726" y="643"/>
      <point x="731" y="647"/>
      <point x="794" y="661" type="curve"/>
    </contour>
    <contour>
      <point x="410" y="850" type="line"/>
      <point x="380" y="850"/>
      <point x="357" y="826"/>
      <point x="357" y="799" type="curve" smooth="yes"/>
      <point x="357" y="770"/>
      <point x="380" y="748"/>
      <point x="409" y="748" type="curve" smooth="yes"/>
      <point x="436" y="748"/>
      <point x="459" y="770"/>
      <point x="459" y="798" type="curve" smooth="yes"/>
      <point x="459" y="824"/>
      <point x="434" y="850"/>
      <point x="410" y="850" type="curve"/>
    </contour>
    <contour>
      <point x="617" y="850" type="line"/>
      <point x="588" y="850"/>
      <point x="564" y="826"/>
      <point x="564" y="799" type="curve" smooth="yes"/>
      <point x="564" y="770"/>
      <point x="588" y="748"/>
      <point x="616" y="748" type="curve" smooth="yes"/>
      <point x="644" y="748"/>
      <point x="666" y="770"/>
      <point x="666" y="798" type="curve" smooth="yes"/>
      <point x="666" y="824"/>
      <point x="643" y="850"/>
      <point x="617" y="850" type="curve"/>
    </contour>
  </outline>
</glyph>
<glyph name="Thorn" format="1">
  <unicode hex="00DE"/>
  <advance width="635"/>
  <outline>
    <contour>
      <point x="152" y="661" type="line"/>
      <point x="210" y="653"/>
      <point x="225" y="646"/>
      <point x="225" y="618" type="curve" smooth="yes"/>
      <point x="225" y="603"/>
      <point x="221" y="583"/>
      <point x="207" y="534" type="curve" smooth="yes"/>
      <point x="85" y="93" type="line"/>
      <point x="67" y="31"/>
      <point x="59" y="25"/>
      <point x="0" y="17" type="curve"/>
      <point x="0" y="0" type="line"/>
      <point x="254" y="0" type="line"/>
      <point x="254" y="17" type="line"/>
      <point x="189" y="26"/>
      <point x="183" y="29"/>
      <point x="183" y="64" type="curve"/>
      <point x="213" y="187" type="line"/>
      <point x="239" y="179"/>
      <point x="263" y="177"/>
      <point x="306" y="177" type="curve" smooth="yes"/>
      <point x="501" y="177"/>
      <point x="591" y="267"/>
      <point x="591" y="383" type="curve" smooth="yes"/>
      <point x="591" y="483"/>
      <point x="513" y="537"/>
      <point x="372" y="537" type="curve" smooth="yes"/>
      <point x="313" y="537" type="line"/>
      <point x="334" y="618" type="line"/>
      <point x="343" y="647"/>
      <point x="357" y="655"/>
      <point x="399" y="661" type="curve"/>
      <point x="399" y="678" type="line" name="hr01"/>
      <point x="152" y="678" type="line"/>
    </contour>
    <contour>
      <point x="296" y="476" type="line" smooth="yes"/>
      <point x="303" y="499"/>
      <point x="315" y="507"/>
      <point x="344" y="507" type="curve" smooth="yes"/>
      <point x="436" y="507"/>
      <point x="484" y="475"/>
      <point x="484" y="382" type="curve" smooth="yes"/>
      <point x="484" y="266"/>
      <point x="423" y="213"/>
      <point x="278" y="213" type="curve" smooth="yes"/>
      <point x="260" y="213"/>
      <point x="254" y="213"/>
      <point x="223" y="219" type="curve"/>
    </contour>
  </outline>
</glyph>
<glyph name="uni00DF" format="1">
  <unicode hex="00DF"/>
  <advance width="519"/>
  <outline>
    <contour>
      <point x="342" y="399" type="line"/>
      <point x="465" y="444"/>
      <point x="512" y="493"/>
      <point x="512" y="569" type="curve" smooth="yes"/>
      <point x="512" y="649"/>
      <point x="454" y="705"/>
      <point x="368" y="705" type="curve" smooth="yes"/>
      <point x="241" y="705"/>
      <point x="156" y="594"/>
      <point x="99" y="327" type="curve"/>
      <point x="24" y="-4" type="line" smooth="yes"/>
      <point x="-8" y="-145"/>
      <point x="-35" y="-190"/>
      <point x="-86" y="-190" type="curve" smooth="yes"/>
      <point x="-98" y="-190"/>
      <point x="-105" y="-187"/>
      <point x="-105" y="-181" type="curve" smooth="yes"/>
      <point x="-105" y="-175"/>
      <point x="-92" y="-157"/>
      <point x="-92" y="-145" type="curve" smooth="yes"/>
      <point x="-92" y="-122"/>
      <point x="-110" y="-107"/>
      <point x="-134" y="-107" type="curve" smooth="yes" name="hr01"/>
      <point x="-159" y="-107"/>
      <point x="-175" y="-123"/>
      <point x="-175" y="-151" type="curve" smooth="yes"/>
      <point x="-175" y="-189"/>
      <point x="-143" y="-215"/>
      <point x="-93" y="-215" type="curve" smooth="yes"/>
      <point x="-11" y="-215"/>
      <point x="61" y="-130"/>
      <point x="99" y="13" type="curve"/>
      <point x="213" y="455" type="line"/>
      <point x="253" y="604"/>
      <point x="304" y="681"/>
      <point x="365" y="681" type="curve" smooth="yes"/>
      <point x="407" y="681"/>
      <point x="428" y="651"/>
      <point x="428" y="599" type="curve" smooth="yes"/>
      <point x="428" y="488"/>
      <point x="372" y="413"/>
      <point x="289" y="413" type="curve" smooth="yes"/>
      <point x="275" y="413"/>
      <point x="270" y="410"/>
      <point x="270" y="399" type="curve" smooth="yes"/>
      <point x="270" y="388"/>
      <point x="277" y="384"/>
      <point x="296" y="383" type="curve" smooth="yes"/>
      <point x="354" y="381"/>
      <point x="381" y="344"/>
      <point x="381" y="272" type="curve" smooth="yes" name="hr02"/>
      <point x="381" y="152"/>
      <point x="328" y="10"/>
      <point x="259" y="10" type="curve" smooth="yes"/>
      <point x="249" y="10"/>
      <point x="240" y="16"/>
      <point x="240" y="23" type="curve" smooth="yes"/>
      <point x="240" y="32"/>
      <point x="252" y="50"/>
      <point x="252" y="62" type="curve" smooth="yes"/>
      <point x="252" y="87"/>
      <point x="237" y="104"/>
      <point x="212" y="104" type="curve" smooth="yes" name="hr03"/>
      <point x="186" y="104"/>
      <point x="167" y="84"/>
      <point x="167" y="56" type="curve" smooth="yes"/>
      <point x="167" y="15"/>
      <point x="200" y="-14"/>
      <point x="250" y="-14" type="curve" smooth="yes"/>
      <point x="377" y="-14"/>
      <point x="471" y="130"/>
      <point x="471" y="253" type="curve" smooth="yes"/>
      <point x="471" y="327"/>
      <point x="424" y="385"/>
      <point x="342" y="396" type="curve"/>
    </contour>
  </outline>
</glyph>
<glyph name="aacute" format="1">
  <unicode hex="00E1"/>
  <advance width="519"/>
  <outline>
    <contour>
      <point x="482" y="114" type="line"/>
      <point x="431" y="59"/>
      <point x="410" y="43"/>
      <point x="399" y="43" type="curve" smooth="yes"/>
      <point x="390" y="43"/>
      <point x="384" y="49"/>
      <point x="384" y="57" type="curve" smooth="yes"/>
      <point x="384" y="84"/>
      <point x="443" y="263"/>
      <point x="483" y="455" type="curve"/>
      <point x="413" y="451" type="line"/>
      <point x="398" y="398" type="line"/>
      <point x="389" y="436"/>
      <point x="359" y="458"/>
      <point x="314" y="458" type="curve" smooth="yes"/>
      <point x="177" y="458"/>
      <point x="18" y="268"/>
      <point x="18" y="104" type="curve" smooth="yes"/>
      <point x="18" y="31"/>
      <point x="58" y="-12"/>
      <point x="123" y="-12" type="curve" smooth="yes"/>
      <point x="196" y="-12"/>
      <point x="241" y="23"/>
      <point x="331" y="152" type="curve"/>
      <point x="311" y="70"/>
      <point x="308" y="58"/>
      <point x="308" y="32" type="curve" smooth="yes"/>
      <point x="308" y="2"/>
      <point x="321" y="-11"/>
      <point x="350" y="-11" type="curve" smooth="yes" name="hr01"/>
      <point x="392" y="-11"/>
      <point x="417" y="10"/>
      <point x="495" y="104" type="curve"/>
    </contour>
    <contour>
      <point x="379" y="372" type="line"/>
      <point x="379" y="263"/>
      <point x="280" y="40"/>
      <point x="165" y="40" type="curve" smooth="yes" name="hr02"/>
      <point x="129" y="40"/>
      <point x="105" y="69"/>
      <point x="105" y="117" type="curve" smooth="yes"/>
      <point x="105" y="235"/>
      <point x="219" y="434"/>
      <point x="316" y="434" type="curve"/>
      <point x="356" y="432"/>
      <point x="379" y="409"/>
      <point x="379" y="372" type="curve"/>
    </contour>
    <contour>
      <point x="275" y="513" type="line"/>
      <point x="310" y="513" type="line"/>
      <point x="488" y="623" type="line" smooth="yes"/>
      <point x="501" y="631"/>
      <point x="506" y="640"/>
      <point x="506" y="651" type="curve" smooth="yes"/>
      <point x="506" y="673"/>
      <point x="489" y="689"/>
      <point x="468" y="689" type="curve" smooth="yes"/>
      <point x="458" y="689"/>
      <point x="449" y="686"/>
      <point x="442" y="679" type="curve" smooth="yes"/>
    </contour>
  </outline>
</glyph>
<glyph name="ccedilla" format="1">
  <unicode hex="00E7"/>
  <advance width="461"/>
  <outline>
    <contour>
      <point x="364" y="110" type="line"/>
      <point x="306" y="49"/>
      <point x="266" y="26"/>
      <point x="215" y="26" type="curve" smooth="yes"/>
      <point x="156" y="26"/>
      <point x="120" y="70"/>
      <point x="120" y="145" type="curve" smooth="yes"/>
      <point x="120" y="278"/>
      <point x="203" y="436"/>
      <point x="328" y="436" type="curve" smooth="yes"/>
      <point x="351" y="436"/>
      <point x="367" y="427"/>
      <point x="367" y="415" type="curve" smooth="yes"/>
      <point x="367" y="403"/>
      <point x="351" y="377"/>
      <point x="351" y="366" type="curve" smooth="yes"/>
      <point x="351" y="340"/>
      <point x="367" y="326"/>
      <point x="392" y="326" type="curve" smooth="yes" name="hr01"/>
      <point x="419" y="326"/>
      <point x="441" y="347"/>
      <point x="441" y="374" type="curve" smooth="yes"/>
      <point x="441" y="421"/>
      <point x="395" y="458"/>
      <point x="331" y="458" type="curve" smooth="yes"/>
      <point x="177" y="458"/>
      <point x="31" y="306"/>
      <point x="31" y="145" type="curve" smooth="yes"/>
      <point x="31" y="62"/>
      <point x="68" y="11"/>
      <point x="138" y="-6" type="curve"/>
      <point x="79" y="-100" type="line"/>
      <point x="89" y="-108" type="line"/>
      <point x="104" y="-103"/>
      <point x="112" y="-101"/>
      <point x="122" y="-101" type="curve" smooth="yes"/>
      <point x="151" y="-101"/>
      <point x="171" y="-119"/>
      <point x="171" y="-147" type="curve" smooth="yes"/>
      <point x="171" y="-174"/>
      <point x="151" y="-189"/>
      <point x="115" y="-189" type="curve" smooth="yes"/>
      <point x="93" y="-189"/>
      <point x="74" y="-185"/>
      <point x="45" y="-174" type="curve"/>
      <point x="27" y="-203" type="line"/>
      <point x="70" y="-220"/>
      <point x="94" y="-225"/>
      <point x="123" y="-225" type="curve" smooth="yes"/>
      <point x="195" y="-225"/>
      <point x="247" y="-188"/>
      <point x="247" y="-136" type="curve" smooth="yes"/>
      <point x="247" y="-93"/>
      <point x="213" y="-65"/>
      <point x="162" y="-65" type="curve" smooth="yes"/>
      <point x="154" y="-65"/>
      <point x="147" y="-67"/>
      <point x="136" y="-68" type="curve"/>
      <point x="175" y="-12" type="line"/>
      <point x="262" y="-12"/>
      <point x="318" y="20"/>
      <point x="380" y="100" type="curve"/>
    </contour>
  </outline>
</glyph>
<glyph name="egrave" format="1">
  <unicode hex="00E8"/>
  <advance width="461"/>
  <outline>
    <contour>
      <point x="372" y="113" type="line"/>
      <point x="296" y="53"/>
      <point x="265" y="35"/>
      <point x="220" y="35" type="curve" smooth="yes"/>
      <point x="161" y="35"/>
      <point x="122" y="72"/>
      <point x="122" y="129" type="curve" smooth="yes"/>
      <point x="122" y="145"/>
      <point x="124" y="160"/>
      <point x="133" y="193" type="curve"/>
      <point x="162" y="197" type="line" smooth="yes"/>
      <point x="318" y="219"/>
      <point x="427" y="297"/>
      <point x="427" y="387" type="curve" smooth="yes"/>
      <point x="427" y="430"/>
      <point x="397" y="458"/>
      <point x="344" y="458" type="curve" smooth="yes"/>
      <point x="195" y="458"/>
      <point x="32" y="287"/>
      <point x="32" y="131" type="curve" smooth="yes"/>
      <point x="32" y="47"/>
      <point x="88" y="-12"/>
      <point x="169" y="-12" type="curve" smooth="yes"/>
      <point x="244" y="-12"/>
      <point x="323" y="31"/>
      <point x="384" y="101" type="curve"/>
    </contour>
    <contour>
      <point x="323" y="433" type="line"/>
      <point x="344" y="433"/>
      <point x="359" y="417"/>
      <point x="359" y="394" type="curve" smooth="yes"/>
      <point x="359" y="324"/>
      <point x="296" y="254"/>
      <point x="141" y="216" type="curve"/>
      <point x="158" y="262" type="line" smooth="yes"/>
      <point x="193" y="354"/>
      <point x="270" y="433"/>
      <point x="323" y="433" type="curve"/>
    </contour>
    <contour>
      <point x="348" y="513" type="line"/>
      <point x="380" y="513" type="line"/>
      <point x="260" y="667" type="line" smooth="yes"/>
      <point x="246" y="684"/>
      <point x="235" y="691"/>
      <point x="219" y="691" type="curve" smooth="yes"/>
      <point x="198" y="691"/>
      <point x="182" y="676"/>
      <point x="182" y="655" type="curve" smooth="yes"/>
      <point x="182" y="645"/>
      <point x="189" y="634"/>
      <point x="202" y="623" type="curve"/>
    </contour>
  </outline>
</glyph>
<glyph name="eacute" format="1">
  <unicode hex="00E9"/>
  <advance width="461"/>
  <outline>
    <contour>
      <point x="372" y="113" type="line"/>
      <point x="296" y="53"/>
      <point x="265" y="35"/>
      <point x="220" y="35" type="curve" smooth="yes"/>
      <point x="161" y="35"/>
      <point x="122" y="72"/>
      <point x="122" y="129" type="curve" smooth="yes"/>
      <point x="122" y="145"/>
      <point x="124" y="160"/>
      <point x="133" y="193" type="curve"/>
      <point x="162" y="197" type="line" smooth="yes"/>
      <point x="318" y="219"/>
      <point x="427" y="297"/>
      <point x="427" y="387" type="curve" smooth="yes"/>
      <point x="427" y="430"/>
      <point x="397" y="458"/>
      <point x="344" y="458" type="curve" smooth="yes"/>
      <point x="195" y="458"/>
      <point x="32" y="287"/>
      <point x="32" y="131" type="curve" smooth="yes"/>
      <point x="32" y="47"/>
      <point x="88" y="-12"/>
      <point x="169" y="-12" type="curve" smooth="yes"/>
      <point x="244" y="-12"/>
      <point x="323" y="31"/>
      <point x="384" y="101" type="curve"/>
    </contour>
    <contour>
      <point x="158" y="262" type="line" smooth="yes"/>
      <point x="193" y="354"/>
      <point x="270" y="433"/>
      <point x="323" y="433" type="curve" smooth="yes"/>
      <point x="344" y="433"/>
      <point x="359" y="417"/>
      <point x="359" y="394" type="curve" smooth="yes"/>
      <point x="359" y="324"/>
      <point x="296" y="254"/>
      <point x="141" y="216" type="curve"/>
    </contour>
    <contour>
      <point x="245" y="513" type="line"/>
      <point x="282" y="513" type="line"/>
      <point x="459" y="623" type="line" smooth="yes"/>
      <point x="471" y="631"/>
      <point x="476" y="640"/>
      <point x="476" y="651" type="curve" smooth="yes"/>
      <point x="476" y="673"/>
      <point x="460" y="689"/>
      <point x="439" y="689" type="curve" smooth="yes"/>
      <point x="428" y="689"/>
      <point x="421" y="686"/>
      <point x="413" y="679" type="curve" smooth="yes"/>
    </contour>
  </outline>
</glyph>
<glyph name="edieresis" format="1">
  <unicode hex="00EB"/>
  <advance width="461"/>
  <outline>
    <contour>
      <point x="372" y="113" type="line"/>
      <point x="296" y="53"/>
      <point x="265" y="35"/>
      <point x="220" y="35" type="curve" smooth="yes"/>
      <point x="161" y="35"/>
      <point x="122" y="72"/>
      <point x="122" y="129" type="curve" smooth="yes"/>
      <point x="122" y="145"/>
      <point x="124" y="160"/>
      <point x="133" y="193" type="curve"/>
      <point x="162" y="197" type="line" smooth="yes"/>
      <point x="318" y="219"/>
      <point x="427" y="297"/>
      <point x="427" y="387" type="curve" smooth="yes"/>
      <point x="427" y="430"/>
      <point x="397" y="458"/>
      <point x="344" y="458" type="curve" smooth="yes"/>
      <point x="195" y="458"/>
      <point x="32" y="287"/>
      <point x="32" y="131" type="curve" smooth="yes"/>
      <point x="32" y="47"/>
      <point x="88" y="-12"/>
      <point x="169" y="-12" type="curve" smooth="yes"/>
      <point x="244" y="-12"/>
      <point x="323" y="31"/>
      <point x="384" y="101" type="curve"/>
    </contour>
    <contour>
      <point x="158" y="262" type="line" smooth="yes"/>
      <point x="193" y="354"/>
      <point x="270" y="433"/>
      <point x="323" y="433" type="curve" smooth="yes"/>
      <point x="344" y="433"/>
      <point x="359" y="417"/>
      <point x="359" y="394" type="curve" smooth="yes"/>
      <point x="359" y="324"/>
      <point x="296" y="254"/>
      <point x="141" y="216" type="curve"/>
    </contour>
    <contour>
      <point x="210" y="630" type="line"/>
      <point x="181" y="630"/>
      <point x="159" y="606"/>
      <point x="159" y="579" type="curve" smooth="yes"/>
      <point x="159" y="550"/>
      <point x="181" y="528"/>
      <point x="209" y="528" type="curve" smooth="yes"/>
      <point x="238" y="528"/>
      <point x="261" y="550"/>
      <point x="261" y="578" type="curve" smooth="yes"/>
      <point x="261" y="604"/>
      <point x="237" y="630"/>
      <point x="210" y="630" type="curve"/>
    </contour>
    <contour>
      <point x="418" y="630" type="line"/>
      <point x="389" y="630"/>
      <point x="367" y="606"/>
      <point x="367" y="579" type="curve" smooth="yes"/>
      <point x="367" y="550"/>
      <point x="389" y="528"/>
      <point x="417" y="528" type="curve" smooth="yes"/>
      <point x="445" y="528"/>
      <point x="468" y="550"/>
      <point x="468" y="578" type="curve" smooth="yes" name="hr01"/>
      <point x="468" y="604"/>
      <point x="444" y="630"/>
      <point x="418" y="630" type="curve"/>
    </contour>
  </outline>
</glyph>
<glyph name="iacute" format="1">
  <unicode hex="00ED"/>
  <advance width="289"/>
  <outline>
    <contour>
      <point x="231" y="118" type="line"/>
      <point x="183" y="55"/>
      <point x="162" y="39"/>
      <point x="146" y="38" type="curve" smooth="yes"/>
      <point x="120" y="37"/>
      <point x="136" y="89"/>
      <point x="146" y="125" type="curve" smooth="yes"/>
      <point x="234" y="458" type="line"/>
      <point x="129" y="438"/>
      <point x="108" y="434"/>
      <point x="67" y="431" type="curve"/>
      <point x="67" y="415" type="line"/>
      <point x="122" y="414"/>
      <point x="133" y="412"/>
      <point x="133" y="390" type="curve" smooth="yes"/>
      <point x="133" y="382"/>
      <point x="130" y="366"/>
      <point x="73" y="161" type="curve"/>
      <point x="59" y="104"/>
      <point x="51" y="72"/>
      <point x="51" y="48" type="curve" smooth="yes"/>
      <point x="51" y="10"/>
      <point x="67" y="-12"/>
      <point x="99" y="-12" type="curve" smooth="yes"/>
      <point x="147" y="-12"/>
      <point x="185" y="20"/>
      <point x="244" y="107" type="curve"/>
    </contour>
    <contour>
      <point x="138" y="513" type="line"/>
      <point x="175" y="513" type="line"/>
      <point x="352" y="623" type="line" smooth="yes"/>
      <point x="365" y="631"/>
      <point x="370" y="640"/>
      <point x="370" y="651" type="curve" smooth="yes"/>
      <point x="370" y="673"/>
      <point x="353" y="689"/>
      <point x="331" y="689" type="curve" smooth="yes"/>
      <point x="322" y="689"/>
      <point x="313" y="686"/>
      <point x="306" y="679" type="curve" smooth="yes"/>
    </contour>
  </outline>
</glyph>
<glyph name="icircumflex" format="1">
  <unicode hex="00EE"/>
  <advance width="289"/>
  <outline>
    <contour>
      <point x="249" y="689" type="line"/>
      <point x="198" y="689" type="line"/>
      <point x="35" y="513" type="line"/>
      <point x="75" y="513" type="line"/>
      <point x="218" y="621" type="line"/>
      <point x="303" y="513" type="line"/>
      <point x="340" y="513" type="line"/>
    </contour>
    <contour>
      <point x="231" y="118" type="line"/>
      <point x="183" y="55"/>
      <point x="162" y="39"/>
      <point x="146" y="38" type="curve" smooth="yes"/>
      <point x="120" y="37"/>
      <point x="136" y="89"/>
      <point x="146" y="125" type="curve" smooth="yes"/>
      <point x="234" y="458" type="line"/>
      <point x="129" y="438"/>
      <point x="108" y="434"/>
      <point x="67" y="431" type="curve"/>
      <point x="67" y="415" type="line"/>
      <point x="122" y="414"/>
      <point x="133" y="412"/>
      <point x="133" y="390" type="curve" smooth="yes"/>
      <point x="133" y="382"/>
      <point x="130" y="366"/>
      <point x="73" y="161" type="curve"/>
      <point x="59" y="104"/>
      <point x="51" y="72"/>
      <point x="51" y="48" type="curve" smooth="yes"/>
      <point x="51" y="10"/>
      <point x="67" y="-12"/>
      <point x="99" y="-12" type="curve" smooth="yes"/>
      <point x="147" y="-12"/>
      <point x="185" y="20"/>
      <point x="244" y="107" type="curve"/>
    </contour>
  </outline>
</glyph>
<glyph name="idieresis" format="1">
  <unicode hex="00EF"/>
  <advance width="289"/>
  <outline>
    <contour>
      <point x="109" y="630" type="line"/>
      <point x="79" y="630"/>
      <point x="58" y="606"/>
      <point x="58" y="579" type="curve" smooth="yes"/>
      <point x="58" y="550"/>
      <point x="79" y="528"/>
      <point x="108" y="528" type="curve" smooth="yes"/>
      <point x="136" y="528"/>
      <point x="159" y="550"/>
      <point x="159" y="578" type="curve" smooth="yes"/>
      <point x="159" y="604"/>
      <point x="135" y="630"/>
      <point x="109" y="630" type="curve"/>
    </contour>
    <contour>
      <point x="316" y="630" type="line"/>
      <point x="289" y="630"/>
      <point x="265" y="606"/>
      <point x="265" y="579" type="curve" smooth="yes"/>
      <point x="265" y="550"/>
      <point x="289" y="528"/>
      <point x="315" y="528" type="curve" smooth="yes"/>
      <point x="343" y="528"/>
      <point x="367" y="550"/>
      <point x="367" y="578" type="curve" smooth="yes"/>
      <point x="367" y="604"/>
      <point x="342" y="630"/>
      <point x="316" y="630" type="curve"/>
    </contour>
    <contour>
      <point x="231" y="118" type="line"/>
      <point x="183" y="55"/>
      <point x="162" y="39"/>
      <point x="146" y="38" type="curve" smooth="yes"/>
      <point x="120" y="37"/>
      <point x="136" y="89"/>
      <point x="146" y="125" type="curve" smooth="yes"/>
      <point x="234" y="458" type="line"/>
      <point x="129" y="438"/>
      <point x="108" y="434"/>
      <point x="67" y="431" type="curve"/>
      <point x="67" y="415" type="line" name="hr01"/>
      <point x="122" y="414"/>
      <point x="133" y="412"/>
      <point x="133" y="390" type="curve" smooth="yes"/>
      <point x="133" y="382"/>
      <point x="130" y="366"/>
      <point x="73" y="161" type="curve"/>
      <point x="59" y="104"/>
      <point x="51" y="72"/>
      <point x="51" y="48" type="curve" smooth="yes"/>
      <point x="51" y="10"/>
      <point x="67" y="-12"/>
      <point x="99" y="-12" type="curve" smooth="yes"/>
      <point x="147" y="-12"/>
      <point x="185" y="20"/>
      <point x="244" y="107" type="curve"/>
    </contour>
  </outline>
</glyph>
<glyph name="eth" format="1">
  <unicode hex="00F0"/>
  <advance width="519"/>
  <outline>
    <contour>
      <point x="336" y="589" type="line"/>
      <point x="378" y="534"/>
      <point x="401" y="480"/>
      <point x="412" y="409" type="curve"/>
      <point x="410" y="408" type="line"/>
      <point x="392" y="440"/>
      <point x="362" y="458"/>
      <point x="322" y="458" type="curve" smooth="yes"/>
      <point x="179" y="458"/>
      <point x="28" y="291"/>
      <point x="28" y="134" type="curve" smooth="yes"/>
      <point x="28" y="45"/>
      <point x="86" y="-12"/>
      <point x="180" y="-12" type="curve" smooth="yes"/>
      <point x="343" y="-12"/>
      <point x="485" y="167"/>
      <point x="485" y="373" type="curve" smooth="yes"/>
      <point x="485" y="469"/>
      <point x="459" y="539"/>
      <point x="396" y="615" type="curve"/>
      <point x="501" y="661" type="line"/>
      <point x="467" y="690" type="line"/>
      <point x="365" y="646" type="line"/>
      <point x="323" y="680"/>
      <point x="285" y="698"/>
      <point x="238" y="709" type="curve"/>
      <point x="201" y="691" type="line"/>
      <point x="245" y="674"/>
      <point x="272" y="655"/>
      <point x="308" y="622" type="curve"/>
      <point x="180" y="565" type="line"/>
      <point x="215" y="535" type="line"/>
    </contour>
    <contour>
      <point x="325" y="436" type="line"/>
      <point x="370" y="436"/>
      <point x="399" y="398"/>
      <point x="399" y="338" type="curve" smooth="yes"/>
      <point x="399" y="198"/>
      <point x="300" y="11"/>
      <point x="196" y="11" type="curve" smooth="yes"/>
      <point x="148" y="11"/>
      <point x="115" y="49"/>
      <point x="115" y="105" type="curve" smooth="yes"/>
      <point x="115" y="234"/>
      <point x="216" y="436"/>
      <point x="325" y="436" type="curve"/>
    </contour>
  </outline>
</glyph>
<glyph name="ntilde" format="1">
  <unicode hex="00F1"/>
  <advance width="519"/>
  <outline>
    <contour>
      <point x="477" y="121" type="line"/>
      <point x="456" y="94" type="line"/>
      <point x="425" y="57"/>
      <point x="408" y="40"/>
      <point x="393" y="40" type="curve" smooth="yes"/>
      <point x="369" y="40"/>
      <point x="375" y="65"/>
      <point x="390" y="121" type="curve" smooth="yes"/>
      <point x="449" y="335" type="line" smooth="yes"/>
      <point x="455" y="357"/>
      <point x="459" y="380"/>
      <point x="459" y="395" type="curve" smooth="yes"/>
      <point x="459" y="431"/>
      <point x="430" y="458"/>
      <point x="390" y="458" type="curve" smooth="yes"/>
      <point x="324" y="458"/>
      <point x="259" y="396"/>
      <point x="152" y="230" type="curve"/>
      <point x="218" y="458" type="line"/>
      <point x="162" y="446"/>
      <point x="141" y="442"/>
      <point x="50" y="425" type="curve"/>
      <point x="50" y="410" type="line"/>
      <point x="103" y="409"/>
      <point x="116" y="402"/>
      <point x="116" y="381" type="curve" smooth="yes"/>
      <point x="116" y="375"/>
      <point x="115" y="369"/>
      <point x="114" y="364" type="curve" smooth="yes"/>
      <point x="15" y="0" type="line" name="hr01"/>
      <point x="92" y="0" type="line"/>
      <point x="182" y="305"/>
      <point x="294" y="405"/>
      <point x="350" y="405" type="curve" smooth="yes"/>
      <point x="366" y="405"/>
      <point x="375" y="394"/>
      <point x="375" y="375" type="curve" smooth="yes"/>
      <point x="375" y="363"/>
      <point x="369" y="328"/>
      <point x="360" y="295" type="curve" smooth="yes"/>
      <point x="314" y="124" type="line" smooth="yes"/>
      <point x="299" y="71"/>
      <point x="298" y="58"/>
      <point x="297" y="47" type="curve"/>
      <point x="297" y="8"/>
      <point x="312" y="-10"/>
      <point x="347" y="-10" type="curve" smooth="yes" name="hr02"/>
      <point x="394" y="-10"/>
      <point x="421" y="13"/>
      <point x="492" y="108" type="curve"/>
    </contour>
    <contour>
      <point x="465" y="648" type="line"/>
      <point x="454" y="614"/>
      <point x="440" y="602"/>
      <point x="413" y="602" type="curve" smooth="yes"/>
      <point x="385" y="602"/>
      <point x="290" y="647"/>
      <point x="259" y="647" type="curve" smooth="yes" name="hr03"/>
      <point x="204" y="647"/>
      <point x="176" y="617"/>
      <point x="156" y="536" type="curve"/>
      <point x="185" y="536" type="line"/>
      <point x="195" y="570"/>
      <point x="211" y="586"/>
      <point x="238" y="586" type="curve" smooth="yes"/>
      <point x="246" y="586"/>
      <point x="358" y="540"/>
      <point x="396" y="540" type="curve" smooth="yes" name="hr04"/>
      <point x="445" y="540"/>
      <point x="480" y="578"/>
      <point x="495" y="648" type="curve"/>
    </contour>
  </outline>
</glyph>
<glyph name="ograve" format="1">
  <unicode hex="00F2"/>
  <advance width="519"/>
  <outline>
    <contour>
      <point x="337" y="458" type="line"/>
      <point x="181" y="458"/>
      <point x="28" y="296"/>
      <point x="28" y="134" type="curve" smooth="yes"/>
      <point x="28" y="45"/>
      <point x="86" y="-12"/>
      <point x="180" y="-12" type="curve" smooth="yes"/>
      <point x="331" y="-12"/>
      <point x="486" y="163"/>
      <point x="486" y="312" type="curve" smooth="yes"/>
      <point x="486" y="399"/>
      <point x="425" y="458"/>
      <point x="337" y="458" type="curve"/>
    </contour>
    <contour>
      <point x="325" y="436" type="line"/>
      <point x="370" y="436"/>
      <point x="399" y="398"/>
      <point x="399" y="338" type="curve" smooth="yes"/>
      <point x="399" y="198"/>
      <point x="301" y="11"/>
      <point x="196" y="11" type="curve" smooth="yes"/>
      <point x="148" y="11"/>
      <point x="115" y="48"/>
      <point x="115" y="105" type="curve" smooth="yes"/>
      <point x="115" y="234"/>
      <point x="216" y="436"/>
      <point x="325" y="436" type="curve"/>
    </contour>
    <contour>
      <point x="377" y="513" type="line"/>
      <point x="410" y="513" type="line"/>
      <point x="289" y="667" type="line" smooth="yes"/>
      <point x="276" y="684"/>
      <point x="264" y="691"/>
      <point x="248" y="691" type="curve" smooth="yes"/>
      <point x="227" y="691"/>
      <point x="211" y="676"/>
      <point x="211" y="655" type="curve" smooth="yes"/>
      <point x="211" y="645"/>
      <point x="218" y="634"/>
      <point x="232" y="623" type="curve" smooth="yes"/>
    </contour>
  </outline>
</glyph>
<glyph name="oacute" format="1">
  <unicode hex="00F3"/>
  <advance width="519"/>
  <outline>
    <contour>
      <point x="337" y="458" type="line"/>
      <point x="181" y="458"/>
      <point x="28" y="296"/>
      <point x="28" y="134" type="curve" smooth="yes"/>
      <point x="28" y="45"/>
      <point x="86" y="-12"/>
      <point x="180" y="-12" type="curve" smooth="yes"/>
      <point x="331" y="-12"/>
      <point x="486" y="163"/>
      <point x="486" y="312" type="curve" smooth="yes"/>
      <point x="486" y="399"/>
      <point x="425" y="458"/>
      <point x="337" y="458" type="curve"/>
    </contour>
    <contour>
      <point x="325" y="436" type="line"/>
      <point x="370" y="436"/>
      <point x="399" y="398"/>
      <point x="399" y="338" type="curve" smooth="yes"/>
      <point x="399" y="198"/>
      <point x="301" y="11"/>
      <point x="196" y="11" type="curve" smooth="yes"/>
      <point x="148" y="11"/>
      <point x="115" y="48"/>
      <point x="115" y="105" type="curve" smooth="yes"/>
      <point x="115" y="234"/>
      <point x="216" y="436"/>
      <point x="325" y="436" type="curve"/>
    </contour>
    <contour>
      <point x="275" y="513" type="line"/>
      <point x="310" y="513" type="line"/>
      <point x="488" y="623" type="line" smooth="yes"/>
      <point x="501" y="631"/>
      <point x="506" y="640"/>
      <point x="506" y="651" type="curve" smooth="yes"/>
      <point x="506" y="673"/>
      <point x="489" y="689"/>
      <point x="468" y="689" type="curve" smooth="yes"/>
      <point x="458" y="689"/>
      <point x="449" y="686"/>
      <point x="442" y="679" type="curve" smooth="yes"/>
    </contour>
  </outline>
</glyph>
<glyph name="ocircumflex" format="1">
  <unicode hex="00F4"/>
  <advance width="519"/>
  <outline>
    <contour>
      <point x="337" y="458" type="line"/>
      <point x="181" y="458"/>
      <point x="28" y="296"/>
      <point x="28" y="134" type="curve" smooth="yes"/>
      <point x="28" y="45"/>
      <point x="86" y="-12"/>
      <point x="180" y="-12" type="curve" smooth="yes"/>
      <point x="331" y="-12"/>
      <point x="486" y="163"/>
      <point x="486" y="312" type="curve" smooth="yes"/>
      <point x="486" y="399"/>
      <point x="425" y="458"/>
      <point x="337" y="458" type="curve"/>
    </contour>
    <contour>
      <point x="325" y="436" type="line"/>
      <point x="370" y="436"/>
      <point x="399" y="398"/>
      <point x="399" y="338" type="curve" smooth="yes"/>
      <point x="399" y="198"/>
      <point x="301" y="11"/>
      <point x="196" y="11" type="curve" smooth="yes"/>
      <point x="148" y="11"/>
      <point x="115" y="48"/>
      <point x="115" y="105" type="curve" smooth="yes"/>
      <point x="115" y="234"/>
      <point x="216" y="436"/>
      <point x="325" y="436" type="curve"/>
    </contour>
    <contour>
      <point x="384" y="689" type="line"/>
      <point x="333" y="689" type="line"/>
      <point x="171" y="513" type="line" name="hr01"/>
      <point x="210" y="513" type="line"/>
      <point x="353" y="621" type="line"/>
      <point x="438" y="513" type="line"/>
      <point x="475" y="513" type="line"/>
    </contour>
  </outline>
</glyph>
<glyph name="divide" format="1">
  <unicode hex="00F7"/>
  <advance width="701"/>
  <outline>
    <contour>
      <point x="89" y="230" type="line"/>
      <point x="617" y="230" type="line"/>
      <point x="617" y="294" type="line"/>
      <point x="89" y="294" type="line"/>
    </contour>
    <contour>
      <point x="350" y="462" type="line"/>
      <point x="319" y="462"/>
      <point x="296" y="439"/>
      <point x="296" y="410" type="curve" smooth="yes"/>
      <point x="296" y="382"/>
      <point x="321" y="358"/>
      <point x="350" y="358" type="curve" smooth="yes"/>
      <point x="378" y="358"/>
      <point x="402" y="381"/>
      <point x="402" y="410" type="curve" smooth="yes"/>
      <point x="402" y="439"/>
      <point x="378" y="462"/>
      <point x="350" y="462" type="curve"/>
    </contour>
    <contour>
      <point x="351" y="149" type="line"/>
      <point x="322" y="149"/>
      <point x="298" y="126"/>
      <point x="298" y="97" type="curve" smooth="yes"/>
      <point x="298" y="69"/>
      <point x="323" y="45"/>
      <point x="351" y="45" type="curve" smooth="yes"/>
      <point x="380" y="45"/>
      <point x="404" y="68"/>
      <point x="404" y="97" type="curve" smooth="yes"/>
      <point x="404" y="126"/>
      <point x="380" y="149"/>
      <point x="351" y="149" type="curve"/>
    </contour>
  </outline>
</glyph>
<glyph name="oslash" format="1">
  <unicode hex="00F8"/>
  <advance width="519"/>
  <outline>
    <contour>
      <point x="444" y="575" type="line"/>
      <point x="410" y="575" type="line"/>
      <point x="352" y="457" type="line"/>
      <point x="344" y="458"/>
      <point x="339" y="458"/>
      <point x="335" y="458" type="curve" smooth="yes"/>
      <point x="185" y="458"/>
      <point x="29" y="294"/>
      <point x="29" y="135" type="curve" smooth="yes"/>
      <point x="29" y="67"/>
      <point x="61" y="18"/>
      <point x="129" y="-4" type="curve"/>
      <point x="62" y="-141" type="line"/>
      <point x="99" y="-141" type="line"/>
      <point x="162" y="-10" type="line"/>
      <point x="168" y="-12"/>
      <point x="174" y="-12"/>
      <point x="182" y="-12" type="curve" smooth="yes"/>
      <point x="331" y="-12"/>
      <point x="487" y="163"/>
      <point x="487" y="309" type="curve" smooth="yes"/>
      <point x="487" y="380"/>
      <point x="454" y="430"/>
      <point x="384" y="452" type="curve"/>
    </contour>
    <contour>
      <point x="146" y="30" type="line"/>
      <point x="126" y="50"/>
      <point x="116" y="72"/>
      <point x="116" y="101" type="curve" smooth="yes"/>
      <point x="116" y="235"/>
      <point x="210" y="436"/>
      <point x="330" y="436" type="curve" smooth="yes"/>
      <point x="331" y="436"/>
      <point x="335" y="434"/>
      <point x="340" y="433" type="curve"/>
    </contour>
    <contour>
      <point x="371" y="421" type="line"/>
      <point x="390" y="400"/>
      <point x="400" y="374"/>
      <point x="400" y="337" type="curve" smooth="yes"/>
      <point x="400" y="201"/>
      <point x="307" y="11"/>
      <point x="196" y="11" type="curve" smooth="yes"/>
      <point x="187" y="11"/>
      <point x="181" y="12"/>
      <point x="174" y="15" type="curve"/>
    </contour>
  </outline>
</glyph>
<glyph name="ugrave" format="1">
  <unicode hex="00F9"/>
  <advance width="519"/>
  <outline>
    <contour>
      <point x="478" y="121" type="line"/>
      <point x="424" y="55"/>
      <point x="410" y="40"/>
      <point x="393" y="40" type="curve" smooth="yes"/>
      <point x="385" y="40"/>
      <point x="381" y="46"/>
      <point x="381" y="58" type="curve"/>
      <point x="382" y="63"/>
      <point x="380" y="63"/>
      <point x="401" y="138" type="curve"/>
      <point x="483" y="448" type="line"/>
      <point x="407" y="448" type="line"/>
      <point x="294" y="148"/>
      <point x="195" y="44"/>
      <point x="146" y="44" type="curve" smooth="yes"/>
      <point x="130" y="44"/>
      <point x="119" y="62"/>
      <point x="124" y="78" type="curve"/>
      <point x="216" y="458" type="line"/>
      <point x="157" y="444"/>
      <point x="119" y="437"/>
      <point x="60" y="429" type="curve"/>
      <point x="60" y="415" type="line"/>
      <point x="120" y="415"/>
      <point x="122" y="407"/>
      <point x="122" y="390" type="curve" smooth="yes"/>
      <point x="122" y="382"/>
      <point x="117" y="356"/>
      <point x="108" y="321" type="curve" smooth="yes"/>
      <point x="69" y="174" type="line"/>
      <point x="51" y="100"/>
      <point x="44" y="64"/>
      <point x="44" y="46" type="curve" smooth="yes"/>
      <point x="44" y="9"/>
      <point x="62" y="-12"/>
      <point x="99" y="-12" type="curve" smooth="yes"/>
      <point x="173" y="-12"/>
      <point x="227" y="45"/>
      <point x="347" y="245" type="curve"/>
      <point x="316" y="134"/>
      <point x="299" y="62"/>
      <point x="299" y="41" type="curve" smooth="yes"/>
      <point x="299" y="10"/>
      <point x="319" y="-10"/>
      <point x="350" y="-10" type="curve" smooth="yes" name="hr01"/>
      <point x="399" y="-10"/>
      <point x="422" y="12"/>
      <point x="493" y="112" type="curve"/>
    </contour>
    <contour>
      <point x="377" y="513" type="line"/>
      <point x="410" y="513" type="line"/>
      <point x="289" y="667" type="line" smooth="yes"/>
      <point x="276" y="684"/>
      <point x="264" y="691"/>
      <point x="248" y="691" type="curve" smooth="yes"/>
      <point x="227" y="691"/>
      <point x="211" y="676"/>
      <point x="211" y="655" type="curve" smooth="yes"/>
      <point x="211" y="645"/>
      <point x="218" y="634"/>
      <point x="232" y="623" type="curve" smooth="yes"/>
    </contour>
  </outline>
</glyph>
<glyph name="yacute" format="1">
  <unicode hex="00FD"/>
  <advance width="461"/>
  <outline>
    <contour>
      <point x="16" y="415" type="line"/>
      <point x="29" y="418"/>
      <point x="36" y="419"/>
      <point x="48" y="419" type="curve" smooth="yes"/>
      <point x="106" y="419"/>
      <point x="124" y="394"/>
      <point x="171" y="215" type="curve" smooth="yes"/>
      <point x="189" y="148"/>
      <point x="211" y="26"/>
      <point x="212" y="9" type="curve"/>
      <point x="212" y="-32"/>
      <point x="133" y="-118"/>
      <point x="127" y="-126" type="curve"/>
      <point x="105" y="-149"/>
      <point x="92" y="-157"/>
      <point x="78" y="-157" type="curve" smooth="yes"/>
      <point x="67" y="-157"/>
      <point x="33" y="-128"/>
      <point x="16" y="-128" type="curve" smooth="yes"/>
      <point x="-8" y="-128"/>
      <point x="-25" y="-146"/>
      <point x="-25" y="-168" type="curve" smooth="yes"/>
      <point x="-25" y="-194"/>
      <point x="-2" y="-213"/>
      <point x="28" y="-213" type="curve" smooth="yes"/>
      <point x="94" y="-213"/>
      <point x="231" y="-59"/>
      <point x="342" y="148" type="curve"/>
      <point x="413" y="276"/>
      <point x="442" y="350"/>
      <point x="442" y="401" type="curve" smooth="yes"/>
      <point x="442" y="431"/>
      <point x="416" y="458"/>
      <point x="385" y="458" type="curve" smooth="yes"/>
      <point x="362" y="458"/>
      <point x="344" y="442"/>
      <point x="344" y="419" type="curve" smooth="yes"/>
      <point x="344" y="390"/>
      <point x="401" y="371"/>
      <point x="401" y="343" type="curve" smooth="yes"/>
      <point x="401" y="301"/>
      <point x="363" y="221"/>
      <point x="275" y="74" type="curve"/>
      <point x="253" y="195" type="line"/>
      <point x="238" y="287"/>
      <point x="179" y="458"/>
      <point x="164" y="458" type="curve" smooth="yes"/>
      <point x="160" y="458"/>
      <point x="69" y="448"/>
      <point x="16" y="432" type="curve"/>
    </contour>
    <contour>
      <point x="245" y="513" type="line"/>
      <point x="282" y="513" type="line"/>
      <point x="459" y="623" type="line" smooth="yes"/>
      <point x="471" y="631"/>
      <point x="476" y="640"/>
      <point x="476" y="651" type="curve" smooth="yes"/>
      <point x="476" y="673"/>
      <point x="460" y="689"/>
      <point x="439" y="689" type="curve" smooth="yes"/>
      <point x="428" y="689"/>
      <point x="421" y="686"/>
      <point x="413" y="679" type="curve" smooth="yes"/>
    </contour>
  </outline>
</glyph>
<glyph name="thorn" format="1">
  <unicode hex="00FE"/>
  <advance width="519"/>
  <outline>
    <contour>
      <point x="135" y="-197" type="line"/>
      <point x="86" y="-197"/>
      <point x="68" y="-189"/>
      <point x="68" y="-165" type="curve" smooth="yes"/>
      <point x="68" y="-152"/>
      <point x="87" y="-69"/>
      <point x="107" y="6" type="curve"/>
      <point x="133" y="-8"/>
      <point x="152" y="-12"/>
      <point x="176" y="-12" type="curve" smooth="yes"/>
      <point x="327" y="-12"/>
      <point x="487" y="163"/>
      <point x="487" y="327" type="curve" smooth="yes"/>
      <point x="487" y="410"/>
      <point x="442" y="458"/>
      <point x="367" y="458" type="curve" smooth="yes"/>
      <point x="300" y="458"/>
      <point x="246" y="421"/>
      <point x="198" y="345" type="curve"/>
      <point x="196" y="348" type="line"/>
      <point x="206" y="380"/>
      <point x="224" y="449"/>
      <point x="291" y="704" type="curve"/>
      <point x="286" y="709" type="line"/>
      <point x="235" y="699"/>
      <point x="197" y="693"/>
      <point x="128" y="686" type="curve"/>
      <point x="128" y="667" type="line"/>
      <point x="189" y="665"/>
      <point x="195" y="662"/>
      <point x="195" y="640" type="curve" smooth="yes"/>
      <point x="195" y="617"/>
      <point x="117" y="343"/>
      <point x="-9" y="-135" type="curve"/>
      <point x="-19" y="-182"/>
      <point x="-33" y="-195"/>
      <point x="-77" y="-196" type="curve"/>
      <point x="-77" y="-212" type="line" name="hr01"/>
      <point x="135" y="-212" type="line"/>
    </contour>
    <contour>
      <point x="329" y="413" type="line"/>
      <point x="372" y="413"/>
      <point x="394" y="384"/>
      <point x="394" y="324" type="curve" smooth="yes"/>
      <point x="394" y="187"/>
      <point x="289" y="11"/>
      <point x="173" y="9" type="curve" smooth="yes"/>
      <point x="143" y="9"/>
      <point x="121" y="24"/>
      <point x="121" y="47" type="curve" smooth="yes"/>
      <point x="121" y="141"/>
      <point x="195" y="413"/>
      <point x="329" y="413" type="curve"/>
    </contour>
  </outline>
</glyph>
